<svg width="25" height="24" viewBox="0 0 25 24" fill="none" xmlns="http://www.w3.org/2000/svg">
<path d="M11.2949 3C10.7426 3 10.2949 3.44772 10.2949 4V20.001C10.2949 20.5533 10.7426 21.001 11.2949 21.001H13.9649C14.5172 21.001 14.9649 20.5533 14.9649 20.001V4C14.9649 3.44772 14.5172 3 13.9649 3H11.2949Z" fill="#00E7FF"/>
<path d="M4.625 13C4.07272 13 3.625 13.4477 3.625 14V20.001C3.625 20.5533 4.07272 21.001 4.625 21.001H7.295C7.84728 21.001 8.295 20.5533 8.295 20.001V14C8.295 13.4477 7.84728 13 7.295 13H4.625Z" fill="#00E7FF"/>
<path d="M16.9648 9C16.9648 8.44772 17.4126 8 17.9648 8H20.6348C21.1871 8 21.6348 8.44772 21.6348 9V20.001C21.6348 20.5533 21.1871 21.001 20.6348 21.001H17.9648C17.4126 21.001 16.9648 20.5533 16.9648 20.001V9Z" fill="#00E7FF"/>
</svg>
