<svg width="25" height="24" viewBox="0 0 25 24" fill="none" xmlns="http://www.w3.org/2000/svg">
<path fill-rule="evenodd" clip-rule="evenodd" d="M4.125 4C4.125 3.44772 4.57272 3 5.125 3H19.125C19.6773 3 20.125 3.44772 20.125 4C20.125 4.55228 19.6773 5 19.125 5H5.125C4.57272 5 4.125 4.55228 4.125 4ZM2.125 7C2.125 6.44772 2.57272 6 3.125 6H21.125C21.6773 6 22.125 6.44772 22.125 7V20C22.125 20.5523 21.6773 21 21.125 21H3.125C2.57272 21 2.125 20.5523 2.125 20V7ZM10.6918 10.5987C11.0383 10.4322 11.4495 10.479 11.7497 10.7191L14.2497 12.7191C14.4869 12.9089 14.625 13.1962 14.625 13.5C14.625 13.8038 14.4869 14.0911 14.2497 14.2809L11.7497 16.2809C11.4495 16.521 11.0383 16.5678 10.6918 16.4013C10.3453 16.2348 10.125 15.8844 10.125 15.5V11.5C10.125 11.1156 10.3453 10.7652 10.6918 10.5987Z" fill="white" fill-opacity="0.45"/>
</svg>
