<svg width="25" height="24" viewBox="0 0 25 24" fill="none" xmlns="http://www.w3.org/2000/svg">
<path fill-rule="evenodd" clip-rule="evenodd" d="M3.375 4C3.375 3.44772 3.82272 3 4.375 3H20.375C20.9273 3 21.375 3.44772 21.375 4V20C21.375 20.5523 20.9273 21 20.375 21H4.375C3.82272 21 3.375 20.5523 3.375 20V4ZM5.375 5V7H7.375V5H5.375ZM9.375 11V13H15.375V11H9.375ZM17.375 5V7H19.375V5H17.375ZM19.375 9H17.375V11H19.375V9ZM19.375 13H17.375V15.4444H19.375V13ZM19.375 17.4444H17.375V19H19.375V17.4444ZM7.375 19V17H5.375V19H7.375ZM5.375 15H7.375V13H5.375V15ZM5.375 11H7.375V9H5.375V11Z" fill="white" fill-opacity="0.45"/>
</svg>
