<svg width="16" height="16" viewBox="0 0 16 16" fill="none" xmlns="http://www.w3.org/2000/svg">
<path fill-rule="evenodd" clip-rule="evenodd" d="M1.33326 8C1.33326 4.31811 4.31803 1.33334 7.99993 1.33334C11.6819 1.33334 14.6666 4.31811 14.6666 8C14.6666 11.6819 11.6819 14.6667 7.99993 14.6667C7.01789 14.6667 6.08386 14.4539 5.24288 14.0715L2.12253 14.6553C1.9043 14.6961 1.68005 14.6256 1.52443 14.4673C1.36881 14.3089 1.30224 14.0835 1.34687 13.866L1.96757 10.8415C1.56059 9.97882 1.33326 9.0151 1.33326 8ZM7.99993 2.66667C5.05441 2.66667 2.6666 5.05449 2.6666 8C2.6666 8.88273 2.88054 9.7136 3.25881 10.4453C3.32883 10.5808 3.35031 10.7361 3.31965 10.8855L2.85241 13.1623L5.21066 12.721C5.35304 12.6944 5.50023 12.7149 5.62995 12.7793C6.34313 13.1337 7.14729 13.3333 7.99993 13.3333C10.9455 13.3333 13.3333 10.9455 13.3333 8C13.3333 5.05448 10.9455 2.66667 7.99993 2.66667Z" fill="white" fill-opacity="0.45"/>
</svg>
