<svg width="16" height="16" viewBox="0 0 16 16" fill="none" xmlns="http://www.w3.org/2000/svg">
<path fill-rule="evenodd" clip-rule="evenodd" d="M8.00008 2.66666C10.7305 2.66665 13.3771 4.29279 15.0854 7.37002C15.3021 7.76041 15.3021 8.23953 15.0854 8.62992C13.3771 11.7071 10.7305 13.3333 8.00009 13.3333C5.26966 13.3334 2.62309 11.7072 0.914726 8.62999L0.914691 8.62993C0.698033 8.23957 0.698033 7.7605 0.914691 7.37014L0.914726 7.37008C2.62309 4.29286 5.26965 2.66668 8.00008 2.66666ZM2.09004 8.00004C3.60909 10.7247 5.84635 12 8.00008 12C10.1538 12 12.3911 10.7246 13.9101 7.99997C12.3911 5.27531 10.1538 3.99998 8.00009 4C5.84636 4.00001 3.60909 5.27537 2.09004 8.00004ZM8.00008 6.66667C7.26367 6.66667 6.66675 7.26359 6.66675 8C6.66675 8.73641 7.26367 9.33334 8.00008 9.33334C8.73649 9.33334 9.33341 8.73641 9.33341 8C9.33341 7.26359 8.73649 6.66667 8.00008 6.66667ZM5.33341 8C5.33341 6.52721 6.52729 5.33334 8.00008 5.33334C9.47287 5.33334 10.6667 6.52721 10.6667 8C10.6667 9.47279 9.47287 10.6667 8.00008 10.6667C6.52729 10.6667 5.33341 9.47279 5.33341 8Z" fill="white" fill-opacity="0.45"/>
</svg>
