<svg width="17" height="16" viewBox="0 0 17 16" fill="none" xmlns="http://www.w3.org/2000/svg">
<path fill-rule="evenodd" clip-rule="evenodd" d="M8.11438 12.899C2.94949 9.89316 2.33423 6.78653 3.01135 5.09815C3.37238 4.19793 4.11646 3.58183 4.95843 3.3941C5.78382 3.21006 6.76364 3.42507 7.63964 4.31361C7.76493 4.44069 7.93593 4.51224 8.11439 4.51224C8.29284 4.51224 8.46385 4.44069 8.58913 4.31361C9.46512 3.42507 10.4449 3.21006 11.2703 3.3941C12.1123 3.58183 12.8564 4.19793 13.2174 5.09815C13.8945 6.78653 13.2793 9.89316 8.11438 12.899ZM8.11438 2.95023C7.03664 2.09469 5.79994 1.84039 4.66826 2.09272C3.38288 2.37932 2.29307 3.30713 1.77383 4.60184C0.704389 7.26845 2.10316 11.0617 7.78843 14.2482C7.99092 14.3617 8.23786 14.3617 8.44034 14.2482C14.1256 11.0617 15.5244 7.26845 14.4549 4.60184C13.9357 3.30713 12.8459 2.37932 11.5605 2.09272C10.4288 1.84039 9.19212 2.09469 8.11438 2.95023Z" fill="white" fill-opacity="0.45"/>
</svg>
