<svg width="44" height="44" viewBox="0 0 44 44" fill="none" xmlns="http://www.w3.org/2000/svg">
<rect width="44" height="44" rx="22" fill="white" fill-opacity="0.08"/>
<path d="M21.9977 30.5358L21.3553 31.3021C21.7252 31.6123 22.2639 31.6138 22.6357 31.3058L21.9977 30.5358ZM21.0329 21.5148C20.9508 22.061 21.3271 22.5702 21.8733 22.6522C22.4194 22.7343 22.9287 22.358 23.0107 21.8119L21.0329 21.5148ZM19.6234 19.1777C19.6234 19.73 20.0711 20.1777 20.6234 20.1777C21.1757 20.1777 21.6234 19.73 21.6234 19.1777H19.6234ZM15.002 15L29.002 15L29.0019 13L15.002 13V15ZM29.002 15V27.0358H31.002V15H29.002ZM15.002 27.0358V15H13.002V27.0358H15.002ZM29.002 27.0358H25.3757V29.0358H29.002V27.0358ZM24.0997 27.4957L21.3597 29.7657L22.6357 31.3058L25.3757 29.0358L24.0997 27.4957ZM22.6401 29.7694L19.9364 27.503L18.6516 29.0358L21.3553 31.3021L22.6401 29.7694ZM18.6516 27.0358H15.002V29.0358H18.6516V27.0358ZM19.9364 27.503C19.5763 27.2012 19.1214 27.0358 18.6516 27.0358V29.0358L19.9364 27.503ZM13.002 27.0358C13.002 28.1403 13.8974 29.0358 15.002 29.0358V27.0358H13.002ZM29.002 27.0358V29.0358C30.1065 29.0357 31.002 28.1403 31.002 27.0358H29.002ZM29.002 15H31.002C31.002 13.8954 30.1065 13 29.0019 13L29.002 15ZM25.3757 27.0358C24.9098 27.0358 24.4585 27.1984 24.0997 27.4957L25.3757 29.0358V27.0358ZM15.002 13C13.8974 13 13.002 13.8955 13.002 15H15.002V13ZM23.0107 21.8119C23.0368 21.6377 23.092 21.5309 23.1499 21.4531C23.2138 21.3672 23.3054 21.2845 23.4434 21.1906L22.3192 19.5365C21.8111 19.8818 21.1912 20.4604 21.0329 21.5148L23.0107 21.8119ZM23.4434 21.1906C23.8797 20.894 24.6234 20.3056 24.6234 19.1777H22.6234C22.6234 19.2249 22.6166 19.2504 22.6124 19.2626C22.6081 19.2753 22.6011 19.2903 22.5859 19.3108C22.5488 19.3614 22.4763 19.4297 22.3192 19.5365L23.4434 21.1906ZM24.6234 19.1777C24.6234 17.7977 23.5134 16.6633 22.1234 16.6633V18.6633C22.3909 18.6633 22.6234 18.8843 22.6234 19.1777H24.6234ZM22.1234 16.6633C20.7334 16.6633 19.6234 17.7977 19.6234 19.1777H21.6234C21.6234 18.8843 21.8559 18.6633 22.1234 18.6633V16.6633Z" fill="white"/>
<path d="M22.0898 23.6299C22.5309 23.6749 22.875 24.0471 22.875 24.5C22.875 24.9832 22.4832 25.375 22 25.375C21.5168 25.375 21.125 24.9832 21.125 24.5C21.125 24.0168 21.5168 23.625 22 23.625L22.0898 23.6299Z" fill="white"/>
<path d="M22.5 24.5C22.5 24.2416 22.3036 24.0286 22.0518 24.0029L21.999 24C21.7234 24.0005 21.5 24.2242 21.5 24.5C21.5 24.7761 21.7239 25 22 25C22.2761 25 22.5 24.7761 22.5 24.5ZM23.25 24.5C23.25 25.1903 22.6903 25.75 22 25.75C21.3097 25.75 20.75 25.1903 20.75 24.5C20.75 23.8097 21.3097 23.25 22 23.25H22.0098L22.0205 23.251L22.1104 23.2559H22.1191L22.1279 23.2568C22.7582 23.3212 23.25 23.8526 23.25 24.5Z" fill="white"/>
</svg>
