<svg width="17" height="16" viewBox="0 0 17 16" fill="none" xmlns="http://www.w3.org/2000/svg">
<rect x="0.5" width="16" height="16" rx="8" fill="#D9D9D9"/>
<rect x="0.5" width="16" height="16" rx="8" fill="url(#paint0_radial_2014_2418)"/>
<rect x="0.5" width="16" height="16" rx="8" fill="#D9D9D9"/>
<rect x="0.5" width="16" height="16" rx="8" fill="url(#paint1_radial_2014_2418)"/>
<rect x="0.5" width="16" height="16" rx="8" fill="url(#paint2_radial_2014_2418)"/>
<path d="M8.5018 2.66599C7.05334 2.66599 6.87156 2.67232 6.30267 2.69821C5.73488 2.72421 5.34732 2.8141 5.00821 2.94599C4.65743 3.08221 4.35987 3.26443 4.06342 3.56099C3.76675 3.85743 3.58453 4.15499 3.44786 4.50565C3.31564 4.84487 3.22564 5.23254 3.20008 5.8001C3.17464 6.36899 3.16797 6.55087 3.16797 7.99932C3.16797 9.44776 3.17441 9.62899 3.20019 10.1979C3.2263 10.7657 3.31619 11.1532 3.44797 11.4923C3.58431 11.8431 3.76653 12.1407 4.06309 12.4371C4.35943 12.7338 4.65698 12.9164 5.00754 13.0527C5.34688 13.1845 5.73455 13.2744 6.30222 13.3004C6.87112 13.3263 7.05279 13.3327 8.50114 13.3327C9.94971 13.3327 10.1309 13.3263 10.6998 13.3004C11.2676 13.2744 11.6556 13.1845 11.995 13.0527C12.3456 12.9164 12.6427 12.7338 12.9391 12.4371C13.2357 12.1407 13.418 11.8431 13.5546 11.4924C13.6857 11.1532 13.7757 10.7655 13.8024 10.198C13.828 9.6291 13.8346 9.44776 13.8346 7.99932C13.8346 6.55087 13.828 6.3691 13.8024 5.80021C13.7757 5.23243 13.6857 4.84487 13.5546 4.50576C13.418 4.15498 13.2357 3.85743 12.9391 3.56099C12.6424 3.26432 12.3457 3.0821 11.9946 2.94599C11.6546 2.8141 11.2668 2.72421 10.699 2.69821C10.1302 2.67232 9.94904 2.66599 8.50014 2.66599H8.5018ZM8.02335 3.6271C8.16535 3.62687 8.3238 3.6271 8.5018 3.6271C9.92582 3.6271 10.0946 3.63221 10.6569 3.65776C11.1769 3.68154 11.4592 3.76843 11.6472 3.84143C11.8961 3.9381 12.0735 4.05365 12.2601 4.24032C12.4467 4.42699 12.5623 4.60476 12.6592 4.85365C12.7322 5.04143 12.8192 5.32365 12.8428 5.84365C12.8684 6.40587 12.874 6.57476 12.874 7.9981C12.874 9.42143 12.8684 9.59032 12.8428 10.1525C12.8191 10.6725 12.7322 10.9548 12.6592 11.1425C12.5625 11.3914 12.4467 11.5687 12.2601 11.7552C12.0734 11.9419 11.8962 12.0574 11.6472 12.1541C11.4594 12.2274 11.1769 12.3141 10.6569 12.3379C10.0947 12.3634 9.92582 12.369 8.5018 12.369C7.07768 12.369 6.9089 12.3634 6.34667 12.3379C5.82666 12.3139 5.54444 12.227 5.35632 12.154C5.10743 12.0573 4.92965 11.9418 4.74299 11.7551C4.55632 11.5684 4.44076 11.3911 4.34387 11.1421C4.27087 10.9543 4.18387 10.6721 4.1602 10.1521C4.13465 9.58987 4.12953 9.42098 4.12953 7.99676C4.12953 6.57254 4.13465 6.40454 4.1602 5.84232C4.18398 5.32232 4.27087 5.0401 4.34387 4.8521C4.44054 4.60321 4.55632 4.42543 4.74299 4.23876C4.92965 4.0521 5.10743 3.93654 5.35632 3.83965C5.54433 3.76632 5.82666 3.67965 6.34667 3.65576C6.83867 3.63354 7.02934 3.62687 8.02335 3.62576V3.6271ZM11.3487 4.51265C10.9954 4.51265 10.7087 4.79899 10.7087 5.15243C10.7087 5.50576 10.9954 5.79243 11.3487 5.79243C11.7021 5.79243 11.9887 5.50576 11.9887 5.15243C11.9887 4.7991 11.7021 4.51243 11.3487 4.51243V4.51265ZM8.5018 5.26043C6.98923 5.26043 5.76288 6.48676 5.76288 7.99932C5.76288 9.51187 6.98923 10.7377 8.5018 10.7377C10.0144 10.7377 11.2403 9.51187 11.2403 7.99932C11.2403 6.48676 10.0144 5.26043 8.5018 5.26043ZM8.5018 6.22154C9.48359 6.22154 10.2796 7.01743 10.2796 7.99932C10.2796 8.9811 9.48359 9.7771 8.5018 9.7771C7.5199 9.7771 6.72401 8.9811 6.72401 7.99932C6.72401 7.01743 7.5199 6.22154 8.5018 6.22154Z" fill="white"/>
<defs>
<radialGradient id="paint0_radial_2014_2418" cx="0" cy="0" r="1" gradientUnits="userSpaceOnUse" gradientTransform="translate(4.75002 17.2323) rotate(-90) scale(15.8572 14.7484)">
<stop stop-color="#FFDD55"/>
<stop offset="0.1" stop-color="#FFDD55"/>
<stop offset="0.5" stop-color="#FF543E"/>
<stop offset="1" stop-color="#C837AB"/>
</radialGradient>
<radialGradient id="paint1_radial_2014_2418" cx="0" cy="0" r="1" gradientUnits="userSpaceOnUse" gradientTransform="translate(4.75002 17.2323) rotate(-90) scale(15.8572 14.7484)">
<stop stop-color="#FFDD55"/>
<stop offset="0.1" stop-color="#FFDD55"/>
<stop offset="0.5" stop-color="#FF543E"/>
<stop offset="1" stop-color="#C837AB"/>
</radialGradient>
<radialGradient id="paint2_radial_2014_2418" cx="0" cy="0" r="1" gradientUnits="userSpaceOnUse" gradientTransform="translate(-2.18008 1.15261) rotate(78.6806) scale(7.08823 29.218)">
<stop stop-color="#3771C8"/>
<stop offset="0.128" stop-color="#3771C8"/>
<stop offset="1" stop-color="#6600FF" stop-opacity="0"/>
</radialGradient>
</defs>
</svg>
