<svg width="125" height="24" viewBox="0 0 125 24" fill="none" xmlns="http://www.w3.org/2000/svg">
<g clip-path="url(#clip0_22_1641)">
<path d="M65.1477 14.1203C64.757 13.6831 64.2362 13.3334 63.6286 13.0711C63.0643 12.8525 62.4133 12.634 61.7622 12.5028C61.1112 12.3717 60.547 12.2405 59.9827 12.1094C59.4619 11.9782 59.0279 11.8034 58.6806 11.5848C58.4202 11.4099 58.29 11.1476 58.29 10.7979C58.29 10.4919 58.29 9.57385 60.6338 9.57385C61.5018 9.57385 62.1095 9.61757 62.4567 9.92358C62.8039 10.2296 63.0209 10.5793 63.0643 10.9728L63.1077 11.2351H65.4515L65.4081 10.8853C65.3213 10.2733 65.1477 9.705 64.8004 9.18041C64.4532 8.65582 63.9324 8.21866 63.2813 7.86894C62.6303 7.56293 61.7622 7.38806 60.764 7.38806H58.5938V9.57385H56.2935C56.1199 9.9673 56.0331 10.4482 56.0331 10.9728C56.0331 11.7596 56.2501 12.3717 56.6407 12.8088C57.0313 13.246 57.5522 13.5957 58.1598 13.8143C58.724 14.0329 59.3751 14.2077 60.0261 14.3389C60.6772 14.47 61.2414 14.6012 61.8056 14.776C62.3265 14.9072 62.7605 15.082 63.1077 15.3443C63.3681 15.5629 63.4983 15.8252 63.4983 16.1749C63.4983 16.481 63.4115 16.6995 63.2813 16.8744C63.1077 17.093 62.8907 17.2241 62.6303 17.3116C62.3699 17.4427 62.0661 17.4864 61.7622 17.5301C61.4584 17.5739 61.198 17.5739 60.981 17.5739C60.3299 17.5739 59.7657 17.4864 59.3751 17.2678C58.9845 17.093 58.6806 16.8307 58.507 16.5247C58.3334 16.2187 58.2032 15.8689 58.1598 15.5629L58.1164 15.3006H55.7292L55.7727 15.6504C55.8161 16.3498 56.0331 17.0493 56.4671 17.6613C56.8577 18.2733 57.4654 18.7542 58.2032 19.1476C58.9411 19.4974 59.8959 19.7159 60.9376 19.7159C62.3699 19.7159 63.5852 19.4099 64.4532 18.7979C65.3647 18.1422 65.8421 17.2241 65.8421 16.0001C65.7553 15.2132 65.5383 14.6012 65.1477 14.1203Z" fill="white"/>
<path d="M98.9149 3.54102H96.4844V5.77052H98.9149V3.54102Z" fill="white"/>
<path d="M36.1111 3.93445H29.1233V19.541H31.4236V14.2077H36.1111C37.7604 14.2077 39.1059 13.7268 40.0608 12.8088C41.0157 11.8907 41.5365 10.623 41.5365 9.0492C41.5365 7.47543 41.0591 6.20767 40.0608 5.28964C39.1059 4.37161 37.8038 3.93445 36.1111 3.93445ZM31.4236 6.16396H36.0243C37.1094 6.16396 37.9341 6.42625 38.4549 6.95084C38.9757 7.47543 39.2361 8.17488 39.2361 9.09292C39.2361 10.011 38.9757 10.7104 38.4549 11.235C37.9341 11.7596 37.1094 12.0219 36.0243 12.0219H31.4236V6.16396Z" fill="white"/>
<path d="M51.6494 8.21866C50.7814 7.65036 49.6963 7.38806 48.5244 7.38806C47.3525 7.38806 46.2675 7.65036 45.3994 8.21866C44.5314 8.78697 43.8369 9.53014 43.3595 10.4482C42.8821 11.3662 42.665 12.4154 42.665 13.552C42.665 14.6886 42.8821 15.6941 43.3595 16.6558C43.8369 17.5739 44.5314 18.3607 45.3994 18.8853C46.2675 19.4536 47.3525 19.7159 48.5244 19.7159C49.7397 19.7159 50.7814 19.4536 51.6494 18.8853C52.5175 18.317 53.2119 17.5739 53.6893 16.6558C54.1668 15.7378 54.3838 14.6886 54.3838 13.552C54.3838 12.4154 54.1234 11.3662 53.6893 10.4482C53.2119 9.53014 52.5175 8.78697 51.6494 8.21866ZM48.5244 17.5301C47.7866 17.5301 47.1355 17.3553 46.5713 17.0055C46.0505 16.6558 45.6164 16.1749 45.356 15.5629C45.0956 14.9509 44.922 14.2952 44.922 13.552C44.922 12.8088 45.0522 12.1531 45.356 11.5411C45.6164 10.929 46.0505 10.4482 46.5713 10.0984C47.0921 9.74872 47.7432 9.57385 48.5244 9.57385C49.3057 9.57385 49.9567 9.74872 50.4775 10.0984C50.9984 10.4482 51.389 10.929 51.6928 11.5411C51.9532 12.1531 52.1268 12.8088 52.1268 13.552C52.1268 14.2514 51.9966 14.9509 51.6928 15.5629C51.4324 16.1749 50.9984 16.6558 50.4775 17.0055C49.9567 17.3553 49.3057 17.5301 48.5244 17.5301Z" fill="white"/>
<path d="M71.2674 3.54102H68.9671V7.38801H66.6667V9.5738H68.9671V19.541H71.2674V9.5738H73.5678V7.38801H71.2674V3.54102Z" fill="white"/>
<path d="M87.1093 14.6011C86.7621 15.4754 86.1979 16.1311 85.46 16.6557C84.7222 17.1803 83.7239 17.3989 82.5954 17.3989C81.467 17.3989 80.4687 17.1366 79.6874 16.6557C78.9062 16.1749 78.2986 15.4754 77.8645 14.6011C77.4739 13.7268 77.2569 12.765 77.2569 11.6721C77.2569 10.5792 77.4739 9.61747 77.8645 8.74316C78.2552 7.91256 78.8628 7.2131 79.6874 6.73223C80.4687 6.25135 81.467 5.98906 82.5954 5.98906C83.7673 5.98906 84.7222 6.25135 85.46 6.73223C86.1979 7.25682 86.7621 7.91256 87.1093 8.78687L87.1961 8.96174H89.6267L89.4965 8.52458C89.1493 7.56283 88.6718 6.73223 88.0208 5.98906C87.3697 5.24589 86.5451 4.67758 85.6336 4.28414C84.6788 3.84698 83.6371 3.67212 82.4652 3.67212C80.9461 3.67212 79.5572 4.02185 78.4722 4.76502C77.3437 5.46447 76.4756 6.46993 75.868 7.65026C75.2604 8.83059 74.9565 10.1858 74.9565 11.6721C74.9565 13.1147 75.2604 14.4699 75.868 15.694C76.4756 16.918 77.3437 17.8798 78.4722 18.5792C79.6006 19.2787 80.9461 19.6721 82.4652 19.6721C83.6371 19.6721 84.6788 19.4535 85.6336 19.0601C86.5885 18.6229 87.3697 18.0546 88.0208 17.3115C88.6718 16.5683 89.1927 15.7377 89.4965 14.7759L89.6267 14.3388H87.1961L87.1093 14.6011Z" fill="white"/>
<path d="M93.7935 3.54102H91.4932V19.541H93.7935V3.54102Z" fill="white"/>
<path d="M98.8282 7.60657H96.5278V19.541H98.8282V7.60657Z" fill="white"/>
<path d="M110.634 8.21866C109.766 7.65036 108.767 7.38806 107.595 7.38806C106.597 7.38806 105.773 7.56293 105.035 7.95637C104.601 8.17495 104.21 8.48096 103.863 8.83068V7.56292H101.562V24.0001H103.863V18.2296C104.21 18.5793 104.601 18.8416 105.035 19.1039C105.729 19.4974 106.597 19.7159 107.595 19.7159C108.724 19.7159 109.766 19.4536 110.634 18.8853C111.502 18.317 112.153 17.5739 112.63 16.6558C113.108 15.7378 113.325 14.6886 113.325 13.552C113.325 12.4154 113.064 11.3662 112.63 10.4482C112.196 9.53014 111.502 8.78697 110.634 8.21866ZM111.068 13.552C111.068 14.2514 110.937 14.9509 110.634 15.5629C110.33 16.1749 109.939 16.6558 109.375 17.0055C108.854 17.3553 108.16 17.5301 107.422 17.5301C106.684 17.5301 106.033 17.3553 105.469 17.0055C104.948 16.6558 104.514 16.1749 104.253 15.5629C103.993 14.9509 103.819 14.2952 103.819 13.552C103.819 12.8088 103.95 12.1531 104.253 11.5411C104.514 10.929 104.948 10.4482 105.469 10.0984C105.99 9.74872 106.641 9.57385 107.422 9.57385C108.203 9.57385 108.854 9.74872 109.375 10.0984C109.939 10.4482 110.33 10.929 110.634 11.5411C110.894 12.1531 111.068 12.8088 111.068 13.552Z" fill="white"/>
<path d="M124.392 14.1203C124.002 13.6831 123.481 13.3334 122.873 13.0711C122.309 12.8525 121.658 12.634 121.007 12.5028C120.356 12.3717 119.792 12.2405 119.227 12.1094C118.707 11.9782 118.272 11.8034 117.925 11.5848C117.665 11.4099 117.535 11.1476 117.535 10.7979C117.535 10.4919 117.535 9.57385 119.878 9.57385C120.746 9.57385 121.354 9.61757 121.701 9.92358C122.049 10.2296 122.266 10.5793 122.309 10.9728L122.352 11.2351H124.696L124.653 10.8853C124.566 10.2733 124.392 9.705 124.045 9.18041C123.698 8.65582 123.177 8.21866 122.526 7.86894C121.875 7.51921 121.007 7.38806 119.965 7.38806C118.446 7.38806 117.274 7.69407 116.493 8.30609C115.668 8.91812 115.278 9.83615 115.278 10.929C115.278 11.7159 115.495 12.328 115.885 12.7651C116.276 13.2023 116.797 13.552 117.404 13.7706C117.969 13.9892 118.62 14.164 119.271 14.2952C119.922 14.4263 120.486 14.5575 121.05 14.7323C121.571 14.8635 122.005 15.0383 122.352 15.3006C122.613 15.5192 122.743 15.7815 122.743 16.1312C122.743 16.4372 122.656 16.6558 122.526 16.8307C122.352 17.0493 122.135 17.1804 121.875 17.2678C121.614 17.399 121.311 17.4427 121.007 17.4864C120.703 17.5301 120.443 17.5301 120.226 17.5301C119.575 17.5301 119.01 17.4427 118.62 17.2241C118.229 17.0493 117.925 16.787 117.752 16.481C117.578 16.1749 117.448 15.8252 117.404 15.5192L117.361 15.2569H114.974L115.017 15.6066C115.061 16.3061 115.278 17.0055 115.712 17.6176C116.102 18.2296 116.71 18.7105 117.448 19.1039C118.186 19.4536 119.141 19.6722 120.182 19.6722H122.352V17.6176H124.74C125 17.1367 125.13 16.6121 125.13 15.9564C125 15.2132 124.783 14.6012 124.392 14.1203Z" fill="white"/>
<path d="M19.5312 0H7.76904V3.89071V11.7158H15.4947V7.82514H11.6319V3.89071H19.401V11.7158H23.2638V3.80328L19.5312 0Z" fill="#00E7FF"/>
<path d="M3.86285 15.6066H15.4948V19.4973H3.77604L0 15.7377V3.89075H7.7691V7.78146H3.86285V15.6066ZM11.5885 3.89075V7.78146H15.4948V15.6066H19.3576V3.89075H11.5885Z" fill="url(#paint0_linear_22_1641)"/>
</g>
<defs>
<linearGradient id="paint0_linear_22_1641" x1="19" y1="4.00012" x2="-2.66612e-07" y2="19.0001" gradientUnits="userSpaceOnUse">
<stop stop-color="#003EDD"/>
<stop offset="1" stop-color="#00E7FF"/>
</linearGradient>
<clipPath id="clip0_22_1641">
<rect width="125" height="24" fill="white"/>
</clipPath>
</defs>
</svg>
