<svg width="44" height="44" viewBox="0 0 44 44" fill="none" xmlns="http://www.w3.org/2000/svg">
<rect width="44" height="44" rx="22" fill="white" fill-opacity="0.08"/>
<path fill-rule="evenodd" clip-rule="evenodd" d="M21.9999 14C18.8142 14 16.1411 16.402 15.8017 19.5695L15.1128 26H28.887L28.1981 19.5696C28.1981 19.5696 28.1981 19.5696 28.1981 19.5696C27.8586 16.402 25.1855 14 21.9999 14ZM24.8292 28H19.1706C19.5825 29.1652 20.6937 30 21.9999 30C23.3061 30 24.4173 29.1652 24.8292 28ZM17.0999 28C17.5632 30.2822 19.5809 32 21.9999 32C24.4188 32 26.4366 30.2822 26.8999 28H28.887C30.0758 28 31.0023 26.9692 30.8756 25.787C30.8756 25.7869 30.8756 25.787 30.8756 25.787L30.1867 19.3565C29.7384 15.1727 26.2077 12 21.9999 12C17.7921 12 14.2614 15.1726 13.8131 19.3565L13.1242 25.787C12.9975 26.969 13.9239 28 15.1128 28H17.0999Z" fill="white"/>
</svg>
