<svg width="25" height="24" viewBox="0 0 25 24" fill="none" xmlns="http://www.w3.org/2000/svg">
<path fill-rule="evenodd" clip-rule="evenodd" d="M12.875 22C18.3978 22 22.875 17.5228 22.875 12C22.875 6.47715 18.3978 2 12.875 2C7.35215 2 2.875 6.47715 2.875 12C2.875 17.5228 7.35215 22 12.875 22ZM15.875 10C15.875 11.6569 14.5319 13 12.875 13C11.2181 13 9.875 11.6569 9.875 10C9.875 8.34315 11.2181 7 12.875 7C14.5319 7 15.875 8.34315 15.875 10ZM12.8752 20C10.6368 20 8.61314 19.0807 7.16113 17.5991C8.49287 16.005 10.4799 15 12.8752 15C15.2705 15 17.2575 16.005 18.5893 17.5991C17.1373 19.0807 15.1136 20 12.8752 20Z" fill="white" fill-opacity="0.45"/>
</svg>
