<svg width="16" height="16" viewBox="0 0 16 16" fill="none" xmlns="http://www.w3.org/2000/svg">
<path d="M8.54805 1.62057C8.42353 1.4407 8.21868 1.33337 7.99992 1.33337C7.78116 1.33337 7.57631 1.4407 7.45179 1.62057L4.45179 5.9539C4.31065 6.15777 4.29432 6.42314 4.4094 6.64278C4.52448 6.86242 4.75196 7.00004 4.99992 7.00004H10.9999C11.2479 7.00004 11.4754 6.86242 11.5904 6.64278C11.7055 6.42314 11.6892 6.15777 11.548 5.9539L8.54805 1.62057Z" fill="white" fill-opacity="0.45"/>
<path d="M4.99992 9.00004C4.75196 9.00004 4.52448 9.13766 4.4094 9.3573C4.29432 9.57694 4.31065 9.84231 4.45179 10.0462L7.45179 14.3795C7.57631 14.5594 7.78116 14.6667 7.99992 14.6667C8.21868 14.6667 8.42353 14.5594 8.54805 14.3795L11.548 10.0462C11.6892 9.84231 11.7055 9.57694 11.5904 9.3573C11.4754 9.13766 11.2479 9.00004 10.9999 9.00004H4.99992Z" fill="white" fill-opacity="0.45"/>
</svg>
