<svg width="17" height="16" viewBox="0 0 17 16" fill="none" xmlns="http://www.w3.org/2000/svg">
<rect x="0.5" width="16" height="16" rx="8" fill="#161616"/>
<path d="M10.8757 6.47075C11.5831 6.9782 12.4497 7.27678 13.3856 7.27678V5.46936C13.2085 5.46939 13.0318 5.45086 12.8585 5.41401V6.83671C11.9227 6.83671 11.0562 6.53814 10.3486 6.03072V9.71915C10.3486 11.5643 8.85818 13.06 7.01971 13.06C6.33374 13.06 5.69615 12.8518 5.1665 12.4949C5.77101 13.1152 6.61403 13.5 7.54669 13.5C9.38527 13.5 10.8758 12.0043 10.8758 10.1591V6.47075H10.8757ZM11.526 4.64728C11.1645 4.25093 10.9271 3.73872 10.8757 3.17245V2.93997H10.3762C10.502 3.6597 10.9308 4.2746 11.526 4.64728ZM6.32934 11.079C6.12736 10.8132 6.01821 10.4881 6.0187 10.1538C6.0187 9.30992 6.70043 8.62568 7.5415 8.62568C7.69825 8.62564 7.85405 8.64972 8.00343 8.69729V6.84947C7.82886 6.82546 7.65268 6.81527 7.47657 6.81901V8.25726C7.32708 8.20969 7.1712 8.18553 7.01441 8.18568C6.17334 8.18568 5.49165 8.86985 5.49165 9.71386C5.49165 10.3106 5.8324 10.8273 6.32934 11.079Z" fill="#FF004F"/>
<path d="M10.3487 6.03071C11.0563 6.53813 11.9227 6.83671 12.8586 6.83671V5.41401C12.3362 5.30234 11.8737 5.02837 11.526 4.64731C10.9308 4.27459 10.502 3.6597 10.3763 2.94H9.06428V10.1591C9.06131 11.0007 8.38074 11.6821 7.54148 11.6821C7.04692 11.6821 6.60754 11.4455 6.32928 11.079C5.83239 10.8273 5.49163 10.3106 5.49163 9.71393C5.49163 8.87 6.17332 8.18575 7.01439 8.18575C7.17554 8.18575 7.33086 8.21093 7.47655 8.25733V6.81908C5.67038 6.85652 4.21777 8.33759 4.21777 10.1591C4.21777 11.0684 4.5795 11.8927 5.1666 12.495C5.69624 12.8519 6.33383 13.06 7.01981 13.06C8.85832 13.06 10.3487 11.5643 10.3487 9.71918V6.03071H10.3487Z" fill="white"/>
<path d="M12.8585 5.414V5.02931C12.3874 5.03003 11.9256 4.89763 11.526 4.64726C11.8798 5.03599 12.3456 5.30403 12.8585 5.414ZM10.3763 2.93999C10.3643 2.87121 10.355 2.80197 10.3487 2.73247V2.5H8.5371V9.71913C8.53421 10.5606 7.85368 11.2421 7.01434 11.2421C6.76793 11.2421 6.53527 11.1834 6.32923 11.0791C6.60749 11.4455 7.04687 11.6821 7.54143 11.6821C8.38062 11.6821 9.0613 11.0007 9.06423 10.1591V2.93999H10.3763ZM7.47657 6.81907V6.40954C7.3252 6.38877 7.17259 6.37836 7.0198 6.37843C5.18114 6.37839 3.69067 7.87414 3.69067 9.71913C3.69067 10.8758 4.27645 11.8952 5.16659 12.4949C4.57949 11.8926 4.21776 11.0683 4.21776 10.159C4.21776 8.33758 5.67033 6.85651 7.47657 6.81907Z" fill="#00F2EA"/>
</svg>
