<svg width="17" height="16" viewBox="0 0 17 16" fill="none" xmlns="http://www.w3.org/2000/svg">
<rect x="0.5" width="16" height="16" rx="8" fill="#161616"/>
<rect x="0.5" width="16" height="16" rx="8" fill="#FF0302"/>
<path d="M14.523 5.24904C14.4519 5.00747 14.3118 4.787 14.1168 4.60969C13.9217 4.43238 13.6785 4.30445 13.4115 4.23871C12.4287 4 8.50009 4 8.50009 4C8.50009 4 4.5715 4 3.58864 4.23871C3.32166 4.30445 3.07846 4.43238 2.88341 4.60969C2.68836 4.787 2.54829 5.00747 2.47721 5.24904C2.21436 6.14065 2.21436 8.00001 2.21436 8.00001C2.21436 8.00001 2.21436 9.85937 2.47721 10.751C2.54829 10.9926 2.68836 11.213 2.88341 11.3903C3.07846 11.5676 3.32166 11.6956 3.58864 11.7613C4.5715 12 8.50009 12 8.50009 12C8.50009 12 12.4287 12 13.4115 11.7613C13.6785 11.6956 13.9217 11.5676 14.1168 11.3903C14.3118 11.213 14.4519 10.9926 14.523 10.751C14.7858 9.85937 14.7858 8.00001 14.7858 8.00001C14.7858 8.00001 14.7858 6.14065 14.523 5.24904Z" fill="#FF0302"/>
<path d="M14.523 5.24904C14.4519 5.00747 14.3118 4.787 14.1168 4.60969C13.9217 4.43238 13.6785 4.30445 13.4115 4.23871C12.4287 4 8.50009 4 8.50009 4C8.50009 4 4.5715 4 3.58864 4.23871C3.32166 4.30445 3.07846 4.43238 2.88341 4.60969C2.68836 4.787 2.54829 5.00747 2.47721 5.24904C2.21436 6.14065 2.21436 8.00001 2.21436 8.00001C2.21436 8.00001 2.21436 9.85937 2.47721 10.751C2.54829 10.9926 2.68836 11.213 2.88341 11.3903C3.07846 11.5676 3.32166 11.6956 3.58864 11.7613C4.5715 12 8.50009 12 8.50009 12C8.50009 12 12.4287 12 13.4115 11.7613C13.6785 11.6956 13.9217 11.5676 14.1168 11.3903C14.3118 11.213 14.4519 10.9926 14.523 10.751C14.7858 9.85937 14.7858 8.00001 14.7858 8.00001C14.7858 8.00001 14.7858 6.14065 14.523 5.24904Z" fill="#FEFEFE"/>
<path d="M7.07153 10V6L10.5001 8.00001L7.07153 10Z" fill="#FEFEFE"/>
<path d="M7.07153 10V6L10.5001 8.00001L7.07153 10Z" fill="#FF0302"/>
</svg>
