<svg width="24" height="24" viewBox="0 0 24 24" fill="none" xmlns="http://www.w3.org/2000/svg">
<path d="M10.6699 3C10.1176 3 9.66992 3.44772 9.66992 4V20.001C9.66992 20.5533 10.1176 21.001 10.6699 21.001H13.3399C13.8922 21.001 14.3399 20.5533 14.3399 20.001V4C14.3399 3.44772 13.8922 3 13.3399 3H10.6699Z" fill="white"/>
<path d="M4 13C3.44772 13 3 13.4477 3 14V20.001C3 20.5533 3.44772 21.001 4 21.001H6.67C7.22228 21.001 7.67 20.5533 7.67 20.001V14C7.67 13.4477 7.22228 13 6.67 13H4Z" fill="white"/>
<path d="M16.3398 9C16.3398 8.44772 16.7876 8 17.3398 8H20.0098C20.5621 8 21.0098 8.44772 21.0098 9V20.001C21.0098 20.5533 20.5621 21.001 20.0098 21.001H17.3398C16.7876 21.001 16.3398 20.5533 16.3398 20.001V9Z" fill="white"/>
</svg>
