<svg width="24" height="24" viewBox="0 0 24 24" fill="none" xmlns="http://www.w3.org/2000/svg">
<path fill-rule="evenodd" clip-rule="evenodd" d="M12.0001 4C8.81447 4 6.14138 6.40198 5.80199 9.56954L5.11301 16H18.8872L18.1983 9.56956C18.1983 9.56955 18.1983 9.56957 18.1983 9.56956C17.8589 6.402 15.1858 4 12.0001 4ZM14.8294 18H9.17085C9.5827 19.1652 10.6939 20 12.0001 20C13.3063 20 14.4176 19.1652 14.8294 18ZM7.10016 18C7.56344 20.2822 9.58118 22 12.0001 22C14.4191 22 16.4368 20.2822 16.9001 18H18.8872C20.0761 18 21.0026 16.9692 20.8759 15.787C20.8758 15.7869 20.8759 15.787 20.8759 15.787L20.187 9.35649C19.7386 5.17269 16.2079 2 12.0001 2C7.79238 2 4.26165 5.17264 3.81337 9.35648L3.12439 15.787C2.99775 16.969 3.92413 18 5.11301 18H7.10016Z" fill="white"/>
</svg>
