<svg width="24" height="24" viewBox="0 0 24 24" fill="none" xmlns="http://www.w3.org/2000/svg">
<path fill-rule="evenodd" clip-rule="evenodd" d="M4 4C4 3.44772 4.44772 3 5 3H19C19.5523 3 20 3.44772 20 4C20 4.55228 19.5523 5 19 5H5C4.44772 5 4 4.55228 4 4ZM2 7C2 6.44772 2.44772 6 3 6H21C21.5523 6 22 6.44772 22 7V20C22 20.5523 21.5523 21 21 21H3C2.44772 21 2 20.5523 2 20V7ZM10.5668 10.5987C10.9133 10.4322 11.3245 10.479 11.6247 10.7191L14.1247 12.7191C14.3619 12.9089 14.5 13.1962 14.5 13.5C14.5 13.8038 14.3619 14.0911 14.1247 14.2809L11.6247 16.2809C11.3245 16.521 10.9133 16.5678 10.5668 16.4013C10.2203 16.2348 10 15.8844 10 15.5V11.5C10 11.1156 10.2203 10.7652 10.5668 10.5987Z" fill="white"/>
</svg>
