<svg width="24" height="24" viewBox="0 0 24 24" fill="none" xmlns="http://www.w3.org/2000/svg">
<path d="M11.9977 20.5358L11.3553 21.3021C11.7252 21.6123 12.2639 21.6138 12.6357 21.3058L11.9977 20.5358ZM11.0329 11.5148C10.9508 12.061 11.3271 12.5702 11.8733 12.6522C12.4194 12.7343 12.9287 12.358 13.0107 11.8119L11.0329 11.5148ZM9.6234 9.17768C9.6234 9.72997 10.0711 10.1777 10.6234 10.1777C11.1757 10.1777 11.6234 9.72997 11.6234 9.17768H9.6234ZM5.00195 5.00002L19.002 5L19.0019 3L5.00195 3.00002V5.00002ZM19.002 5V17.0358H21.002V5H19.002ZM5.00195 17.0358V5.00002H3.00195V17.0358H5.00195ZM19.002 17.0358H15.3757V19.0358H19.002V17.0358ZM14.0997 17.4957L11.3597 19.7657L12.6357 21.3058L15.3757 19.0358L14.0997 17.4957ZM12.6401 19.7694L9.93638 17.503L8.65157 19.0358L11.3553 21.3021L12.6401 19.7694ZM8.65157 17.0358H5.00195V19.0358H8.65157V17.0358ZM9.93638 17.503C9.57629 17.2012 9.12143 17.0358 8.65157 17.0358V19.0358L9.93638 17.503ZM3.00195 17.0358C3.00195 18.1403 3.89738 19.0358 5.00195 19.0358V17.0358H3.00195ZM19.002 17.0358V19.0358C20.1065 19.0357 21.002 18.1403 21.002 17.0358H19.002ZM19.002 5H21.002C21.002 3.89543 20.1065 3 19.0019 3L19.002 5ZM15.3757 17.0358C14.9098 17.0358 14.4585 17.1984 14.0997 17.4957L15.3757 19.0358V17.0358ZM5.00195 3.00002C3.89738 3.00003 3.00195 3.89546 3.00195 5.00002H5.00195V3.00002ZM13.0107 11.8119C13.0368 11.6377 13.092 11.5309 13.1499 11.4531C13.2138 11.3672 13.3054 11.2845 13.4434 11.1906L12.3192 9.53651C11.8111 9.88184 11.1912 10.4604 11.0329 11.5148L13.0107 11.8119ZM13.4434 11.1906C13.8797 10.894 14.6234 10.3056 14.6234 9.17768H12.6234C12.6234 9.22488 12.6166 9.25036 12.6124 9.26261C12.6081 9.2753 12.6011 9.29027 12.5859 9.31084C12.5488 9.36136 12.4763 9.4297 12.3192 9.53651L13.4434 11.1906ZM14.6234 9.17768C14.6234 7.79769 13.5134 6.66333 12.1234 6.66333V8.66333C12.3909 8.66333 12.6234 8.88426 12.6234 9.17768H14.6234ZM12.1234 6.66333C10.7334 6.66333 9.6234 7.79769 9.6234 9.17768H11.6234C11.6234 8.88426 11.8559 8.66333 12.1234 8.66333V6.66333Z" fill="white"/>
<path d="M12.0898 13.6299C12.5309 13.6749 12.875 14.0471 12.875 14.5C12.875 14.9832 12.4832 15.375 12 15.375C11.5168 15.375 11.125 14.9832 11.125 14.5C11.125 14.0168 11.5168 13.625 12 13.625L12.0898 13.6299Z" fill="white"/>
<path d="M12.5 14.5C12.5 14.2416 12.3036 14.0286 12.0518 14.0029L11.999 14C11.7234 14.0005 11.5 14.2242 11.5 14.5C11.5 14.7761 11.7239 15 12 15C12.2761 15 12.5 14.7761 12.5 14.5ZM13.25 14.5C13.25 15.1903 12.6903 15.75 12 15.75C11.3097 15.75 10.75 15.1903 10.75 14.5C10.75 13.8097 11.3097 13.25 12 13.25H12.0098L12.0205 13.251L12.1104 13.2559H12.1191L12.1279 13.2568C12.7582 13.3212 13.25 13.8526 13.25 14.5Z" fill="white"/>
</svg>
