<svg width="30" height="34" viewBox="0 0 30 34" fill="none" xmlns="http://www.w3.org/2000/svg">
<path fill-rule="evenodd" clip-rule="evenodd" d="M13.9163 0.612678C14.6187 0.371295 15.3813 0.371295 16.0837 0.612678L27.7503 4.6231C29.0963 5.0858 30 6.35208 30 7.77539V16.8564C30 21.5344 28.0852 24.9056 25.3125 27.5306C22.6918 30.0116 19.2587 31.8629 16.0532 33.5914L15.7913 33.7326C15.2975 33.9991 14.7025 33.9991 14.2087 33.7326L13.9468 33.5914C10.7414 31.8629 7.30822 30.0116 4.6875 27.5306C1.91485 24.9056 0 21.5344 0 16.8564V7.77539C0 6.35208 0.903734 5.0858 2.24973 4.6231L13.9163 0.612678ZM20.3452 14.4308C20.996 13.7799 20.996 12.7246 20.3452 12.0738C19.6943 11.4229 18.639 11.4229 17.9882 12.0738L13.3333 16.7286L12.0118 15.4071C11.361 14.7563 10.3057 14.7563 9.65482 15.4071C9.00395 16.0579 9.00395 17.1133 9.65482 17.7641L12.1548 20.2641C12.4673 20.5766 12.8913 20.7523 13.3333 20.7523C13.7753 20.7523 14.1993 20.5766 14.5118 20.2641L20.3452 14.4308Z" fill="#00E7FF"/>
</svg>
