<svg width="146" height="28" viewBox="0 0 146 28" fill="none" xmlns="http://www.w3.org/2000/svg">
<path d="M76.0116 16.4734C75.5559 15.9634 74.9482 15.5554 74.2392 15.2494C73.5808 14.9944 72.8212 14.7394 72.0616 14.5864C71.302 14.4333 70.6436 14.2803 69.9853 14.1273C69.3776 13.9743 68.8712 13.7703 68.4661 13.5153C68.1622 13.3113 68.0103 13.0053 68.0103 12.5973C68.0103 12.2403 68.0103 11.1692 70.7449 11.1692C71.7578 11.1692 72.4667 11.2202 72.8719 11.5772C73.277 11.9343 73.5302 12.3423 73.5808 12.8013L73.6315 13.1073H76.3661L76.3155 12.6993C76.2142 11.9853 76.0116 11.3222 75.6065 10.7102C75.2014 10.0982 74.5937 9.58818 73.8341 9.18016C73.0744 8.82315 72.0616 8.61914 70.8969 8.61914H68.3648V11.1692H65.6808C65.4782 11.6282 65.377 12.1893 65.377 12.8013C65.377 13.7193 65.6302 14.4333 66.0859 14.9434C66.5417 15.4534 67.1494 15.8614 67.8584 16.1164C68.5167 16.3714 69.2763 16.5754 70.036 16.7284C70.7956 16.8814 71.4539 17.0344 72.1122 17.2384C72.7199 17.3915 73.2264 17.5955 73.6315 17.9015C73.9353 18.1565 74.0873 18.4625 74.0873 18.8705C74.0873 19.2275 73.986 19.4825 73.8341 19.6865C73.6315 19.9415 73.3783 20.0946 73.0744 20.1966C72.7706 20.3496 72.4161 20.4006 72.0616 20.4516C71.7071 20.5026 71.4033 20.5026 71.1501 20.5026C70.3904 20.5026 69.7321 20.4006 69.2763 20.1456C68.8206 19.9415 68.4661 19.6355 68.2635 19.2785C68.0609 18.9215 67.909 18.5135 67.8584 18.1565L67.8077 17.8505H65.0225L65.0731 18.2585C65.1237 19.0745 65.377 19.8905 65.8834 20.6046C66.3391 21.3186 67.0481 21.8796 67.909 22.3386C68.7699 22.7466 69.884 23.0017 71.0994 23.0017C72.7706 23.0017 74.1885 22.6446 75.2014 21.9306C76.2648 21.1656 76.8219 20.0946 76.8219 18.6665C76.7206 17.7485 76.4674 17.0344 76.0116 16.4734Z" fill="white"/>
<path d="M115.411 4.13086H112.576V6.73195H115.411V4.13086Z" fill="white"/>
<path d="M42.1332 4.58984H33.98V22.7975H36.664V16.5753H42.1332C44.0576 16.5753 45.6275 16.0143 46.7416 14.9432C47.8557 13.8722 48.4634 12.3931 48.4634 10.5571C48.4634 8.72099 47.9063 7.24194 46.7416 6.1709C45.6275 5.09986 44.1082 4.58984 42.1332 4.58984ZM36.664 7.19094H42.032C43.298 7.19094 44.2602 7.49695 44.8679 8.10897C45.4756 8.72099 45.7794 9.53702 45.7794 10.6081C45.7794 11.6791 45.4756 12.4951 44.8679 13.1071C44.2602 13.7192 43.298 14.0252 42.032 14.0252H36.664V7.19094Z" fill="white"/>
<path d="M60.262 9.58818C59.2492 8.92515 57.9832 8.61914 56.6159 8.61914C55.2486 8.61914 53.9825 8.92515 52.9697 9.58818C51.9569 10.2512 51.1466 11.1182 50.5896 12.1893C50.0325 13.2603 49.7793 14.4844 49.7793 15.8104C49.7793 17.1364 50.0325 18.3095 50.5896 19.4315C51.1466 20.5026 51.9569 21.4206 52.9697 22.0326C53.9825 22.6956 55.2486 23.0017 56.6159 23.0017C58.0338 23.0017 59.2492 22.6956 60.262 22.0326C61.2749 21.3696 62.0851 20.5026 62.6422 19.4315C63.1992 18.3605 63.4525 17.1364 63.4525 15.8104C63.4525 14.4844 63.1486 13.2603 62.6422 12.1893C62.0851 11.1182 61.2749 10.2512 60.262 9.58818ZM56.6159 20.4516C55.755 20.4516 54.9954 20.2476 54.337 19.8395C53.7293 19.4315 53.2229 18.8705 52.9191 18.1565C52.6152 17.4425 52.4126 16.6774 52.4126 15.8104C52.4126 14.9434 52.5646 14.1783 52.9191 13.4643C53.2229 12.7503 53.7293 12.1893 54.337 11.7813C54.9447 11.3732 55.7043 11.1692 56.6159 11.1692C57.5274 11.1692 58.287 11.3732 58.8947 11.7813C59.5024 12.1893 59.9582 12.7503 60.3127 13.4643C60.6165 14.1783 60.8191 14.9434 60.8191 15.8104C60.8191 16.6264 60.6672 17.4425 60.3127 18.1565C60.0088 18.8705 59.5024 19.4315 58.8947 19.8395C58.287 20.2476 57.5274 20.4516 56.6159 20.4516Z" fill="white"/>
<path d="M83.1517 4.13086H80.4679V8.61902H77.7842V11.1691H80.4679V22.7975H83.1517V11.1691H85.8354V8.61902H83.1517V4.13086Z" fill="white"/>
<path d="M101.638 17.0337C101.232 18.0537 100.574 18.8187 99.7132 19.4307C98.8523 20.0428 97.6876 20.2978 96.3709 20.2978C95.0542 20.2978 93.8895 19.9918 92.9779 19.4307C92.0664 18.8697 91.3574 18.0537 90.851 17.0337C90.3952 16.0136 90.142 14.8916 90.142 13.6165C90.142 12.3415 90.3952 11.2195 90.851 10.1994C91.3067 9.23038 92.0157 8.41435 92.9779 7.85333C93.8895 7.29231 95.0542 6.9863 96.3709 6.9863C97.7382 6.9863 98.8523 7.29231 99.7132 7.85333C100.574 8.46535 101.232 9.23038 101.638 10.2504L101.739 10.4544H104.575L104.423 9.94441C104.018 8.82237 103.461 7.85333 102.701 6.9863C101.941 6.11927 100.979 5.45625 99.9158 4.99723C98.8017 4.48721 97.5863 4.2832 96.219 4.2832C94.4465 4.2832 92.826 4.69122 91.56 5.55825C90.2433 6.37428 89.2305 7.54732 88.5215 8.92437C87.8125 10.3014 87.458 11.8825 87.458 13.6165C87.458 15.2996 87.8125 16.8807 88.5215 18.3087C89.2305 19.7368 90.2433 20.8588 91.56 21.6748C92.8766 22.4909 94.4465 22.9499 96.219 22.9499C97.5863 22.9499 98.8017 22.6949 99.9158 22.2358C101.03 21.7258 101.941 21.0628 102.701 20.1958C103.461 19.3287 104.068 18.3597 104.423 17.2377L104.575 16.7276H101.739L101.638 17.0337Z" fill="white"/>
<path d="M109.435 4.13086H106.751V22.7975H109.435V4.13086Z" fill="white"/>
<path d="M115.309 8.875H112.625V22.7985H115.309V8.875Z" fill="white"/>
<path d="M129.085 9.58817C128.072 8.92515 126.907 8.61914 125.54 8.61914C124.375 8.61914 123.413 8.82315 122.552 9.28216C122.045 9.53717 121.59 9.89419 121.184 10.3022V8.82315H118.5V27.9998H121.184V21.2676C121.59 21.6756 122.045 21.9816 122.552 22.2876C123.362 22.7466 124.375 23.0017 125.54 23.0017C126.856 23.0017 128.072 22.6956 129.085 22.0326C130.097 21.3696 130.857 20.5026 131.414 19.4315C131.971 18.3605 132.224 17.1364 132.224 15.8104C132.224 14.4843 131.92 13.2603 131.414 12.1893C130.908 11.1182 130.097 10.2512 129.085 9.58817ZM129.591 15.8104C129.591 16.6264 129.439 17.4425 129.085 18.1565C128.73 18.8705 128.274 19.4315 127.616 19.8395C127.008 20.2476 126.198 20.4516 125.337 20.4516C124.476 20.4516 123.717 20.2476 123.058 19.8395C122.451 19.4315 121.944 18.8705 121.64 18.1565C121.336 17.4425 121.134 16.6774 121.134 15.8104C121.134 14.9434 121.286 14.1783 121.64 13.4643C121.944 12.7503 122.451 12.1893 123.058 11.7813C123.666 11.3732 124.426 11.1692 125.337 11.1692C126.249 11.1692 127.008 11.3732 127.616 11.7813C128.274 12.1893 128.73 12.7503 129.085 13.4643C129.388 14.1783 129.591 14.9434 129.591 15.8104Z" fill="white"/>
<path d="M145.139 16.4734C144.683 15.9634 144.075 15.5554 143.366 15.2494C142.708 14.9944 141.948 14.7394 141.189 14.5864C140.429 14.4333 139.771 14.2803 139.112 14.1273C138.505 13.9743 137.998 13.7703 137.593 13.5153C137.289 13.3113 137.137 13.0053 137.137 12.5973C137.137 12.2403 137.137 11.1692 139.872 11.1692C140.885 11.1692 141.594 11.2202 141.999 11.5772C142.404 11.9343 142.657 12.3423 142.708 12.8013L142.758 13.1073H145.493L145.442 12.6993C145.341 11.9853 145.139 11.3222 144.733 10.7102C144.328 10.0982 143.721 9.58818 142.961 9.18016C142.201 8.77215 141.189 8.61914 139.973 8.61914C138.201 8.61914 136.833 8.97615 135.922 9.69018C134.96 10.4042 134.504 11.4752 134.504 12.7503C134.504 13.6683 134.757 14.3823 135.213 14.8924C135.669 15.4024 136.276 15.8104 136.985 16.0654C137.644 16.3204 138.403 16.5244 139.163 16.6774C139.923 16.8304 140.581 16.9834 141.239 17.1874C141.847 17.3405 142.353 17.5445 142.758 17.8505C143.062 18.1055 143.214 18.4115 143.214 18.8195C143.214 19.1765 143.113 19.4315 142.961 19.6355C142.758 19.8905 142.505 20.0435 142.201 20.1456C141.898 20.2986 141.543 20.3496 141.189 20.4006C140.834 20.4516 140.53 20.4516 140.277 20.4516C139.517 20.4516 138.859 20.3496 138.403 20.0946C137.948 19.8905 137.593 19.5845 137.39 19.2275C137.188 18.8705 137.036 18.4625 136.985 18.1055L136.935 17.7995H134.149L134.2 18.2075C134.251 19.0235 134.504 19.8395 135.01 20.5536C135.466 21.2676 136.175 21.8286 137.036 22.2876C137.897 22.6956 139.011 22.9507 140.226 22.9507H142.758V20.5536H145.544C145.848 19.9925 145.999 19.3805 145.999 18.6155C145.848 17.7485 145.594 17.0344 145.139 16.4734Z" fill="white"/>
<path d="M22.7892 0H9.06543V4.53916V13.6685H18.0796V9.12933H13.5725V4.53916H22.6373V13.6685H27.1444V4.43716L22.7892 0Z" fill="#00E7FF"/>
<path d="M4.50708 18.2076H18.079V22.7467H4.40579L0 18.3606V4.53906H9.0648V9.07822H4.50708V18.2076ZM13.5212 4.53906V9.07822H18.079V18.2076H22.586V4.53906H13.5212Z" fill="url(#paint0_linear_2972_46315)"/>
<defs>
<linearGradient id="paint0_linear_2972_46315" x1="22.1687" y1="4.66667" x2="0.00159329" y2="22.1687" gradientUnits="userSpaceOnUse">
<stop stop-color="#003EDD"/>
<stop offset="1" stop-color="#00E7FF"/>
</linearGradient>
</defs>
</svg>
