<svg width="20" height="18" viewBox="0 0 20 18" fill="none" xmlns="http://www.w3.org/2000/svg">
<path fill-rule="evenodd" clip-rule="evenodd" d="M2 1C2 0.44772 2.44772 0 3 0H17C17.5523 0 18 0.44772 18 1C18 1.55228 17.5523 2 17 2H3C2.44772 2 2 1.55228 2 1ZM0 4C0 3.44772 0.44772 3 1 3H19C19.5523 3 20 3.44772 20 4V17C20 17.5523 19.5523 18 19 18H1C0.44772 18 0 17.5523 0 17V4ZM8.5668 7.5987C8.9133 7.4322 9.3245 7.479 9.6247 7.7191L12.1247 9.7191C12.3619 9.9089 12.5 10.1962 12.5 10.5C12.5 10.8038 12.3619 11.0911 12.1247 11.2809L9.6247 13.2809C9.3245 13.521 8.9133 13.5678 8.5668 13.4013C8.2203 13.2348 8 12.8844 8 12.5V8.5C8 8.1156 8.2203 7.7652 8.5668 7.5987Z" fill="white" fill-opacity="0.45"/>
</svg>
