<svg width="32" height="32" viewBox="0 0 32 32" fill="none" xmlns="http://www.w3.org/2000/svg">
<path d="M30.6663 15.9989C30.6663 7.89876 24.0999 1.33228 15.9997 1.33228C7.89949 1.33228 1.33301 7.89876 1.33301 15.9989C1.33301 23.3194 6.69637 29.3871 13.708 30.4874V20.2385H9.98405V15.9989H13.708V12.7677C13.708 9.09186 15.8977 7.06144 19.2478 7.06144C20.852 7.06144 22.5309 7.3479 22.5309 7.3479V10.9573H20.6815C18.8597 10.9573 18.2913 12.0879 18.2913 13.2489V15.9989H22.359L21.7088 20.2385H18.2913V30.4874C25.303 29.3871 30.6663 23.3194 30.6663 15.9989Z" fill="#1877F2"/>
<path d="M21.7091 20.2386L22.3594 15.999H18.2917V13.249C18.2917 12.0892 18.86 10.9574 20.6819 10.9574H22.5312V7.34798C22.5312 7.34798 20.8529 7.06152 19.2482 7.06152C15.898 7.06152 13.7083 9.09194 13.7083 12.7678V15.999H9.98438V20.2386H13.7083V30.4875C15.2269 30.7251 16.7731 30.7251 18.2917 30.4875V20.2386H21.7091Z" fill="white"/>
</svg>
