<svg width="1400" height="256" viewBox="0 0 1400 256" fill="none" xmlns="http://www.w3.org/2000/svg">
<g style="mix-blend-mode:hard-light" opacity="0.1">
<g opacity="0.7">
<path d="M2.02673 0H-13.6465V5.1874V15.6205H-3.3519V10.4331H-8.49919V5.1874H1.85323V15.6205H7.00052V5.07083L2.02673 0Z" fill="#00E7FF"/>
<path d="M-18.8527 20.808H-3.35299V25.9954H-18.9684L-24 20.9829V5.1875H-13.6476V10.3749H-18.8527V20.808ZM-8.55812 5.1875V10.3749H-3.35299V20.808H1.79429V5.1875H-8.55812Z" fill="url(#paint0_linear_357_2787)"/>
<path d="M53.0277 0H37.3545V5.1874V15.6205H47.6491V10.4331H42.5018V5.1874H52.8542V15.6205H58.0015V5.07083L53.0277 0Z" fill="#00E7FF"/>
<path d="M32.1483 20.808H47.648V25.9954H32.0326L27.001 20.9829V5.1875H37.3534V10.3749H32.1483V20.808ZM42.4429 5.1875V10.3749H47.648V20.808H52.7953V5.1875H42.4429Z" fill="url(#paint1_linear_357_2787)"/>
<path d="M104.028 0H88.3545V5.1874V15.6205H98.6491V10.4331H93.5018V5.1874H103.854V15.6205H109.001V5.07083L104.028 0Z" fill="#00E7FF"/>
<path d="M83.1483 20.808H98.648V25.9954H83.0326L78.001 20.9829V5.1875H88.3534V10.3749H83.1483V20.808ZM93.4429 5.1875V10.3749H98.648V20.808H103.795V5.1875H93.4429Z" fill="url(#paint2_linear_357_2787)"/>
<path d="M155.029 0H139.355V5.1874V15.6205H149.65V10.4331H144.503V5.1874H154.855V15.6205H160.002V5.07083L155.029 0Z" fill="#00E7FF"/>
<path d="M134.149 20.808H149.649V25.9954H134.034L129.002 20.9829V5.1875H139.354V10.3749H134.149V20.808ZM144.444 5.1875V10.3749H149.649V20.808H154.796V5.1875H144.444Z" fill="url(#paint3_linear_357_2787)"/>
<path d="M206.029 0H190.355V5.1874V15.6205H200.65V10.4331H195.503V5.1874H205.855V15.6205H211.002V5.07083L206.029 0Z" fill="#00E7FF"/>
<path d="M185.149 20.808H200.649V25.9954H185.034L180.002 20.9829V5.1875H190.354V10.3749H185.149V20.808ZM195.444 5.1875V10.3749H200.649V20.808H205.796V5.1875H195.444Z" fill="url(#paint4_linear_357_2787)"/>
<path d="M257.03 0H241.356V5.1874V15.6205H251.651V10.4331H246.504V5.1874H256.856V15.6205H262.003V5.07083L257.03 0Z" fill="#00E7FF"/>
<path d="M236.15 20.808H251.65V25.9954H236.035L231.003 20.9829V5.1875H241.355V10.3749H236.15V20.808ZM246.445 5.1875V10.3749H251.65V20.808H256.797V5.1875H246.445Z" fill="url(#paint5_linear_357_2787)"/>
<path d="M308.03 0H292.356V5.1874V15.6205H302.651V10.4331H297.504V5.1874H307.856V15.6205H313.003V5.07083L308.03 0Z" fill="#00E7FF"/>
<path d="M287.15 20.808H302.65V25.9954H287.035L282.003 20.9829V5.1875H292.355V10.3749H287.15V20.808ZM297.445 5.1875V10.3749H302.65V20.808H307.797V5.1875H297.445Z" fill="url(#paint6_linear_357_2787)"/>
<path d="M359.03 0H343.356V5.1874V15.6205H353.651V10.4331H348.504V5.1874H358.856V15.6205H364.003V5.07083L359.03 0Z" fill="#00E7FF"/>
<path d="M338.15 20.808H353.65V25.9954H338.035L333.003 20.9829V5.1875H343.355V10.3749H338.15V20.808ZM348.445 5.1875V10.3749H353.65V20.808H358.797V5.1875H348.445Z" fill="url(#paint7_linear_357_2787)"/>
<path d="M410.031 0H394.357V5.1874V15.6205H404.652V10.4331H399.505V5.1874H409.857V15.6205H415.004V5.07083L410.031 0Z" fill="#00E7FF"/>
<path d="M389.151 20.808H404.651V25.9954H389.036L384.004 20.9829V5.1875H394.356V10.3749H389.151V20.808ZM399.446 5.1875V10.3749H404.651V20.808H409.798V5.1875H399.446Z" fill="url(#paint8_linear_357_2787)"/>
<path d="M461.031 0H445.357V5.1874V15.6205H455.652V10.4331H450.505V5.1874H460.857V15.6205H466.004V5.07083L461.031 0Z" fill="#00E7FF"/>
<path d="M440.151 20.808H455.651V25.9954H440.036L435.004 20.9829V5.1875H445.356V10.3749H440.151V20.808ZM450.446 5.1875V10.3749H455.651V20.808H460.798V5.1875H450.446Z" fill="url(#paint9_linear_357_2787)"/>
<path d="M512.032 0H496.358V5.1874V15.6205H506.653V10.4331H501.506V5.1874H511.858V15.6205H517.005V5.07083L512.032 0Z" fill="#00E7FF"/>
<path d="M491.152 20.808H506.652V25.9954H491.037L486.005 20.9829V5.1875H496.357V10.3749H491.152V20.808ZM501.447 5.1875V10.3749H506.652V20.808H511.799V5.1875H501.447Z" fill="url(#paint10_linear_357_2787)"/>
<path d="M563.032 0H547.358V5.1874V15.6205H557.653V10.4331H552.506V5.1874H562.858V15.6205H568.005V5.07083L563.032 0Z" fill="#00E7FF"/>
<path d="M542.152 20.808H557.652V25.9954H542.037L537.005 20.9829V5.1875H547.357V10.3749H542.152V20.808ZM552.447 5.1875V10.3749H557.652V20.808H562.799V5.1875H552.447Z" fill="url(#paint11_linear_357_2787)"/>
<path d="M614.033 0H598.359V5.1874V15.6205H608.654V10.4331H603.507V5.1874H613.859V15.6205H619.006V5.07083L614.033 0Z" fill="#00E7FF"/>
<path d="M593.153 20.808H608.653V25.9954H593.037L588.006 20.9829V5.1875H598.358V10.3749H593.153V20.808ZM603.448 5.1875V10.3749H608.653V20.808H613.8V5.1875H603.448Z" fill="url(#paint12_linear_357_2787)"/>
<path d="M665.033 0H649.359V5.1874V15.6205H659.654V10.4331H654.507V5.1874H664.859V15.6205H670.006V5.07083L665.033 0Z" fill="#00E7FF"/>
<path d="M644.153 20.808H659.653V25.9954H644.037L639.006 20.9829V5.1875H649.358V10.3749H644.153V20.808ZM654.448 5.1875V10.3749H659.653V20.808H664.8V5.1875H654.448Z" fill="url(#paint13_linear_357_2787)"/>
<path d="M716.033 0H700.359V5.1874V15.6205H710.654V10.4331H705.507V5.1874H715.859V15.6205H721.006V5.07083L716.033 0Z" fill="#00E7FF"/>
<path d="M695.153 20.808H710.653V25.9954H695.037L690.006 20.9829V5.1875H700.358V10.3749H695.153V20.808ZM705.448 5.1875V10.3749H710.653V20.808H715.8V5.1875H705.448Z" fill="url(#paint14_linear_357_2787)"/>
<path d="M767.034 0H751.36V5.1874V15.6205H761.655V10.4331H756.508V5.1874H766.86V15.6205H772.007V5.07083L767.034 0Z" fill="#00E7FF"/>
<path d="M746.154 20.808H761.654V25.9954H746.038L741.007 20.9829V5.1875H751.359V10.3749H746.154V20.808ZM756.449 5.1875V10.3749H761.654V20.808H766.801V5.1875H756.449Z" fill="url(#paint15_linear_357_2787)"/>
<path d="M818.034 0H802.36V5.1874V15.6205H812.655V10.4331H807.508V5.1874H817.86V15.6205H823.007V5.07083L818.034 0Z" fill="#00E7FF"/>
<path d="M797.154 20.808H812.654V25.9954H797.038L792.007 20.9829V5.1875H802.359V10.3749H797.154V20.808ZM807.449 5.1875V10.3749H812.654V20.808H817.801V5.1875H807.449Z" fill="url(#paint16_linear_357_2787)"/>
<path d="M869.035 0H853.361V5.1874V15.6205H863.656V10.4331H858.509V5.1874H868.861V15.6205H874.008V5.07083L869.035 0Z" fill="#00E7FF"/>
<path d="M848.155 20.808H863.655V25.9954H848.039L843.008 20.9829V5.1875H853.36V10.3749H848.155V20.808ZM858.45 5.1875V10.3749H863.655V20.808H868.802V5.1875H858.45Z" fill="url(#paint17_linear_357_2787)"/>
<path d="M920.035 0H904.361V5.1874V15.6205H914.656V10.4331H909.509V5.1874H919.861V15.6205H925.008V5.07083L920.035 0Z" fill="#00E7FF"/>
<path d="M899.155 20.808H914.655V25.9954H899.039L894.008 20.9829V5.1875H904.36V10.3749H899.155V20.808ZM909.45 5.1875V10.3749H914.655V20.808H919.802V5.1875H909.45Z" fill="url(#paint18_linear_357_2787)"/>
<path d="M971.036 0H955.362V5.1874V15.6205H965.657V10.4331H960.51V5.1874H970.862V15.6205H976.009V5.07083L971.036 0Z" fill="#00E7FF"/>
<path d="M950.156 20.808H965.656V25.9954H950.04L945.009 20.9829V5.1875H955.361V10.3749H950.156V20.808ZM960.451 5.1875V10.3749H965.656V20.808H970.803V5.1875H960.451Z" fill="url(#paint19_linear_357_2787)"/>
<path d="M1022.04 0H1006.36V5.1874V15.6205H1016.66V10.4331H1011.51V5.1874H1021.86V15.6205H1027.01V5.07083L1022.04 0Z" fill="#00E7FF"/>
<path d="M1001.16 20.808H1016.66V25.9954H1001.04L996.009 20.9829V5.1875H1006.36V10.3749H1001.16V20.808ZM1011.45 5.1875V10.3749H1016.66V20.808H1021.8V5.1875H1011.45Z" fill="url(#paint20_linear_357_2787)"/>
<path d="M1073.04 0H1057.36V5.1874V15.6205H1067.66V10.4331H1062.51V5.1874H1072.86V15.6205H1078.01V5.07083L1073.04 0Z" fill="#00E7FF"/>
<path d="M1052.16 20.808H1067.66V25.9954H1052.04L1047.01 20.9829V5.1875H1057.36V10.3749H1052.16V20.808ZM1062.45 5.1875V10.3749H1067.66V20.808H1072.8V5.1875H1062.45Z" fill="url(#paint21_linear_357_2787)"/>
<path d="M1124.04 0H1108.36V5.1874V15.6205H1118.66V10.4331H1113.51V5.1874H1123.86V15.6205H1129.01V5.07083L1124.04 0Z" fill="#00E7FF"/>
<path d="M1103.16 20.808H1118.66V25.9954H1103.04L1098.01 20.9829V5.1875H1108.36V10.3749H1103.16V20.808ZM1113.45 5.1875V10.3749H1118.66V20.808H1123.8V5.1875H1113.45Z" fill="url(#paint22_linear_357_2787)"/>
<path d="M1175.04 0H1159.36V5.1874V15.6205H1169.66V10.4331H1164.51V5.1874H1174.86V15.6205H1180.01V5.07083L1175.04 0Z" fill="#00E7FF"/>
<path d="M1154.16 20.808H1169.66V25.9954H1154.04L1149.01 20.9829V5.1875H1159.36V10.3749H1154.16V20.808ZM1164.45 5.1875V10.3749H1169.66V20.808H1174.8V5.1875H1164.45Z" fill="url(#paint23_linear_357_2787)"/>
<path d="M1226.04 0H1210.36V5.1874V15.6205H1220.66V10.4331H1215.51V5.1874H1225.86V15.6205H1231.01V5.07083L1226.04 0Z" fill="#00E7FF"/>
<path d="M1205.16 20.808H1220.66V25.9954H1205.04L1200.01 20.9829V5.1875H1210.36V10.3749H1205.16V20.808ZM1215.45 5.1875V10.3749H1220.66V20.808H1225.81V5.1875H1215.45Z" fill="url(#paint24_linear_357_2787)"/>
<path d="M1277.04 0H1261.36V5.1874V15.6205H1271.66V10.4331H1266.51V5.1874H1276.86V15.6205H1282.01V5.07083L1277.04 0Z" fill="#00E7FF"/>
<path d="M1256.16 20.808H1271.66V25.9954H1256.04L1251.01 20.9829V5.1875H1261.36V10.3749H1256.16V20.808ZM1266.45 5.1875V10.3749H1271.66V20.808H1276.81V5.1875H1266.45Z" fill="url(#paint25_linear_357_2787)"/>
<path d="M1328.04 0H1312.36V5.1874V15.6205H1322.66V10.4331H1317.51V5.1874H1327.86V15.6205H1333.01V5.07083L1328.04 0Z" fill="#00E7FF"/>
<path d="M1307.16 20.808H1322.66V25.9954H1307.04L1302.01 20.9829V5.1875H1312.36V10.3749H1307.16V20.808ZM1317.45 5.1875V10.3749H1322.66V20.808H1327.81V5.1875H1317.45Z" fill="url(#paint26_linear_357_2787)"/>
<path d="M1379.04 0H1363.37V5.1874V15.6205H1373.66V10.4331H1368.51V5.1874H1378.86V15.6205H1384.01V5.07083L1379.04 0Z" fill="#00E7FF"/>
<path d="M1358.16 20.808H1373.66V25.9954H1358.04L1353.01 20.9829V5.1875H1363.36V10.3749H1358.16V20.808ZM1368.45 5.1875V10.3749H1373.66V20.808H1378.81V5.1875H1368.45Z" fill="url(#paint27_linear_357_2787)"/>
</g>
<g opacity="0.6">
<path d="M22.0267 45.9951H6.35352V51.1825V61.6156H16.6481V56.4282H11.5008V51.1825H21.8532V61.6156H27.0005V51.0659L22.0267 45.9951Z" fill="#00E7FF"/>
<path d="M1.14729 66.8031H16.647V71.9905H1.03162L-4 66.978V51.1826H6.35242V56.37H1.14729V66.8031ZM11.4419 51.1826V56.37H16.647V66.8031H21.7943V51.1826H11.4419Z" fill="url(#paint28_linear_357_2787)"/>
<path d="M73.0277 45.9951H57.3545V51.1825V61.6156H67.6491V56.4282H62.5018V51.1825H72.8542V61.6156H78.0015V51.0659L73.0277 45.9951Z" fill="#00E7FF"/>
<path d="M52.1483 66.8031H67.648V71.9905H52.0326L47.001 66.978V51.1826H57.3534V56.37H52.1483V66.8031ZM62.4429 51.1826V56.37H67.648V66.8031H72.7953V51.1826H62.4429Z" fill="url(#paint29_linear_357_2787)"/>
<path d="M124.028 45.9951H108.354V51.1825V61.6156H118.649V56.4282H113.502V51.1825H123.854V61.6156H129.001V51.0659L124.028 45.9951Z" fill="#00E7FF"/>
<path d="M103.148 66.8031H118.648V71.9905H103.033L98.001 66.978V51.1826H108.353V56.37H103.148V66.8031ZM113.443 51.1826V56.37H118.648V66.8031H123.795V51.1826H113.443Z" fill="url(#paint30_linear_357_2787)"/>
<path d="M175.029 45.9951H159.355V51.1825V61.6156H169.65V56.4282H164.503V51.1825H174.855V61.6156H180.002V51.0659L175.029 45.9951Z" fill="#00E7FF"/>
<path d="M154.149 66.8031H169.649V71.9905H154.034L149.002 66.978V51.1826H159.354V56.37H154.149V66.8031ZM164.444 51.1826V56.37H169.649V66.8031H174.796V51.1826H164.444Z" fill="url(#paint31_linear_357_2787)"/>
<path d="M226.029 45.9951H210.355V51.1825V61.6156H220.65V56.4282H215.503V51.1825H225.855V61.6156H231.002V51.0659L226.029 45.9951Z" fill="#00E7FF"/>
<path d="M205.149 66.8031H220.649V71.9905H205.034L200.002 66.978V51.1826H210.354V56.37H205.149V66.8031ZM215.444 51.1826V56.37H220.649V66.8031H225.796V51.1826H215.444Z" fill="url(#paint32_linear_357_2787)"/>
<path d="M277.03 45.9951H261.356V51.1825V61.6156H271.651V56.4282H266.504V51.1825H276.856V61.6156H282.003V51.0659L277.03 45.9951Z" fill="#00E7FF"/>
<path d="M256.15 66.8031H271.65V71.9905H256.035L251.003 66.978V51.1826H261.355V56.37H256.15V66.8031ZM266.445 51.1826V56.37H271.65V66.8031H276.797V51.1826H266.445Z" fill="url(#paint33_linear_357_2787)"/>
<path d="M328.03 45.9951H312.356V51.1825V61.6156H322.651V56.4282H317.504V51.1825H327.856V61.6156H333.003V51.0659L328.03 45.9951Z" fill="#00E7FF"/>
<path d="M307.15 66.8031H322.65V71.9905H307.035L302.003 66.978V51.1826H312.355V56.37H307.15V66.8031ZM317.445 51.1826V56.37H322.65V66.8031H327.797V51.1826H317.445Z" fill="url(#paint34_linear_357_2787)"/>
<path d="M379.03 45.9951H363.356V51.1825V61.6156H373.651V56.4282H368.504V51.1825H378.856V61.6156H384.003V51.0659L379.03 45.9951Z" fill="#00E7FF"/>
<path d="M358.15 66.8031H373.65V71.9905H358.035L353.003 66.978V51.1826H363.355V56.37H358.15V66.8031ZM368.445 51.1826V56.37H373.65V66.8031H378.797V51.1826H368.445Z" fill="url(#paint35_linear_357_2787)"/>
<path d="M430.031 45.9951H414.357V51.1825V61.6156H424.652V56.4282H419.505V51.1825H429.857V61.6156H435.004V51.0659L430.031 45.9951Z" fill="#00E7FF"/>
<path d="M409.151 66.8031H424.651V71.9905H409.036L404.004 66.978V51.1826H414.356V56.37H409.151V66.8031ZM419.446 51.1826V56.37H424.651V66.8031H429.798V51.1826H419.446Z" fill="url(#paint36_linear_357_2787)"/>
<path d="M481.031 45.9951H465.357V51.1825V61.6156H475.652V56.4282H470.505V51.1825H480.857V61.6156H486.004V51.0659L481.031 45.9951Z" fill="#00E7FF"/>
<path d="M460.151 66.8031H475.651V71.9905H460.036L455.004 66.978V51.1826H465.356V56.37H460.151V66.8031ZM470.446 51.1826V56.37H475.651V66.8031H480.798V51.1826H470.446Z" fill="url(#paint37_linear_357_2787)"/>
<path d="M532.032 45.9951H516.358V51.1825V61.6156H526.653V56.4282H521.506V51.1825H531.858V61.6156H537.005V51.0659L532.032 45.9951Z" fill="#00E7FF"/>
<path d="M511.152 66.8031H526.652V71.9905H511.037L506.005 66.978V51.1826H516.357V56.37H511.152V66.8031ZM521.447 51.1826V56.37H526.652V66.8031H531.799V51.1826H521.447Z" fill="url(#paint38_linear_357_2787)"/>
<path d="M583.032 45.9951H567.358V51.1825V61.6156H577.653V56.4282H572.506V51.1825H582.858V61.6156H588.005V51.0659L583.032 45.9951Z" fill="#00E7FF"/>
<path d="M562.152 66.8031H577.652V71.9905H562.037L557.005 66.978V51.1826H567.357V56.37H562.152V66.8031ZM572.447 51.1826V56.37H577.652V66.8031H582.799V51.1826H572.447Z" fill="url(#paint39_linear_357_2787)"/>
<path d="M634.033 45.9951H618.359V51.1825V61.6156H628.654V56.4282H623.507V51.1825H633.859V61.6156H639.006V51.0659L634.033 45.9951Z" fill="#00E7FF"/>
<path d="M613.153 66.8031H628.653V71.9905H613.037L608.006 66.978V51.1826H618.358V56.37H613.153V66.8031ZM623.448 51.1826V56.37H628.653V66.8031H633.8V51.1826H623.448Z" fill="url(#paint40_linear_357_2787)"/>
<path d="M685.033 45.9951H669.359V51.1825V61.6156H679.654V56.4282H674.507V51.1825H684.859V61.6156H690.006V51.0659L685.033 45.9951Z" fill="#00E7FF"/>
<path d="M664.153 66.8031H679.653V71.9905H664.037L659.006 66.978V51.1826H669.358V56.37H664.153V66.8031ZM674.448 51.1826V56.37H679.653V66.8031H684.8V51.1826H674.448Z" fill="url(#paint41_linear_357_2787)"/>
<path d="M736.033 45.9951H720.359V51.1825V61.6156H730.654V56.4282H725.507V51.1825H735.859V61.6156H741.006V51.0659L736.033 45.9951Z" fill="#00E7FF"/>
<path d="M715.153 66.8031H730.653V71.9905H715.037L710.006 66.978V51.1826H720.358V56.37H715.153V66.8031ZM725.448 51.1826V56.37H730.653V66.8031H735.8V51.1826H725.448Z" fill="url(#paint42_linear_357_2787)"/>
<path d="M787.034 45.9951H771.36V51.1825V61.6156H781.655V56.4282H776.508V51.1825H786.86V61.6156H792.007V51.0659L787.034 45.9951Z" fill="#00E7FF"/>
<path d="M766.154 66.8031H781.654V71.9905H766.038L761.007 66.978V51.1826H771.359V56.37H766.154V66.8031ZM776.449 51.1826V56.37H781.654V66.8031H786.801V51.1826H776.449Z" fill="url(#paint43_linear_357_2787)"/>
<path d="M838.034 45.9951H822.36V51.1825V61.6156H832.655V56.4282H827.508V51.1825H837.86V61.6156H843.007V51.0659L838.034 45.9951Z" fill="#00E7FF"/>
<path d="M817.154 66.8031H832.654V71.9905H817.038L812.007 66.978V51.1826H822.359V56.37H817.154V66.8031ZM827.449 51.1826V56.37H832.654V66.8031H837.801V51.1826H827.449Z" fill="url(#paint44_linear_357_2787)"/>
<path d="M889.035 45.9951H873.361V51.1825V61.6156H883.656V56.4282H878.509V51.1825H888.861V61.6156H894.008V51.0659L889.035 45.9951Z" fill="#00E7FF"/>
<path d="M868.155 66.8031H883.655V71.9905H868.039L863.008 66.978V51.1826H873.36V56.37H868.155V66.8031ZM878.45 51.1826V56.37H883.655V66.8031H888.802V51.1826H878.45Z" fill="url(#paint45_linear_357_2787)"/>
<path d="M940.035 45.9951H924.361V51.1825V61.6156H934.656V56.4282H929.509V51.1825H939.861V61.6156H945.008V51.0659L940.035 45.9951Z" fill="#00E7FF"/>
<path d="M919.155 66.8031H934.655V71.9905H919.039L914.008 66.978V51.1826H924.36V56.37H919.155V66.8031ZM929.45 51.1826V56.37H934.655V66.8031H939.802V51.1826H929.45Z" fill="url(#paint46_linear_357_2787)"/>
<path d="M991.036 45.9951H975.362V51.1825V61.6156H985.657V56.4282H980.51V51.1825H990.862V61.6156H996.009V51.0659L991.036 45.9951Z" fill="#00E7FF"/>
<path d="M970.156 66.8031H985.656V71.9905H970.04L965.009 66.978V51.1826H975.361V56.37H970.156V66.8031ZM980.451 51.1826V56.37H985.656V66.8031H990.803V51.1826H980.451Z" fill="url(#paint47_linear_357_2787)"/>
<path d="M1042.04 45.9951H1026.36V51.1825V61.6156H1036.66V56.4282H1031.51V51.1825H1041.86V61.6156H1047.01V51.0659L1042.04 45.9951Z" fill="#00E7FF"/>
<path d="M1021.16 66.8031H1036.66V71.9905H1021.04L1016.01 66.978V51.1826H1026.36V56.37H1021.16V66.8031ZM1031.45 51.1826V56.37H1036.66V66.8031H1041.8V51.1826H1031.45Z" fill="url(#paint48_linear_357_2787)"/>
<path d="M1093.04 45.9951H1077.36V51.1825V61.6156H1087.66V56.4282H1082.51V51.1825H1092.86V61.6156H1098.01V51.0659L1093.04 45.9951Z" fill="#00E7FF"/>
<path d="M1072.16 66.8031H1087.66V71.9905H1072.04L1067.01 66.978V51.1826H1077.36V56.37H1072.16V66.8031ZM1082.45 51.1826V56.37H1087.66V66.8031H1092.8V51.1826H1082.45Z" fill="url(#paint49_linear_357_2787)"/>
<path d="M1144.04 45.9951H1128.36V51.1825V61.6156H1138.66V56.4282H1133.51V51.1825H1143.86V61.6156H1149.01V51.0659L1144.04 45.9951Z" fill="#00E7FF"/>
<path d="M1123.16 66.8031H1138.66V71.9905H1123.04L1118.01 66.978V51.1826H1128.36V56.37H1123.16V66.8031ZM1133.45 51.1826V56.37H1138.66V66.8031H1143.8V51.1826H1133.45Z" fill="url(#paint50_linear_357_2787)"/>
<path d="M1195.04 45.9951H1179.36V51.1825V61.6156H1189.66V56.4282H1184.51V51.1825H1194.86V61.6156H1200.01V51.0659L1195.04 45.9951Z" fill="#00E7FF"/>
<path d="M1174.16 66.8031H1189.66V71.9905H1174.04L1169.01 66.978V51.1826H1179.36V56.37H1174.16V66.8031ZM1184.45 51.1826V56.37H1189.66V66.8031H1194.8V51.1826H1184.45Z" fill="url(#paint51_linear_357_2787)"/>
<path d="M1246.04 45.9951H1230.36V51.1825V61.6156H1240.66V56.4282H1235.51V51.1825H1245.86V61.6156H1251.01V51.0659L1246.04 45.9951Z" fill="#00E7FF"/>
<path d="M1225.16 66.8031H1240.66V71.9905H1225.04L1220.01 66.978V51.1826H1230.36V56.37H1225.16V66.8031ZM1235.45 51.1826V56.37H1240.66V66.8031H1245.8V51.1826H1235.45Z" fill="url(#paint52_linear_357_2787)"/>
<path d="M1297.04 45.9951H1281.36V51.1825V61.6156H1291.66V56.4282H1286.51V51.1825H1296.86V61.6156H1302.01V51.0659L1297.04 45.9951Z" fill="#00E7FF"/>
<path d="M1276.16 66.8031H1291.66V71.9905H1276.04L1271.01 66.978V51.1826H1281.36V56.37H1276.16V66.8031ZM1286.45 51.1826V56.37H1291.66V66.8031H1296.81V51.1826H1286.45Z" fill="url(#paint53_linear_357_2787)"/>
<path d="M1348.04 45.9951H1332.36V51.1825V61.6156H1342.66V56.4282H1337.51V51.1825H1347.86V61.6156H1353.01V51.0659L1348.04 45.9951Z" fill="#00E7FF"/>
<path d="M1327.16 66.8031H1342.66V71.9905H1327.04L1322.01 66.978V51.1826H1332.36V56.37H1327.16V66.8031ZM1337.45 51.1826V56.37H1342.66V66.8031H1347.81V51.1826H1337.45Z" fill="url(#paint54_linear_357_2787)"/>
<path d="M1399.04 45.9951H1383.37V51.1825V61.6156H1393.66V56.4282H1388.51V51.1825H1398.86V61.6156H1404.01V51.0659L1399.04 45.9951Z" fill="#00E7FF"/>
<path d="M1378.16 66.8031H1393.66V71.9905H1378.04L1373.01 66.978V51.1826H1383.36V56.37H1378.16V66.8031ZM1388.45 51.1826V56.37H1393.66V66.8031H1398.81V51.1826H1388.45Z" fill="url(#paint55_linear_357_2787)"/>
</g>
<g opacity="0.5">
<path d="M2.02673 91.9902H-13.6465V97.1776V107.611H-3.3519V102.423H-8.49919V97.1776H1.85323V107.611H7.00052V97.0611L2.02673 91.9902Z" fill="#00E7FF"/>
<path d="M-18.8527 112.798H-3.35299V117.986H-18.9684L-24 112.973V97.1777H-13.6476V102.365H-18.8527V112.798ZM-8.55812 97.1777V102.365H-3.35299V112.798H1.79429V97.1777H-8.55812Z" fill="url(#paint56_linear_357_2787)"/>
<path d="M53.0277 91.9902H37.3545V97.1776V107.611H47.6491V102.423H42.5018V97.1776H52.8542V107.611H58.0015V97.0611L53.0277 91.9902Z" fill="#00E7FF"/>
<path d="M32.1483 112.798H47.648V117.986H32.0326L27.001 112.973V97.1777H37.3534V102.365H32.1483V112.798ZM42.4429 97.1777V102.365H47.648V112.798H52.7953V97.1777H42.4429Z" fill="url(#paint57_linear_357_2787)"/>
<path d="M104.028 91.9902H88.3545V97.1776V107.611H98.6491V102.423H93.5018V97.1776H103.854V107.611H109.001V97.0611L104.028 91.9902Z" fill="#00E7FF"/>
<path d="M83.1483 112.798H98.648V117.986H83.0326L78.001 112.973V97.1777H88.3534V102.365H83.1483V112.798ZM93.4429 97.1777V102.365H98.648V112.798H103.795V97.1777H93.4429Z" fill="url(#paint58_linear_357_2787)"/>
<path d="M155.029 91.9902H139.355V97.1776V107.611H149.65V102.423H144.503V97.1776H154.855V107.611H160.002V97.0611L155.029 91.9902Z" fill="#00E7FF"/>
<path d="M134.149 112.798H149.649V117.986H134.034L129.002 112.973V97.1777H139.354V102.365H134.149V112.798ZM144.444 97.1777V102.365H149.649V112.798H154.796V97.1777H144.444Z" fill="url(#paint59_linear_357_2787)"/>
<path d="M206.029 91.9902H190.355V97.1776V107.611H200.65V102.423H195.503V97.1776H205.855V107.611H211.002V97.0611L206.029 91.9902Z" fill="#00E7FF"/>
<path d="M185.149 112.798H200.649V117.986H185.034L180.002 112.973V97.1777H190.354V102.365H185.149V112.798ZM195.444 97.1777V102.365H200.649V112.798H205.796V97.1777H195.444Z" fill="url(#paint60_linear_357_2787)"/>
<path d="M257.03 91.9902H241.356V97.1776V107.611H251.651V102.423H246.504V97.1776H256.856V107.611H262.003V97.0611L257.03 91.9902Z" fill="#00E7FF"/>
<path d="M236.15 112.798H251.65V117.986H236.035L231.003 112.973V97.1777H241.355V102.365H236.15V112.798ZM246.445 97.1777V102.365H251.65V112.798H256.797V97.1777H246.445Z" fill="url(#paint61_linear_357_2787)"/>
<path d="M308.03 91.9902H292.356V97.1776V107.611H302.651V102.423H297.504V97.1776H307.856V107.611H313.003V97.0611L308.03 91.9902Z" fill="#00E7FF"/>
<path d="M287.15 112.798H302.65V117.986H287.035L282.003 112.973V97.1777H292.355V102.365H287.15V112.798ZM297.445 97.1777V102.365H302.65V112.798H307.797V97.1777H297.445Z" fill="url(#paint62_linear_357_2787)"/>
<path d="M359.03 91.9902H343.356V97.1776V107.611H353.651V102.423H348.504V97.1776H358.856V107.611H364.003V97.0611L359.03 91.9902Z" fill="#00E7FF"/>
<path d="M338.15 112.798H353.65V117.986H338.035L333.003 112.973V97.1777H343.355V102.365H338.15V112.798ZM348.445 97.1777V102.365H353.65V112.798H358.797V97.1777H348.445Z" fill="url(#paint63_linear_357_2787)"/>
<path d="M410.031 91.9902H394.357V97.1776V107.611H404.652V102.423H399.505V97.1776H409.857V107.611H415.004V97.0611L410.031 91.9902Z" fill="#00E7FF"/>
<path d="M389.151 112.798H404.651V117.986H389.036L384.004 112.973V97.1777H394.356V102.365H389.151V112.798ZM399.446 97.1777V102.365H404.651V112.798H409.798V97.1777H399.446Z" fill="url(#paint64_linear_357_2787)"/>
<path d="M461.031 91.9902H445.357V97.1776V107.611H455.652V102.423H450.505V97.1776H460.857V107.611H466.004V97.0611L461.031 91.9902Z" fill="#00E7FF"/>
<path d="M440.151 112.798H455.651V117.986H440.036L435.004 112.973V97.1777H445.356V102.365H440.151V112.798ZM450.446 97.1777V102.365H455.651V112.798H460.798V97.1777H450.446Z" fill="url(#paint65_linear_357_2787)"/>
<path d="M512.032 91.9902H496.358V97.1776V107.611H506.653V102.423H501.506V97.1776H511.858V107.611H517.005V97.0611L512.032 91.9902Z" fill="#00E7FF"/>
<path d="M491.152 112.798H506.652V117.986H491.037L486.005 112.973V97.1777H496.357V102.365H491.152V112.798ZM501.447 97.1777V102.365H506.652V112.798H511.799V97.1777H501.447Z" fill="url(#paint66_linear_357_2787)"/>
<path d="M563.032 91.9902H547.358V97.1776V107.611H557.653V102.423H552.506V97.1776H562.858V107.611H568.005V97.0611L563.032 91.9902Z" fill="#00E7FF"/>
<path d="M542.152 112.798H557.652V117.986H542.037L537.005 112.973V97.1777H547.357V102.365H542.152V112.798ZM552.447 97.1777V102.365H557.652V112.798H562.799V97.1777H552.447Z" fill="url(#paint67_linear_357_2787)"/>
<path d="M614.033 91.9902H598.359V97.1776V107.611H608.654V102.423H603.507V97.1776H613.859V107.611H619.006V97.0611L614.033 91.9902Z" fill="#00E7FF"/>
<path d="M593.153 112.798H608.653V117.986H593.037L588.006 112.973V97.1777H598.358V102.365H593.153V112.798ZM603.448 97.1777V102.365H608.653V112.798H613.8V97.1777H603.448Z" fill="url(#paint68_linear_357_2787)"/>
<path d="M665.033 91.9902H649.359V97.1776V107.611H659.654V102.423H654.507V97.1776H664.859V107.611H670.006V97.0611L665.033 91.9902Z" fill="#00E7FF"/>
<path d="M644.153 112.798H659.653V117.986H644.037L639.006 112.973V97.1777H649.358V102.365H644.153V112.798ZM654.448 97.1777V102.365H659.653V112.798H664.8V97.1777H654.448Z" fill="url(#paint69_linear_357_2787)"/>
<path d="M716.033 91.9902H700.359V97.1776V107.611H710.654V102.423H705.507V97.1776H715.859V107.611H721.006V97.0611L716.033 91.9902Z" fill="#00E7FF"/>
<path d="M695.153 112.798H710.653V117.986H695.037L690.006 112.973V97.1777H700.358V102.365H695.153V112.798ZM705.448 97.1777V102.365H710.653V112.798H715.8V97.1777H705.448Z" fill="url(#paint70_linear_357_2787)"/>
<path d="M767.034 91.9902H751.36V97.1776V107.611H761.655V102.423H756.508V97.1776H766.86V107.611H772.007V97.0611L767.034 91.9902Z" fill="#00E7FF"/>
<path d="M746.154 112.798H761.654V117.986H746.038L741.007 112.973V97.1777H751.359V102.365H746.154V112.798ZM756.449 97.1777V102.365H761.654V112.798H766.801V97.1777H756.449Z" fill="url(#paint71_linear_357_2787)"/>
<path d="M818.034 91.9902H802.36V97.1776V107.611H812.655V102.423H807.508V97.1776H817.86V107.611H823.007V97.0611L818.034 91.9902Z" fill="#00E7FF"/>
<path d="M797.154 112.798H812.654V117.986H797.038L792.007 112.973V97.1777H802.359V102.365H797.154V112.798ZM807.449 97.1777V102.365H812.654V112.798H817.801V97.1777H807.449Z" fill="url(#paint72_linear_357_2787)"/>
<path d="M869.035 91.9902H853.361V97.1776V107.611H863.656V102.423H858.509V97.1776H868.861V107.611H874.008V97.0611L869.035 91.9902Z" fill="#00E7FF"/>
<path d="M848.155 112.798H863.655V117.986H848.039L843.008 112.973V97.1777H853.36V102.365H848.155V112.798ZM858.45 97.1777V102.365H863.655V112.798H868.802V97.1777H858.45Z" fill="url(#paint73_linear_357_2787)"/>
<path d="M920.035 91.9902H904.361V97.1776V107.611H914.656V102.423H909.509V97.1776H919.861V107.611H925.008V97.0611L920.035 91.9902Z" fill="#00E7FF"/>
<path d="M899.155 112.798H914.655V117.986H899.039L894.008 112.973V97.1777H904.36V102.365H899.155V112.798ZM909.45 97.1777V102.365H914.655V112.798H919.802V97.1777H909.45Z" fill="url(#paint74_linear_357_2787)"/>
<path d="M971.036 91.9902H955.362V97.1776V107.611H965.657V102.423H960.51V97.1776H970.862V107.611H976.009V97.0611L971.036 91.9902Z" fill="#00E7FF"/>
<path d="M950.156 112.798H965.656V117.986H950.04L945.009 112.973V97.1777H955.361V102.365H950.156V112.798ZM960.451 97.1777V102.365H965.656V112.798H970.803V97.1777H960.451Z" fill="url(#paint75_linear_357_2787)"/>
<path d="M1022.04 91.9902H1006.36V97.1776V107.611H1016.66V102.423H1011.51V97.1776H1021.86V107.611H1027.01V97.0611L1022.04 91.9902Z" fill="#00E7FF"/>
<path d="M1001.16 112.798H1016.66V117.986H1001.04L996.009 112.973V97.1777H1006.36V102.365H1001.16V112.798ZM1011.45 97.1777V102.365H1016.66V112.798H1021.8V97.1777H1011.45Z" fill="url(#paint76_linear_357_2787)"/>
<path d="M1073.04 91.9902H1057.36V97.1776V107.611H1067.66V102.423H1062.51V97.1776H1072.86V107.611H1078.01V97.0611L1073.04 91.9902Z" fill="#00E7FF"/>
<path d="M1052.16 112.798H1067.66V117.986H1052.04L1047.01 112.973V97.1777H1057.36V102.365H1052.16V112.798ZM1062.45 97.1777V102.365H1067.66V112.798H1072.8V97.1777H1062.45Z" fill="url(#paint77_linear_357_2787)"/>
<path d="M1124.04 91.9902H1108.36V97.1776V107.611H1118.66V102.423H1113.51V97.1776H1123.86V107.611H1129.01V97.0611L1124.04 91.9902Z" fill="#00E7FF"/>
<path d="M1103.16 112.798H1118.66V117.986H1103.04L1098.01 112.973V97.1777H1108.36V102.365H1103.16V112.798ZM1113.45 97.1777V102.365H1118.66V112.798H1123.8V97.1777H1113.45Z" fill="url(#paint78_linear_357_2787)"/>
<path d="M1175.04 91.9902H1159.36V97.1776V107.611H1169.66V102.423H1164.51V97.1776H1174.86V107.611H1180.01V97.0611L1175.04 91.9902Z" fill="#00E7FF"/>
<path d="M1154.16 112.798H1169.66V117.986H1154.04L1149.01 112.973V97.1777H1159.36V102.365H1154.16V112.798ZM1164.45 97.1777V102.365H1169.66V112.798H1174.8V97.1777H1164.45Z" fill="url(#paint79_linear_357_2787)"/>
<path d="M1226.04 91.9902H1210.36V97.1776V107.611H1220.66V102.423H1215.51V97.1776H1225.86V107.611H1231.01V97.0611L1226.04 91.9902Z" fill="#00E7FF"/>
<path d="M1205.16 112.798H1220.66V117.986H1205.04L1200.01 112.973V97.1777H1210.36V102.365H1205.16V112.798ZM1215.45 97.1777V102.365H1220.66V112.798H1225.81V97.1777H1215.45Z" fill="url(#paint80_linear_357_2787)"/>
<path d="M1277.04 91.9902H1261.36V97.1776V107.611H1271.66V102.423H1266.51V97.1776H1276.86V107.611H1282.01V97.0611L1277.04 91.9902Z" fill="#00E7FF"/>
<path d="M1256.16 112.798H1271.66V117.986H1256.04L1251.01 112.973V97.1777H1261.36V102.365H1256.16V112.798ZM1266.45 97.1777V102.365H1271.66V112.798H1276.81V97.1777H1266.45Z" fill="url(#paint81_linear_357_2787)"/>
<path d="M1328.04 91.9902H1312.36V97.1776V107.611H1322.66V102.423H1317.51V97.1776H1327.86V107.611H1333.01V97.0611L1328.04 91.9902Z" fill="#00E7FF"/>
<path d="M1307.16 112.798H1322.66V117.986H1307.04L1302.01 112.973V97.1777H1312.36V102.365H1307.16V112.798ZM1317.45 97.1777V102.365H1322.66V112.798H1327.81V97.1777H1317.45Z" fill="url(#paint82_linear_357_2787)"/>
<path d="M1379.04 91.9902H1363.37V97.1776V107.611H1373.66V102.423H1368.51V97.1776H1378.86V107.611H1384.01V97.0611L1379.04 91.9902Z" fill="#00E7FF"/>
<path d="M1358.16 112.798H1373.66V117.986H1358.04L1353.01 112.973V97.1777H1363.36V102.365H1358.16V112.798ZM1368.45 97.1777V102.365H1373.66V112.798H1378.81V97.1777H1368.45Z" fill="url(#paint83_linear_357_2787)"/>
</g>
<g opacity="0.4">
<path d="M22.0267 137.985H6.35352V143.173V153.606H16.6481V148.418H11.5008V143.173H21.8532V153.606H27.0005V143.056L22.0267 137.985Z" fill="#00E7FF"/>
<path d="M1.14729 158.793H16.647V163.981H1.03162L-4 158.968V143.173H6.35242V148.36H1.14729V158.793ZM11.4419 143.173V148.36H16.647V158.793H21.7943V143.173H11.4419Z" fill="url(#paint84_linear_357_2787)"/>
<path d="M73.0277 137.985H57.3545V143.173V153.606H67.6491V148.418H62.5018V143.173H72.8542V153.606H78.0015V143.056L73.0277 137.985Z" fill="#00E7FF"/>
<path d="M52.1483 158.793H67.648V163.981H52.0326L47.001 158.968V143.173H57.3534V148.36H52.1483V158.793ZM62.4429 143.173V148.36H67.648V158.793H72.7953V143.173H62.4429Z" fill="url(#paint85_linear_357_2787)"/>
<path d="M124.028 137.985H108.354V143.173V153.606H118.649V148.418H113.502V143.173H123.854V153.606H129.001V143.056L124.028 137.985Z" fill="#00E7FF"/>
<path d="M103.148 158.793H118.648V163.981H103.033L98.001 158.968V143.173H108.353V148.36H103.148V158.793ZM113.443 143.173V148.36H118.648V158.793H123.795V143.173H113.443Z" fill="url(#paint86_linear_357_2787)"/>
<path d="M175.029 137.985H159.355V143.173V153.606H169.65V148.418H164.503V143.173H174.855V153.606H180.002V143.056L175.029 137.985Z" fill="#00E7FF"/>
<path d="M154.149 158.793H169.649V163.981H154.034L149.002 158.968V143.173H159.354V148.36H154.149V158.793ZM164.444 143.173V148.36H169.649V158.793H174.796V143.173H164.444Z" fill="url(#paint87_linear_357_2787)"/>
<path d="M226.029 137.985H210.355V143.173V153.606H220.65V148.418H215.503V143.173H225.855V153.606H231.002V143.056L226.029 137.985Z" fill="#00E7FF"/>
<path d="M205.149 158.793H220.649V163.981H205.034L200.002 158.968V143.173H210.354V148.36H205.149V158.793ZM215.444 143.173V148.36H220.649V158.793H225.796V143.173H215.444Z" fill="url(#paint88_linear_357_2787)"/>
<path d="M277.03 137.985H261.356V143.173V153.606H271.651V148.418H266.504V143.173H276.856V153.606H282.003V143.056L277.03 137.985Z" fill="#00E7FF"/>
<path d="M256.15 158.793H271.65V163.981H256.035L251.003 158.968V143.173H261.355V148.36H256.15V158.793ZM266.445 143.173V148.36H271.65V158.793H276.797V143.173H266.445Z" fill="url(#paint89_linear_357_2787)"/>
<path d="M328.03 137.985H312.356V143.173V153.606H322.651V148.418H317.504V143.173H327.856V153.606H333.003V143.056L328.03 137.985Z" fill="#00E7FF"/>
<path d="M307.15 158.793H322.65V163.981H307.035L302.003 158.968V143.173H312.355V148.36H307.15V158.793ZM317.445 143.173V148.36H322.65V158.793H327.797V143.173H317.445Z" fill="url(#paint90_linear_357_2787)"/>
<path d="M379.03 137.985H363.356V143.173V153.606H373.651V148.418H368.504V143.173H378.856V153.606H384.003V143.056L379.03 137.985Z" fill="#00E7FF"/>
<path d="M358.15 158.793H373.65V163.981H358.035L353.003 158.968V143.173H363.355V148.36H358.15V158.793ZM368.445 143.173V148.36H373.65V158.793H378.797V143.173H368.445Z" fill="url(#paint91_linear_357_2787)"/>
<path d="M430.031 137.985H414.357V143.173V153.606H424.652V148.418H419.505V143.173H429.857V153.606H435.004V143.056L430.031 137.985Z" fill="#00E7FF"/>
<path d="M409.151 158.793H424.651V163.981H409.036L404.004 158.968V143.173H414.356V148.36H409.151V158.793ZM419.446 143.173V148.36H424.651V158.793H429.798V143.173H419.446Z" fill="url(#paint92_linear_357_2787)"/>
<path d="M481.031 137.985H465.357V143.173V153.606H475.652V148.418H470.505V143.173H480.857V153.606H486.004V143.056L481.031 137.985Z" fill="#00E7FF"/>
<path d="M460.151 158.793H475.651V163.981H460.036L455.004 158.968V143.173H465.356V148.36H460.151V158.793ZM470.446 143.173V148.36H475.651V158.793H480.798V143.173H470.446Z" fill="url(#paint93_linear_357_2787)"/>
<path d="M532.032 137.985H516.358V143.173V153.606H526.653V148.418H521.506V143.173H531.858V153.606H537.005V143.056L532.032 137.985Z" fill="#00E7FF"/>
<path d="M511.152 158.793H526.652V163.981H511.037L506.005 158.968V143.173H516.357V148.36H511.152V158.793ZM521.447 143.173V148.36H526.652V158.793H531.799V143.173H521.447Z" fill="url(#paint94_linear_357_2787)"/>
<path d="M583.032 137.985H567.358V143.173V153.606H577.653V148.418H572.506V143.173H582.858V153.606H588.005V143.056L583.032 137.985Z" fill="#00E7FF"/>
<path d="M562.152 158.793H577.652V163.981H562.037L557.005 158.968V143.173H567.357V148.36H562.152V158.793ZM572.447 143.173V148.36H577.652V158.793H582.799V143.173H572.447Z" fill="url(#paint95_linear_357_2787)"/>
<path d="M634.033 137.985H618.359V143.173V153.606H628.654V148.418H623.507V143.173H633.859V153.606H639.006V143.056L634.033 137.985Z" fill="#00E7FF"/>
<path d="M613.153 158.793H628.653V163.981H613.037L608.006 158.968V143.173H618.358V148.36H613.153V158.793ZM623.448 143.173V148.36H628.653V158.793H633.8V143.173H623.448Z" fill="url(#paint96_linear_357_2787)"/>
<path d="M685.033 137.985H669.359V143.173V153.606H679.654V148.418H674.507V143.173H684.859V153.606H690.006V143.056L685.033 137.985Z" fill="#00E7FF"/>
<path d="M664.153 158.793H679.653V163.981H664.037L659.006 158.968V143.173H669.358V148.36H664.153V158.793ZM674.448 143.173V148.36H679.653V158.793H684.8V143.173H674.448Z" fill="url(#paint97_linear_357_2787)"/>
<path d="M736.033 137.985H720.359V143.173V153.606H730.654V148.418H725.507V143.173H735.859V153.606H741.006V143.056L736.033 137.985Z" fill="#00E7FF"/>
<path d="M715.153 158.793H730.653V163.981H715.037L710.006 158.968V143.173H720.358V148.36H715.153V158.793ZM725.448 143.173V148.36H730.653V158.793H735.8V143.173H725.448Z" fill="url(#paint98_linear_357_2787)"/>
<path d="M787.034 137.985H771.36V143.173V153.606H781.655V148.418H776.508V143.173H786.86V153.606H792.007V143.056L787.034 137.985Z" fill="#00E7FF"/>
<path d="M766.154 158.793H781.654V163.981H766.038L761.007 158.968V143.173H771.359V148.36H766.154V158.793ZM776.449 143.173V148.36H781.654V158.793H786.801V143.173H776.449Z" fill="url(#paint99_linear_357_2787)"/>
<path d="M838.034 137.985H822.36V143.173V153.606H832.655V148.418H827.508V143.173H837.86V153.606H843.007V143.056L838.034 137.985Z" fill="#00E7FF"/>
<path d="M817.154 158.793H832.654V163.981H817.038L812.007 158.968V143.173H822.359V148.36H817.154V158.793ZM827.449 143.173V148.36H832.654V158.793H837.801V143.173H827.449Z" fill="url(#paint100_linear_357_2787)"/>
<path d="M889.035 137.985H873.361V143.173V153.606H883.656V148.418H878.509V143.173H888.861V153.606H894.008V143.056L889.035 137.985Z" fill="#00E7FF"/>
<path d="M868.155 158.793H883.655V163.981H868.039L863.008 158.968V143.173H873.36V148.36H868.155V158.793ZM878.45 143.173V148.36H883.655V158.793H888.802V143.173H878.45Z" fill="url(#paint101_linear_357_2787)"/>
<path d="M940.035 137.985H924.361V143.173V153.606H934.656V148.418H929.509V143.173H939.861V153.606H945.008V143.056L940.035 137.985Z" fill="#00E7FF"/>
<path d="M919.155 158.793H934.655V163.981H919.039L914.008 158.968V143.173H924.36V148.36H919.155V158.793ZM929.45 143.173V148.36H934.655V158.793H939.802V143.173H929.45Z" fill="url(#paint102_linear_357_2787)"/>
<path d="M991.036 137.985H975.362V143.173V153.606H985.657V148.418H980.51V143.173H990.862V153.606H996.009V143.056L991.036 137.985Z" fill="#00E7FF"/>
<path d="M970.156 158.793H985.656V163.981H970.04L965.009 158.968V143.173H975.361V148.36H970.156V158.793ZM980.451 143.173V148.36H985.656V158.793H990.803V143.173H980.451Z" fill="url(#paint103_linear_357_2787)"/>
<path d="M1042.04 137.985H1026.36V143.173V153.606H1036.66V148.418H1031.51V143.173H1041.86V153.606H1047.01V143.056L1042.04 137.985Z" fill="#00E7FF"/>
<path d="M1021.16 158.793H1036.66V163.981H1021.04L1016.01 158.968V143.173H1026.36V148.36H1021.16V158.793ZM1031.45 143.173V148.36H1036.66V158.793H1041.8V143.173H1031.45Z" fill="url(#paint104_linear_357_2787)"/>
<path d="M1093.04 137.985H1077.36V143.173V153.606H1087.66V148.418H1082.51V143.173H1092.86V153.606H1098.01V143.056L1093.04 137.985Z" fill="#00E7FF"/>
<path d="M1072.16 158.793H1087.66V163.981H1072.04L1067.01 158.968V143.173H1077.36V148.36H1072.16V158.793ZM1082.45 143.173V148.36H1087.66V158.793H1092.8V143.173H1082.45Z" fill="url(#paint105_linear_357_2787)"/>
<path d="M1144.04 137.985H1128.36V143.173V153.606H1138.66V148.418H1133.51V143.173H1143.86V153.606H1149.01V143.056L1144.04 137.985Z" fill="#00E7FF"/>
<path d="M1123.16 158.793H1138.66V163.981H1123.04L1118.01 158.968V143.173H1128.36V148.36H1123.16V158.793ZM1133.45 143.173V148.36H1138.66V158.793H1143.8V143.173H1133.45Z" fill="url(#paint106_linear_357_2787)"/>
<path d="M1195.04 137.985H1179.36V143.173V153.606H1189.66V148.418H1184.51V143.173H1194.86V153.606H1200.01V143.056L1195.04 137.985Z" fill="#00E7FF"/>
<path d="M1174.16 158.793H1189.66V163.981H1174.04L1169.01 158.968V143.173H1179.36V148.36H1174.16V158.793ZM1184.45 143.173V148.36H1189.66V158.793H1194.8V143.173H1184.45Z" fill="url(#paint107_linear_357_2787)"/>
<path d="M1246.04 137.985H1230.36V143.173V153.606H1240.66V148.418H1235.51V143.173H1245.86V153.606H1251.01V143.056L1246.04 137.985Z" fill="#00E7FF"/>
<path d="M1225.16 158.793H1240.66V163.981H1225.04L1220.01 158.968V143.173H1230.36V148.36H1225.16V158.793ZM1235.45 143.173V148.36H1240.66V158.793H1245.8V143.173H1235.45Z" fill="url(#paint108_linear_357_2787)"/>
<path d="M1297.04 137.985H1281.36V143.173V153.606H1291.66V148.418H1286.51V143.173H1296.86V153.606H1302.01V143.056L1297.04 137.985Z" fill="#00E7FF"/>
<path d="M1276.16 158.793H1291.66V163.981H1276.04L1271.01 158.968V143.173H1281.36V148.36H1276.16V158.793ZM1286.45 143.173V148.36H1291.66V158.793H1296.81V143.173H1286.45Z" fill="url(#paint109_linear_357_2787)"/>
<path d="M1348.04 137.985H1332.36V143.173V153.606H1342.66V148.418H1337.51V143.173H1347.86V153.606H1353.01V143.056L1348.04 137.985Z" fill="#00E7FF"/>
<path d="M1327.16 158.793H1342.66V163.981H1327.04L1322.01 158.968V143.173H1332.36V148.36H1327.16V158.793ZM1337.45 143.173V148.36H1342.66V158.793H1347.81V143.173H1337.45Z" fill="url(#paint110_linear_357_2787)"/>
<path d="M1399.04 137.985H1383.37V143.173V153.606H1393.66V148.418H1388.51V143.173H1398.86V153.606H1404.01V143.056L1399.04 137.985Z" fill="#00E7FF"/>
<path d="M1378.16 158.793H1393.66V163.981H1378.04L1373.01 158.968V143.173H1383.36V148.36H1378.16V158.793ZM1388.45 143.173V148.36H1393.66V158.793H1398.81V143.173H1388.45Z" fill="url(#paint111_linear_357_2787)"/>
</g>
<g opacity="0.3">
<path d="M2.02673 183.981H-13.6465V189.168V199.601H-3.3519V194.414H-8.49919V189.168H1.85323V199.601H7.00052V189.052L2.02673 183.981Z" fill="#00E7FF"/>
<path d="M-18.8527 204.789H-3.35299V209.976H-18.9684L-24 204.964V189.168H-13.6476V194.356H-18.8527V204.789ZM-8.55812 189.168V194.356H-3.35299V204.789H1.79429V189.168H-8.55812Z" fill="url(#paint112_linear_357_2787)"/>
<path d="M53.0277 183.981H37.3545V189.168V199.601H47.6491V194.414H42.5018V189.168H52.8542V199.601H58.0015V189.052L53.0277 183.981Z" fill="#00E7FF"/>
<path d="M32.1483 204.789H47.648V209.976H32.0326L27.001 204.964V189.168H37.3534V194.356H32.1483V204.789ZM42.4429 189.168V194.356H47.648V204.789H52.7953V189.168H42.4429Z" fill="url(#paint113_linear_357_2787)"/>
<path d="M104.028 183.981H88.3545V189.168V199.601H98.6491V194.414H93.5018V189.168H103.854V199.601H109.001V189.052L104.028 183.981Z" fill="#00E7FF"/>
<path d="M83.1483 204.789H98.648V209.976H83.0326L78.001 204.964V189.168H88.3534V194.356H83.1483V204.789ZM93.4429 189.168V194.356H98.648V204.789H103.795V189.168H93.4429Z" fill="url(#paint114_linear_357_2787)"/>
<path d="M155.029 183.981H139.355V189.168V199.601H149.65V194.414H144.503V189.168H154.855V199.601H160.002V189.052L155.029 183.981Z" fill="#00E7FF"/>
<path d="M134.149 204.789H149.649V209.976H134.034L129.002 204.964V189.168H139.354V194.356H134.149V204.789ZM144.444 189.168V194.356H149.649V204.789H154.796V189.168H144.444Z" fill="url(#paint115_linear_357_2787)"/>
<path d="M206.029 183.981H190.355V189.168V199.601H200.65V194.414H195.503V189.168H205.855V199.601H211.002V189.052L206.029 183.981Z" fill="#00E7FF"/>
<path d="M185.149 204.789H200.649V209.976H185.034L180.002 204.964V189.168H190.354V194.356H185.149V204.789ZM195.444 189.168V194.356H200.649V204.789H205.796V189.168H195.444Z" fill="url(#paint116_linear_357_2787)"/>
<path d="M257.03 183.981H241.356V189.168V199.601H251.651V194.414H246.504V189.168H256.856V199.601H262.003V189.052L257.03 183.981Z" fill="#00E7FF"/>
<path d="M236.15 204.789H251.65V209.976H236.035L231.003 204.964V189.168H241.355V194.356H236.15V204.789ZM246.445 189.168V194.356H251.65V204.789H256.797V189.168H246.445Z" fill="url(#paint117_linear_357_2787)"/>
<path d="M308.03 183.981H292.356V189.168V199.601H302.651V194.414H297.504V189.168H307.856V199.601H313.003V189.052L308.03 183.981Z" fill="#00E7FF"/>
<path d="M287.15 204.789H302.65V209.976H287.035L282.003 204.964V189.168H292.355V194.356H287.15V204.789ZM297.445 189.168V194.356H302.65V204.789H307.797V189.168H297.445Z" fill="url(#paint118_linear_357_2787)"/>
<path d="M359.03 183.981H343.356V189.168V199.601H353.651V194.414H348.504V189.168H358.856V199.601H364.003V189.052L359.03 183.981Z" fill="#00E7FF"/>
<path d="M338.15 204.789H353.65V209.976H338.035L333.003 204.964V189.168H343.355V194.356H338.15V204.789ZM348.445 189.168V194.356H353.65V204.789H358.797V189.168H348.445Z" fill="url(#paint119_linear_357_2787)"/>
<path d="M410.031 183.981H394.357V189.168V199.601H404.652V194.414H399.505V189.168H409.857V199.601H415.004V189.052L410.031 183.981Z" fill="#00E7FF"/>
<path d="M389.151 204.789H404.651V209.976H389.036L384.004 204.964V189.168H394.356V194.356H389.151V204.789ZM399.446 189.168V194.356H404.651V204.789H409.798V189.168H399.446Z" fill="url(#paint120_linear_357_2787)"/>
<path d="M461.031 183.981H445.357V189.168V199.601H455.652V194.414H450.505V189.168H460.857V199.601H466.004V189.052L461.031 183.981Z" fill="#00E7FF"/>
<path d="M440.151 204.789H455.651V209.976H440.036L435.004 204.964V189.168H445.356V194.356H440.151V204.789ZM450.446 189.168V194.356H455.651V204.789H460.798V189.168H450.446Z" fill="url(#paint121_linear_357_2787)"/>
<path d="M512.032 183.981H496.358V189.168V199.601H506.653V194.414H501.506V189.168H511.858V199.601H517.005V189.052L512.032 183.981Z" fill="#00E7FF"/>
<path d="M491.152 204.789H506.652V209.976H491.037L486.005 204.964V189.168H496.357V194.356H491.152V204.789ZM501.447 189.168V194.356H506.652V204.789H511.799V189.168H501.447Z" fill="url(#paint122_linear_357_2787)"/>
<path d="M563.032 183.981H547.358V189.168V199.601H557.653V194.414H552.506V189.168H562.858V199.601H568.005V189.052L563.032 183.981Z" fill="#00E7FF"/>
<path d="M542.152 204.789H557.652V209.976H542.037L537.005 204.964V189.168H547.357V194.356H542.152V204.789ZM552.447 189.168V194.356H557.652V204.789H562.799V189.168H552.447Z" fill="url(#paint123_linear_357_2787)"/>
<path d="M614.033 183.981H598.359V189.168V199.601H608.654V194.414H603.507V189.168H613.859V199.601H619.006V189.052L614.033 183.981Z" fill="#00E7FF"/>
<path d="M593.153 204.789H608.653V209.976H593.037L588.006 204.964V189.168H598.358V194.356H593.153V204.789ZM603.448 189.168V194.356H608.653V204.789H613.8V189.168H603.448Z" fill="url(#paint124_linear_357_2787)"/>
<path d="M665.033 183.981H649.359V189.168V199.601H659.654V194.414H654.507V189.168H664.859V199.601H670.006V189.052L665.033 183.981Z" fill="#00E7FF"/>
<path d="M644.153 204.789H659.653V209.976H644.037L639.006 204.964V189.168H649.358V194.356H644.153V204.789ZM654.448 189.168V194.356H659.653V204.789H664.8V189.168H654.448Z" fill="url(#paint125_linear_357_2787)"/>
<path d="M716.033 183.981H700.359V189.168V199.601H710.654V194.414H705.507V189.168H715.859V199.601H721.006V189.052L716.033 183.981Z" fill="#00E7FF"/>
<path d="M695.153 204.789H710.653V209.976H695.037L690.006 204.964V189.168H700.358V194.356H695.153V204.789ZM705.448 189.168V194.356H710.653V204.789H715.8V189.168H705.448Z" fill="url(#paint126_linear_357_2787)"/>
<path d="M767.034 183.981H751.36V189.168V199.601H761.655V194.414H756.508V189.168H766.86V199.601H772.007V189.052L767.034 183.981Z" fill="#00E7FF"/>
<path d="M746.154 204.789H761.654V209.976H746.038L741.007 204.964V189.168H751.359V194.356H746.154V204.789ZM756.449 189.168V194.356H761.654V204.789H766.801V189.168H756.449Z" fill="url(#paint127_linear_357_2787)"/>
<path d="M818.034 183.981H802.36V189.168V199.601H812.655V194.414H807.508V189.168H817.86V199.601H823.007V189.052L818.034 183.981Z" fill="#00E7FF"/>
<path d="M797.154 204.789H812.654V209.976H797.038L792.007 204.964V189.168H802.359V194.356H797.154V204.789ZM807.449 189.168V194.356H812.654V204.789H817.801V189.168H807.449Z" fill="url(#paint128_linear_357_2787)"/>
<path d="M869.035 183.981H853.361V189.168V199.601H863.656V194.414H858.509V189.168H868.861V199.601H874.008V189.052L869.035 183.981Z" fill="#00E7FF"/>
<path d="M848.155 204.789H863.655V209.976H848.039L843.008 204.964V189.168H853.36V194.356H848.155V204.789ZM858.45 189.168V194.356H863.655V204.789H868.802V189.168H858.45Z" fill="url(#paint129_linear_357_2787)"/>
<path d="M920.035 183.981H904.361V189.168V199.601H914.656V194.414H909.509V189.168H919.861V199.601H925.008V189.052L920.035 183.981Z" fill="#00E7FF"/>
<path d="M899.155 204.789H914.655V209.976H899.039L894.008 204.964V189.168H904.36V194.356H899.155V204.789ZM909.45 189.168V194.356H914.655V204.789H919.802V189.168H909.45Z" fill="url(#paint130_linear_357_2787)"/>
<path d="M971.036 183.981H955.362V189.168V199.601H965.657V194.414H960.51V189.168H970.862V199.601H976.009V189.052L971.036 183.981Z" fill="#00E7FF"/>
<path d="M950.156 204.789H965.656V209.976H950.04L945.009 204.964V189.168H955.361V194.356H950.156V204.789ZM960.451 189.168V194.356H965.656V204.789H970.803V189.168H960.451Z" fill="url(#paint131_linear_357_2787)"/>
<path d="M1022.04 183.981H1006.36V189.168V199.601H1016.66V194.414H1011.51V189.168H1021.86V199.601H1027.01V189.052L1022.04 183.981Z" fill="#00E7FF"/>
<path d="M1001.16 204.789H1016.66V209.976H1001.04L996.009 204.964V189.168H1006.36V194.356H1001.16V204.789ZM1011.45 189.168V194.356H1016.66V204.789H1021.8V189.168H1011.45Z" fill="url(#paint132_linear_357_2787)"/>
<path d="M1073.04 183.981H1057.36V189.168V199.601H1067.66V194.414H1062.51V189.168H1072.86V199.601H1078.01V189.052L1073.04 183.981Z" fill="#00E7FF"/>
<path d="M1052.16 204.789H1067.66V209.976H1052.04L1047.01 204.964V189.168H1057.36V194.356H1052.16V204.789ZM1062.45 189.168V194.356H1067.66V204.789H1072.8V189.168H1062.45Z" fill="url(#paint133_linear_357_2787)"/>
<path d="M1124.04 183.981H1108.36V189.168V199.601H1118.66V194.414H1113.51V189.168H1123.86V199.601H1129.01V189.052L1124.04 183.981Z" fill="#00E7FF"/>
<path d="M1103.16 204.789H1118.66V209.976H1103.04L1098.01 204.964V189.168H1108.36V194.356H1103.16V204.789ZM1113.45 189.168V194.356H1118.66V204.789H1123.8V189.168H1113.45Z" fill="url(#paint134_linear_357_2787)"/>
<path d="M1175.04 183.981H1159.36V189.168V199.601H1169.66V194.414H1164.51V189.168H1174.86V199.601H1180.01V189.052L1175.04 183.981Z" fill="#00E7FF"/>
<path d="M1154.16 204.789H1169.66V209.976H1154.04L1149.01 204.964V189.168H1159.36V194.356H1154.16V204.789ZM1164.45 189.168V194.356H1169.66V204.789H1174.8V189.168H1164.45Z" fill="url(#paint135_linear_357_2787)"/>
<path d="M1226.04 183.981H1210.36V189.168V199.601H1220.66V194.414H1215.51V189.168H1225.86V199.601H1231.01V189.052L1226.04 183.981Z" fill="#00E7FF"/>
<path d="M1205.16 204.789H1220.66V209.976H1205.04L1200.01 204.964V189.168H1210.36V194.356H1205.16V204.789ZM1215.45 189.168V194.356H1220.66V204.789H1225.81V189.168H1215.45Z" fill="url(#paint136_linear_357_2787)"/>
<path d="M1277.04 183.981H1261.36V189.168V199.601H1271.66V194.414H1266.51V189.168H1276.86V199.601H1282.01V189.052L1277.04 183.981Z" fill="#00E7FF"/>
<path d="M1256.16 204.789H1271.66V209.976H1256.04L1251.01 204.964V189.168H1261.36V194.356H1256.16V204.789ZM1266.45 189.168V194.356H1271.66V204.789H1276.81V189.168H1266.45Z" fill="url(#paint137_linear_357_2787)"/>
<path d="M1328.04 183.981H1312.36V189.168V199.601H1322.66V194.414H1317.51V189.168H1327.86V199.601H1333.01V189.052L1328.04 183.981Z" fill="#00E7FF"/>
<path d="M1307.16 204.789H1322.66V209.976H1307.04L1302.01 204.964V189.168H1312.36V194.356H1307.16V204.789ZM1317.45 189.168V194.356H1322.66V204.789H1327.81V189.168H1317.45Z" fill="url(#paint138_linear_357_2787)"/>
<path d="M1379.04 183.981H1363.37V189.168V199.601H1373.66V194.414H1368.51V189.168H1378.86V199.601H1384.01V189.052L1379.04 183.981Z" fill="#00E7FF"/>
<path d="M1358.16 204.789H1373.66V209.976H1358.04L1353.01 204.964V189.168H1363.36V194.356H1358.16V204.789ZM1368.45 189.168V194.356H1373.66V204.789H1378.81V189.168H1368.45Z" fill="url(#paint139_linear_357_2787)"/>
</g>
<g opacity="0.2">
<path d="M22.0267 229.976H6.35352V235.163V245.597H16.6481V240.409H11.5008V235.163H21.8532V245.597H27.0005V235.047L22.0267 229.976Z" fill="#00E7FF"/>
<path d="M1.14729 250.784H16.647V255.971H1.03162L-4 250.959V235.164H6.35242V240.351H1.14729V250.784ZM11.4419 235.164V240.351H16.647V250.784H21.7943V235.164H11.4419Z" fill="url(#paint140_linear_357_2787)"/>
<path d="M73.0277 229.976H57.3545V235.163V245.597H67.6491V240.409H62.5018V235.163H72.8542V245.597H78.0015V235.047L73.0277 229.976Z" fill="#00E7FF"/>
<path d="M52.1483 250.784H67.648V255.971H52.0326L47.001 250.959V235.164H57.3534V240.351H52.1483V250.784ZM62.4429 235.164V240.351H67.648V250.784H72.7953V235.164H62.4429Z" fill="url(#paint141_linear_357_2787)"/>
<path d="M124.028 229.976H108.354V235.163V245.597H118.649V240.409H113.502V235.163H123.854V245.597H129.001V235.047L124.028 229.976Z" fill="#00E7FF"/>
<path d="M103.148 250.784H118.648V255.971H103.033L98.001 250.959V235.164H108.353V240.351H103.148V250.784ZM113.443 235.164V240.351H118.648V250.784H123.795V235.164H113.443Z" fill="url(#paint142_linear_357_2787)"/>
<path d="M175.029 229.976H159.355V235.163V245.597H169.65V240.409H164.503V235.163H174.855V245.597H180.002V235.047L175.029 229.976Z" fill="#00E7FF"/>
<path d="M154.149 250.784H169.649V255.971H154.034L149.002 250.959V235.164H159.354V240.351H154.149V250.784ZM164.444 235.164V240.351H169.649V250.784H174.796V235.164H164.444Z" fill="url(#paint143_linear_357_2787)"/>
<path d="M226.029 229.976H210.355V235.163V245.597H220.65V240.409H215.503V235.163H225.855V245.597H231.002V235.047L226.029 229.976Z" fill="#00E7FF"/>
<path d="M205.149 250.784H220.649V255.971H205.034L200.002 250.959V235.164H210.354V240.351H205.149V250.784ZM215.444 235.164V240.351H220.649V250.784H225.796V235.164H215.444Z" fill="url(#paint144_linear_357_2787)"/>
<path d="M277.03 229.976H261.356V235.163V245.597H271.651V240.409H266.504V235.163H276.856V245.597H282.003V235.047L277.03 229.976Z" fill="#00E7FF"/>
<path d="M256.15 250.784H271.65V255.971H256.035L251.003 250.959V235.164H261.355V240.351H256.15V250.784ZM266.445 235.164V240.351H271.65V250.784H276.797V235.164H266.445Z" fill="url(#paint145_linear_357_2787)"/>
<path d="M328.03 229.976H312.356V235.163V245.597H322.651V240.409H317.504V235.163H327.856V245.597H333.003V235.047L328.03 229.976Z" fill="#00E7FF"/>
<path d="M307.15 250.784H322.65V255.971H307.035L302.003 250.959V235.164H312.355V240.351H307.15V250.784ZM317.445 235.164V240.351H322.65V250.784H327.797V235.164H317.445Z" fill="url(#paint146_linear_357_2787)"/>
<path d="M379.03 229.976H363.356V235.163V245.597H373.651V240.409H368.504V235.163H378.856V245.597H384.003V235.047L379.03 229.976Z" fill="#00E7FF"/>
<path d="M358.15 250.784H373.65V255.971H358.035L353.003 250.959V235.164H363.355V240.351H358.15V250.784ZM368.445 235.164V240.351H373.65V250.784H378.797V235.164H368.445Z" fill="url(#paint147_linear_357_2787)"/>
<path d="M430.031 229.976H414.357V235.163V245.597H424.652V240.409H419.505V235.163H429.857V245.597H435.004V235.047L430.031 229.976Z" fill="#00E7FF"/>
<path d="M409.151 250.784H424.651V255.971H409.036L404.004 250.959V235.164H414.356V240.351H409.151V250.784ZM419.446 235.164V240.351H424.651V250.784H429.798V235.164H419.446Z" fill="url(#paint148_linear_357_2787)"/>
<path d="M481.031 229.976H465.357V235.163V245.597H475.652V240.409H470.505V235.163H480.857V245.597H486.004V235.047L481.031 229.976Z" fill="#00E7FF"/>
<path d="M460.151 250.784H475.651V255.971H460.036L455.004 250.959V235.164H465.356V240.351H460.151V250.784ZM470.446 235.164V240.351H475.651V250.784H480.798V235.164H470.446Z" fill="url(#paint149_linear_357_2787)"/>
<path d="M532.032 229.976H516.358V235.163V245.597H526.653V240.409H521.506V235.163H531.858V245.597H537.005V235.047L532.032 229.976Z" fill="#00E7FF"/>
<path d="M511.152 250.784H526.652V255.971H511.037L506.005 250.959V235.164H516.357V240.351H511.152V250.784ZM521.447 235.164V240.351H526.652V250.784H531.799V235.164H521.447Z" fill="url(#paint150_linear_357_2787)"/>
<path d="M583.032 229.976H567.358V235.163V245.597H577.653V240.409H572.506V235.163H582.858V245.597H588.005V235.047L583.032 229.976Z" fill="#00E7FF"/>
<path d="M562.152 250.784H577.652V255.971H562.037L557.005 250.959V235.164H567.357V240.351H562.152V250.784ZM572.447 235.164V240.351H577.652V250.784H582.799V235.164H572.447Z" fill="url(#paint151_linear_357_2787)"/>
<path d="M634.033 229.976H618.359V235.163V245.597H628.654V240.409H623.507V235.163H633.859V245.597H639.006V235.047L634.033 229.976Z" fill="#00E7FF"/>
<path d="M613.153 250.784H628.653V255.971H613.037L608.006 250.959V235.164H618.358V240.351H613.153V250.784ZM623.448 235.164V240.351H628.653V250.784H633.8V235.164H623.448Z" fill="url(#paint152_linear_357_2787)"/>
<path d="M685.033 229.976H669.359V235.163V245.597H679.654V240.409H674.507V235.163H684.859V245.597H690.006V235.047L685.033 229.976Z" fill="#00E7FF"/>
<path d="M664.153 250.784H679.653V255.971H664.037L659.006 250.959V235.164H669.358V240.351H664.153V250.784ZM674.448 235.164V240.351H679.653V250.784H684.8V235.164H674.448Z" fill="url(#paint153_linear_357_2787)"/>
<path d="M736.033 229.976H720.359V235.163V245.597H730.654V240.409H725.507V235.163H735.859V245.597H741.006V235.047L736.033 229.976Z" fill="#00E7FF"/>
<path d="M715.153 250.784H730.653V255.971H715.037L710.006 250.959V235.164H720.358V240.351H715.153V250.784ZM725.448 235.164V240.351H730.653V250.784H735.8V235.164H725.448Z" fill="url(#paint154_linear_357_2787)"/>
<path d="M787.034 229.976H771.36V235.163V245.597H781.655V240.409H776.508V235.163H786.86V245.597H792.007V235.047L787.034 229.976Z" fill="#00E7FF"/>
<path d="M766.154 250.784H781.654V255.971H766.038L761.007 250.959V235.164H771.359V240.351H766.154V250.784ZM776.449 235.164V240.351H781.654V250.784H786.801V235.164H776.449Z" fill="url(#paint155_linear_357_2787)"/>
<path d="M838.034 229.976H822.36V235.163V245.597H832.655V240.409H827.508V235.163H837.86V245.597H843.007V235.047L838.034 229.976Z" fill="#00E7FF"/>
<path d="M817.154 250.784H832.654V255.971H817.038L812.007 250.959V235.164H822.359V240.351H817.154V250.784ZM827.449 235.164V240.351H832.654V250.784H837.801V235.164H827.449Z" fill="url(#paint156_linear_357_2787)"/>
<path d="M889.035 229.976H873.361V235.163V245.597H883.656V240.409H878.509V235.163H888.861V245.597H894.008V235.047L889.035 229.976Z" fill="#00E7FF"/>
<path d="M868.155 250.784H883.655V255.971H868.039L863.008 250.959V235.164H873.36V240.351H868.155V250.784ZM878.45 235.164V240.351H883.655V250.784H888.802V235.164H878.45Z" fill="url(#paint157_linear_357_2787)"/>
<path d="M940.035 229.976H924.361V235.163V245.597H934.656V240.409H929.509V235.163H939.861V245.597H945.008V235.047L940.035 229.976Z" fill="#00E7FF"/>
<path d="M919.155 250.784H934.655V255.971H919.039L914.008 250.959V235.164H924.36V240.351H919.155V250.784ZM929.45 235.164V240.351H934.655V250.784H939.802V235.164H929.45Z" fill="url(#paint158_linear_357_2787)"/>
<path d="M991.036 229.976H975.362V235.163V245.597H985.657V240.409H980.51V235.163H990.862V245.597H996.009V235.047L991.036 229.976Z" fill="#00E7FF"/>
<path d="M970.156 250.784H985.656V255.971H970.04L965.009 250.959V235.164H975.361V240.351H970.156V250.784ZM980.451 235.164V240.351H985.656V250.784H990.803V235.164H980.451Z" fill="url(#paint159_linear_357_2787)"/>
<path d="M1042.04 229.976H1026.36V235.163V245.597H1036.66V240.409H1031.51V235.163H1041.86V245.597H1047.01V235.047L1042.04 229.976Z" fill="#00E7FF"/>
<path d="M1021.16 250.784H1036.66V255.971H1021.04L1016.01 250.959V235.164H1026.36V240.351H1021.16V250.784ZM1031.45 235.164V240.351H1036.66V250.784H1041.8V235.164H1031.45Z" fill="url(#paint160_linear_357_2787)"/>
<path d="M1093.04 229.976H1077.36V235.163V245.597H1087.66V240.409H1082.51V235.163H1092.86V245.597H1098.01V235.047L1093.04 229.976Z" fill="#00E7FF"/>
<path d="M1072.16 250.784H1087.66V255.971H1072.04L1067.01 250.959V235.164H1077.36V240.351H1072.16V250.784ZM1082.45 235.164V240.351H1087.66V250.784H1092.8V235.164H1082.45Z" fill="url(#paint161_linear_357_2787)"/>
<path d="M1144.04 229.976H1128.36V235.163V245.597H1138.66V240.409H1133.51V235.163H1143.86V245.597H1149.01V235.047L1144.04 229.976Z" fill="#00E7FF"/>
<path d="M1123.16 250.784H1138.66V255.971H1123.04L1118.01 250.959V235.164H1128.36V240.351H1123.16V250.784ZM1133.45 235.164V240.351H1138.66V250.784H1143.8V235.164H1133.45Z" fill="url(#paint162_linear_357_2787)"/>
<path d="M1195.04 229.976H1179.36V235.163V245.597H1189.66V240.409H1184.51V235.163H1194.86V245.597H1200.01V235.047L1195.04 229.976Z" fill="#00E7FF"/>
<path d="M1174.16 250.784H1189.66V255.971H1174.04L1169.01 250.959V235.164H1179.36V240.351H1174.16V250.784ZM1184.45 235.164V240.351H1189.66V250.784H1194.8V235.164H1184.45Z" fill="url(#paint163_linear_357_2787)"/>
<path d="M1246.04 229.976H1230.36V235.163V245.597H1240.66V240.409H1235.51V235.163H1245.86V245.597H1251.01V235.047L1246.04 229.976Z" fill="#00E7FF"/>
<path d="M1225.16 250.784H1240.66V255.971H1225.04L1220.01 250.959V235.164H1230.36V240.351H1225.16V250.784ZM1235.45 235.164V240.351H1240.66V250.784H1245.8V235.164H1235.45Z" fill="url(#paint164_linear_357_2787)"/>
<path d="M1297.04 229.976H1281.36V235.163V245.597H1291.66V240.409H1286.51V235.163H1296.86V245.597H1302.01V235.047L1297.04 229.976Z" fill="#00E7FF"/>
<path d="M1276.16 250.784H1291.66V255.971H1276.04L1271.01 250.959V235.164H1281.36V240.351H1276.16V250.784ZM1286.45 235.164V240.351H1291.66V250.784H1296.81V235.164H1286.45Z" fill="url(#paint165_linear_357_2787)"/>
<path d="M1348.04 229.976H1332.36V235.163V245.597H1342.66V240.409H1337.51V235.163H1347.86V245.597H1353.01V235.047L1348.04 229.976Z" fill="#00E7FF"/>
<path d="M1327.16 250.784H1342.66V255.971H1327.04L1322.01 250.959V235.164H1332.36V240.351H1327.16V250.784ZM1337.45 235.164V240.351H1342.66V250.784H1347.81V235.164H1337.45Z" fill="url(#paint166_linear_357_2787)"/>
<path d="M1399.04 229.976H1383.37V235.163V245.597H1393.66V240.409H1388.51V235.163H1398.86V245.597H1404.01V235.047L1399.04 229.976Z" fill="#00E7FF"/>
<path d="M1378.16 250.784H1393.66V255.971H1378.04L1373.01 250.959V235.164H1383.36V240.351H1378.16V250.784ZM1388.45 235.164V240.351H1393.66V250.784H1398.81V235.164H1388.45Z" fill="url(#paint167_linear_357_2787)"/>
</g>
</g>
<defs>
<linearGradient id="paint0_linear_357_2787" x1="1.31774" y1="5.33333" x2="-24.0112" y2="25.3183" gradientUnits="userSpaceOnUse">
<stop stop-color="#003EDD"/>
<stop offset="1" stop-color="#00E7FF"/>
</linearGradient>
<linearGradient id="paint1_linear_357_2787" x1="52.3187" y1="5.33333" x2="26.9898" y2="25.3183" gradientUnits="userSpaceOnUse">
<stop stop-color="#003EDD"/>
<stop offset="1" stop-color="#00E7FF"/>
</linearGradient>
<linearGradient id="paint2_linear_357_2787" x1="103.319" y1="5.33333" x2="77.9898" y2="25.3183" gradientUnits="userSpaceOnUse">
<stop stop-color="#003EDD"/>
<stop offset="1" stop-color="#00E7FF"/>
</linearGradient>
<linearGradient id="paint3_linear_357_2787" x1="154.32" y1="5.33333" x2="128.991" y2="25.3183" gradientUnits="userSpaceOnUse">
<stop stop-color="#003EDD"/>
<stop offset="1" stop-color="#00E7FF"/>
</linearGradient>
<linearGradient id="paint4_linear_357_2787" x1="205.32" y1="5.33333" x2="179.991" y2="25.3183" gradientUnits="userSpaceOnUse">
<stop stop-color="#003EDD"/>
<stop offset="1" stop-color="#00E7FF"/>
</linearGradient>
<linearGradient id="paint5_linear_357_2787" x1="256.321" y1="5.33333" x2="230.992" y2="25.3183" gradientUnits="userSpaceOnUse">
<stop stop-color="#003EDD"/>
<stop offset="1" stop-color="#00E7FF"/>
</linearGradient>
<linearGradient id="paint6_linear_357_2787" x1="307.321" y1="5.33333" x2="281.992" y2="25.3183" gradientUnits="userSpaceOnUse">
<stop stop-color="#003EDD"/>
<stop offset="1" stop-color="#00E7FF"/>
</linearGradient>
<linearGradient id="paint7_linear_357_2787" x1="358.321" y1="5.33333" x2="332.992" y2="25.3183" gradientUnits="userSpaceOnUse">
<stop stop-color="#003EDD"/>
<stop offset="1" stop-color="#00E7FF"/>
</linearGradient>
<linearGradient id="paint8_linear_357_2787" x1="409.322" y1="5.33333" x2="383.993" y2="25.3183" gradientUnits="userSpaceOnUse">
<stop stop-color="#003EDD"/>
<stop offset="1" stop-color="#00E7FF"/>
</linearGradient>
<linearGradient id="paint9_linear_357_2787" x1="460.322" y1="5.33333" x2="434.993" y2="25.3183" gradientUnits="userSpaceOnUse">
<stop stop-color="#003EDD"/>
<stop offset="1" stop-color="#00E7FF"/>
</linearGradient>
<linearGradient id="paint10_linear_357_2787" x1="511.323" y1="5.33333" x2="485.994" y2="25.3183" gradientUnits="userSpaceOnUse">
<stop stop-color="#003EDD"/>
<stop offset="1" stop-color="#00E7FF"/>
</linearGradient>
<linearGradient id="paint11_linear_357_2787" x1="562.323" y1="5.33333" x2="536.994" y2="25.3183" gradientUnits="userSpaceOnUse">
<stop stop-color="#003EDD"/>
<stop offset="1" stop-color="#00E7FF"/>
</linearGradient>
<linearGradient id="paint12_linear_357_2787" x1="613.324" y1="5.33333" x2="587.995" y2="25.3183" gradientUnits="userSpaceOnUse">
<stop stop-color="#003EDD"/>
<stop offset="1" stop-color="#00E7FF"/>
</linearGradient>
<linearGradient id="paint13_linear_357_2787" x1="664.324" y1="5.33333" x2="638.995" y2="25.3183" gradientUnits="userSpaceOnUse">
<stop stop-color="#003EDD"/>
<stop offset="1" stop-color="#00E7FF"/>
</linearGradient>
<linearGradient id="paint14_linear_357_2787" x1="715.324" y1="5.33333" x2="689.995" y2="25.3183" gradientUnits="userSpaceOnUse">
<stop stop-color="#003EDD"/>
<stop offset="1" stop-color="#00E7FF"/>
</linearGradient>
<linearGradient id="paint15_linear_357_2787" x1="766.325" y1="5.33333" x2="740.996" y2="25.3183" gradientUnits="userSpaceOnUse">
<stop stop-color="#003EDD"/>
<stop offset="1" stop-color="#00E7FF"/>
</linearGradient>
<linearGradient id="paint16_linear_357_2787" x1="817.325" y1="5.33333" x2="791.996" y2="25.3183" gradientUnits="userSpaceOnUse">
<stop stop-color="#003EDD"/>
<stop offset="1" stop-color="#00E7FF"/>
</linearGradient>
<linearGradient id="paint17_linear_357_2787" x1="868.326" y1="5.33333" x2="842.997" y2="25.3183" gradientUnits="userSpaceOnUse">
<stop stop-color="#003EDD"/>
<stop offset="1" stop-color="#00E7FF"/>
</linearGradient>
<linearGradient id="paint18_linear_357_2787" x1="919.326" y1="5.33333" x2="893.997" y2="25.3183" gradientUnits="userSpaceOnUse">
<stop stop-color="#003EDD"/>
<stop offset="1" stop-color="#00E7FF"/>
</linearGradient>
<linearGradient id="paint19_linear_357_2787" x1="970.327" y1="5.33333" x2="944.998" y2="25.3183" gradientUnits="userSpaceOnUse">
<stop stop-color="#003EDD"/>
<stop offset="1" stop-color="#00E7FF"/>
</linearGradient>
<linearGradient id="paint20_linear_357_2787" x1="1021.33" y1="5.33333" x2="995.998" y2="25.3183" gradientUnits="userSpaceOnUse">
<stop stop-color="#003EDD"/>
<stop offset="1" stop-color="#00E7FF"/>
</linearGradient>
<linearGradient id="paint21_linear_357_2787" x1="1072.33" y1="5.33333" x2="1047" y2="25.3183" gradientUnits="userSpaceOnUse">
<stop stop-color="#003EDD"/>
<stop offset="1" stop-color="#00E7FF"/>
</linearGradient>
<linearGradient id="paint22_linear_357_2787" x1="1123.33" y1="5.33333" x2="1098" y2="25.3183" gradientUnits="userSpaceOnUse">
<stop stop-color="#003EDD"/>
<stop offset="1" stop-color="#00E7FF"/>
</linearGradient>
<linearGradient id="paint23_linear_357_2787" x1="1174.33" y1="5.33333" x2="1149" y2="25.3183" gradientUnits="userSpaceOnUse">
<stop stop-color="#003EDD"/>
<stop offset="1" stop-color="#00E7FF"/>
</linearGradient>
<linearGradient id="paint24_linear_357_2787" x1="1225.33" y1="5.33333" x2="1200" y2="25.3183" gradientUnits="userSpaceOnUse">
<stop stop-color="#003EDD"/>
<stop offset="1" stop-color="#00E7FF"/>
</linearGradient>
<linearGradient id="paint25_linear_357_2787" x1="1276.33" y1="5.33333" x2="1251" y2="25.3183" gradientUnits="userSpaceOnUse">
<stop stop-color="#003EDD"/>
<stop offset="1" stop-color="#00E7FF"/>
</linearGradient>
<linearGradient id="paint26_linear_357_2787" x1="1327.33" y1="5.33333" x2="1302" y2="25.3183" gradientUnits="userSpaceOnUse">
<stop stop-color="#003EDD"/>
<stop offset="1" stop-color="#00E7FF"/>
</linearGradient>
<linearGradient id="paint27_linear_357_2787" x1="1378.33" y1="5.33333" x2="1353" y2="25.3183" gradientUnits="userSpaceOnUse">
<stop stop-color="#003EDD"/>
<stop offset="1" stop-color="#00E7FF"/>
</linearGradient>
<linearGradient id="paint28_linear_357_2787" x1="21.3177" y1="51.3284" x2="-4.01118" y2="71.3135" gradientUnits="userSpaceOnUse">
<stop stop-color="#003EDD"/>
<stop offset="1" stop-color="#00E7FF"/>
</linearGradient>
<linearGradient id="paint29_linear_357_2787" x1="72.3187" y1="51.3284" x2="46.9898" y2="71.3135" gradientUnits="userSpaceOnUse">
<stop stop-color="#003EDD"/>
<stop offset="1" stop-color="#00E7FF"/>
</linearGradient>
<linearGradient id="paint30_linear_357_2787" x1="123.319" y1="51.3284" x2="97.9898" y2="71.3135" gradientUnits="userSpaceOnUse">
<stop stop-color="#003EDD"/>
<stop offset="1" stop-color="#00E7FF"/>
</linearGradient>
<linearGradient id="paint31_linear_357_2787" x1="174.32" y1="51.3284" x2="148.991" y2="71.3135" gradientUnits="userSpaceOnUse">
<stop stop-color="#003EDD"/>
<stop offset="1" stop-color="#00E7FF"/>
</linearGradient>
<linearGradient id="paint32_linear_357_2787" x1="225.32" y1="51.3284" x2="199.991" y2="71.3135" gradientUnits="userSpaceOnUse">
<stop stop-color="#003EDD"/>
<stop offset="1" stop-color="#00E7FF"/>
</linearGradient>
<linearGradient id="paint33_linear_357_2787" x1="276.321" y1="51.3284" x2="250.992" y2="71.3135" gradientUnits="userSpaceOnUse">
<stop stop-color="#003EDD"/>
<stop offset="1" stop-color="#00E7FF"/>
</linearGradient>
<linearGradient id="paint34_linear_357_2787" x1="327.321" y1="51.3284" x2="301.992" y2="71.3135" gradientUnits="userSpaceOnUse">
<stop stop-color="#003EDD"/>
<stop offset="1" stop-color="#00E7FF"/>
</linearGradient>
<linearGradient id="paint35_linear_357_2787" x1="378.321" y1="51.3284" x2="352.992" y2="71.3135" gradientUnits="userSpaceOnUse">
<stop stop-color="#003EDD"/>
<stop offset="1" stop-color="#00E7FF"/>
</linearGradient>
<linearGradient id="paint36_linear_357_2787" x1="429.322" y1="51.3284" x2="403.993" y2="71.3135" gradientUnits="userSpaceOnUse">
<stop stop-color="#003EDD"/>
<stop offset="1" stop-color="#00E7FF"/>
</linearGradient>
<linearGradient id="paint37_linear_357_2787" x1="480.322" y1="51.3284" x2="454.993" y2="71.3135" gradientUnits="userSpaceOnUse">
<stop stop-color="#003EDD"/>
<stop offset="1" stop-color="#00E7FF"/>
</linearGradient>
<linearGradient id="paint38_linear_357_2787" x1="531.323" y1="51.3284" x2="505.994" y2="71.3135" gradientUnits="userSpaceOnUse">
<stop stop-color="#003EDD"/>
<stop offset="1" stop-color="#00E7FF"/>
</linearGradient>
<linearGradient id="paint39_linear_357_2787" x1="582.323" y1="51.3284" x2="556.994" y2="71.3135" gradientUnits="userSpaceOnUse">
<stop stop-color="#003EDD"/>
<stop offset="1" stop-color="#00E7FF"/>
</linearGradient>
<linearGradient id="paint40_linear_357_2787" x1="633.324" y1="51.3284" x2="607.995" y2="71.3135" gradientUnits="userSpaceOnUse">
<stop stop-color="#003EDD"/>
<stop offset="1" stop-color="#00E7FF"/>
</linearGradient>
<linearGradient id="paint41_linear_357_2787" x1="684.324" y1="51.3284" x2="658.995" y2="71.3135" gradientUnits="userSpaceOnUse">
<stop stop-color="#003EDD"/>
<stop offset="1" stop-color="#00E7FF"/>
</linearGradient>
<linearGradient id="paint42_linear_357_2787" x1="735.324" y1="51.3284" x2="709.995" y2="71.3135" gradientUnits="userSpaceOnUse">
<stop stop-color="#003EDD"/>
<stop offset="1" stop-color="#00E7FF"/>
</linearGradient>
<linearGradient id="paint43_linear_357_2787" x1="786.325" y1="51.3284" x2="760.996" y2="71.3135" gradientUnits="userSpaceOnUse">
<stop stop-color="#003EDD"/>
<stop offset="1" stop-color="#00E7FF"/>
</linearGradient>
<linearGradient id="paint44_linear_357_2787" x1="837.325" y1="51.3284" x2="811.996" y2="71.3135" gradientUnits="userSpaceOnUse">
<stop stop-color="#003EDD"/>
<stop offset="1" stop-color="#00E7FF"/>
</linearGradient>
<linearGradient id="paint45_linear_357_2787" x1="888.326" y1="51.3284" x2="862.997" y2="71.3135" gradientUnits="userSpaceOnUse">
<stop stop-color="#003EDD"/>
<stop offset="1" stop-color="#00E7FF"/>
</linearGradient>
<linearGradient id="paint46_linear_357_2787" x1="939.326" y1="51.3284" x2="913.997" y2="71.3135" gradientUnits="userSpaceOnUse">
<stop stop-color="#003EDD"/>
<stop offset="1" stop-color="#00E7FF"/>
</linearGradient>
<linearGradient id="paint47_linear_357_2787" x1="990.327" y1="51.3284" x2="964.998" y2="71.3135" gradientUnits="userSpaceOnUse">
<stop stop-color="#003EDD"/>
<stop offset="1" stop-color="#00E7FF"/>
</linearGradient>
<linearGradient id="paint48_linear_357_2787" x1="1041.33" y1="51.3284" x2="1016" y2="71.3135" gradientUnits="userSpaceOnUse">
<stop stop-color="#003EDD"/>
<stop offset="1" stop-color="#00E7FF"/>
</linearGradient>
<linearGradient id="paint49_linear_357_2787" x1="1092.33" y1="51.3284" x2="1067" y2="71.3135" gradientUnits="userSpaceOnUse">
<stop stop-color="#003EDD"/>
<stop offset="1" stop-color="#00E7FF"/>
</linearGradient>
<linearGradient id="paint50_linear_357_2787" x1="1143.33" y1="51.3284" x2="1118" y2="71.3135" gradientUnits="userSpaceOnUse">
<stop stop-color="#003EDD"/>
<stop offset="1" stop-color="#00E7FF"/>
</linearGradient>
<linearGradient id="paint51_linear_357_2787" x1="1194.33" y1="51.3284" x2="1169" y2="71.3135" gradientUnits="userSpaceOnUse">
<stop stop-color="#003EDD"/>
<stop offset="1" stop-color="#00E7FF"/>
</linearGradient>
<linearGradient id="paint52_linear_357_2787" x1="1245.33" y1="51.3284" x2="1220" y2="71.3135" gradientUnits="userSpaceOnUse">
<stop stop-color="#003EDD"/>
<stop offset="1" stop-color="#00E7FF"/>
</linearGradient>
<linearGradient id="paint53_linear_357_2787" x1="1296.33" y1="51.3284" x2="1271" y2="71.3135" gradientUnits="userSpaceOnUse">
<stop stop-color="#003EDD"/>
<stop offset="1" stop-color="#00E7FF"/>
</linearGradient>
<linearGradient id="paint54_linear_357_2787" x1="1347.33" y1="51.3284" x2="1322" y2="71.3135" gradientUnits="userSpaceOnUse">
<stop stop-color="#003EDD"/>
<stop offset="1" stop-color="#00E7FF"/>
</linearGradient>
<linearGradient id="paint55_linear_357_2787" x1="1398.33" y1="51.3284" x2="1373" y2="71.3135" gradientUnits="userSpaceOnUse">
<stop stop-color="#003EDD"/>
<stop offset="1" stop-color="#00E7FF"/>
</linearGradient>
<linearGradient id="paint56_linear_357_2787" x1="1.31774" y1="97.3236" x2="-24.0112" y2="117.309" gradientUnits="userSpaceOnUse">
<stop stop-color="#003EDD"/>
<stop offset="1" stop-color="#00E7FF"/>
</linearGradient>
<linearGradient id="paint57_linear_357_2787" x1="52.3187" y1="97.3236" x2="26.9898" y2="117.309" gradientUnits="userSpaceOnUse">
<stop stop-color="#003EDD"/>
<stop offset="1" stop-color="#00E7FF"/>
</linearGradient>
<linearGradient id="paint58_linear_357_2787" x1="103.319" y1="97.3236" x2="77.9898" y2="117.309" gradientUnits="userSpaceOnUse">
<stop stop-color="#003EDD"/>
<stop offset="1" stop-color="#00E7FF"/>
</linearGradient>
<linearGradient id="paint59_linear_357_2787" x1="154.32" y1="97.3236" x2="128.991" y2="117.309" gradientUnits="userSpaceOnUse">
<stop stop-color="#003EDD"/>
<stop offset="1" stop-color="#00E7FF"/>
</linearGradient>
<linearGradient id="paint60_linear_357_2787" x1="205.32" y1="97.3236" x2="179.991" y2="117.309" gradientUnits="userSpaceOnUse">
<stop stop-color="#003EDD"/>
<stop offset="1" stop-color="#00E7FF"/>
</linearGradient>
<linearGradient id="paint61_linear_357_2787" x1="256.321" y1="97.3236" x2="230.992" y2="117.309" gradientUnits="userSpaceOnUse">
<stop stop-color="#003EDD"/>
<stop offset="1" stop-color="#00E7FF"/>
</linearGradient>
<linearGradient id="paint62_linear_357_2787" x1="307.321" y1="97.3236" x2="281.992" y2="117.309" gradientUnits="userSpaceOnUse">
<stop stop-color="#003EDD"/>
<stop offset="1" stop-color="#00E7FF"/>
</linearGradient>
<linearGradient id="paint63_linear_357_2787" x1="358.321" y1="97.3236" x2="332.992" y2="117.309" gradientUnits="userSpaceOnUse">
<stop stop-color="#003EDD"/>
<stop offset="1" stop-color="#00E7FF"/>
</linearGradient>
<linearGradient id="paint64_linear_357_2787" x1="409.322" y1="97.3236" x2="383.993" y2="117.309" gradientUnits="userSpaceOnUse">
<stop stop-color="#003EDD"/>
<stop offset="1" stop-color="#00E7FF"/>
</linearGradient>
<linearGradient id="paint65_linear_357_2787" x1="460.322" y1="97.3236" x2="434.993" y2="117.309" gradientUnits="userSpaceOnUse">
<stop stop-color="#003EDD"/>
<stop offset="1" stop-color="#00E7FF"/>
</linearGradient>
<linearGradient id="paint66_linear_357_2787" x1="511.323" y1="97.3236" x2="485.994" y2="117.309" gradientUnits="userSpaceOnUse">
<stop stop-color="#003EDD"/>
<stop offset="1" stop-color="#00E7FF"/>
</linearGradient>
<linearGradient id="paint67_linear_357_2787" x1="562.323" y1="97.3236" x2="536.994" y2="117.309" gradientUnits="userSpaceOnUse">
<stop stop-color="#003EDD"/>
<stop offset="1" stop-color="#00E7FF"/>
</linearGradient>
<linearGradient id="paint68_linear_357_2787" x1="613.324" y1="97.3236" x2="587.995" y2="117.309" gradientUnits="userSpaceOnUse">
<stop stop-color="#003EDD"/>
<stop offset="1" stop-color="#00E7FF"/>
</linearGradient>
<linearGradient id="paint69_linear_357_2787" x1="664.324" y1="97.3236" x2="638.995" y2="117.309" gradientUnits="userSpaceOnUse">
<stop stop-color="#003EDD"/>
<stop offset="1" stop-color="#00E7FF"/>
</linearGradient>
<linearGradient id="paint70_linear_357_2787" x1="715.324" y1="97.3236" x2="689.995" y2="117.309" gradientUnits="userSpaceOnUse">
<stop stop-color="#003EDD"/>
<stop offset="1" stop-color="#00E7FF"/>
</linearGradient>
<linearGradient id="paint71_linear_357_2787" x1="766.325" y1="97.3236" x2="740.996" y2="117.309" gradientUnits="userSpaceOnUse">
<stop stop-color="#003EDD"/>
<stop offset="1" stop-color="#00E7FF"/>
</linearGradient>
<linearGradient id="paint72_linear_357_2787" x1="817.325" y1="97.3236" x2="791.996" y2="117.309" gradientUnits="userSpaceOnUse">
<stop stop-color="#003EDD"/>
<stop offset="1" stop-color="#00E7FF"/>
</linearGradient>
<linearGradient id="paint73_linear_357_2787" x1="868.326" y1="97.3236" x2="842.997" y2="117.309" gradientUnits="userSpaceOnUse">
<stop stop-color="#003EDD"/>
<stop offset="1" stop-color="#00E7FF"/>
</linearGradient>
<linearGradient id="paint74_linear_357_2787" x1="919.326" y1="97.3236" x2="893.997" y2="117.309" gradientUnits="userSpaceOnUse">
<stop stop-color="#003EDD"/>
<stop offset="1" stop-color="#00E7FF"/>
</linearGradient>
<linearGradient id="paint75_linear_357_2787" x1="970.327" y1="97.3236" x2="944.998" y2="117.309" gradientUnits="userSpaceOnUse">
<stop stop-color="#003EDD"/>
<stop offset="1" stop-color="#00E7FF"/>
</linearGradient>
<linearGradient id="paint76_linear_357_2787" x1="1021.33" y1="97.3236" x2="995.998" y2="117.309" gradientUnits="userSpaceOnUse">
<stop stop-color="#003EDD"/>
<stop offset="1" stop-color="#00E7FF"/>
</linearGradient>
<linearGradient id="paint77_linear_357_2787" x1="1072.33" y1="97.3236" x2="1047" y2="117.309" gradientUnits="userSpaceOnUse">
<stop stop-color="#003EDD"/>
<stop offset="1" stop-color="#00E7FF"/>
</linearGradient>
<linearGradient id="paint78_linear_357_2787" x1="1123.33" y1="97.3236" x2="1098" y2="117.309" gradientUnits="userSpaceOnUse">
<stop stop-color="#003EDD"/>
<stop offset="1" stop-color="#00E7FF"/>
</linearGradient>
<linearGradient id="paint79_linear_357_2787" x1="1174.33" y1="97.3236" x2="1149" y2="117.309" gradientUnits="userSpaceOnUse">
<stop stop-color="#003EDD"/>
<stop offset="1" stop-color="#00E7FF"/>
</linearGradient>
<linearGradient id="paint80_linear_357_2787" x1="1225.33" y1="97.3236" x2="1200" y2="117.309" gradientUnits="userSpaceOnUse">
<stop stop-color="#003EDD"/>
<stop offset="1" stop-color="#00E7FF"/>
</linearGradient>
<linearGradient id="paint81_linear_357_2787" x1="1276.33" y1="97.3236" x2="1251" y2="117.309" gradientUnits="userSpaceOnUse">
<stop stop-color="#003EDD"/>
<stop offset="1" stop-color="#00E7FF"/>
</linearGradient>
<linearGradient id="paint82_linear_357_2787" x1="1327.33" y1="97.3236" x2="1302" y2="117.309" gradientUnits="userSpaceOnUse">
<stop stop-color="#003EDD"/>
<stop offset="1" stop-color="#00E7FF"/>
</linearGradient>
<linearGradient id="paint83_linear_357_2787" x1="1378.33" y1="97.3236" x2="1353" y2="117.309" gradientUnits="userSpaceOnUse">
<stop stop-color="#003EDD"/>
<stop offset="1" stop-color="#00E7FF"/>
</linearGradient>
<linearGradient id="paint84_linear_357_2787" x1="21.3177" y1="143.319" x2="-4.01118" y2="163.304" gradientUnits="userSpaceOnUse">
<stop stop-color="#003EDD"/>
<stop offset="1" stop-color="#00E7FF"/>
</linearGradient>
<linearGradient id="paint85_linear_357_2787" x1="72.3187" y1="143.319" x2="46.9898" y2="163.304" gradientUnits="userSpaceOnUse">
<stop stop-color="#003EDD"/>
<stop offset="1" stop-color="#00E7FF"/>
</linearGradient>
<linearGradient id="paint86_linear_357_2787" x1="123.319" y1="143.319" x2="97.9898" y2="163.304" gradientUnits="userSpaceOnUse">
<stop stop-color="#003EDD"/>
<stop offset="1" stop-color="#00E7FF"/>
</linearGradient>
<linearGradient id="paint87_linear_357_2787" x1="174.32" y1="143.319" x2="148.991" y2="163.304" gradientUnits="userSpaceOnUse">
<stop stop-color="#003EDD"/>
<stop offset="1" stop-color="#00E7FF"/>
</linearGradient>
<linearGradient id="paint88_linear_357_2787" x1="225.32" y1="143.319" x2="199.991" y2="163.304" gradientUnits="userSpaceOnUse">
<stop stop-color="#003EDD"/>
<stop offset="1" stop-color="#00E7FF"/>
</linearGradient>
<linearGradient id="paint89_linear_357_2787" x1="276.321" y1="143.319" x2="250.992" y2="163.304" gradientUnits="userSpaceOnUse">
<stop stop-color="#003EDD"/>
<stop offset="1" stop-color="#00E7FF"/>
</linearGradient>
<linearGradient id="paint90_linear_357_2787" x1="327.321" y1="143.319" x2="301.992" y2="163.304" gradientUnits="userSpaceOnUse">
<stop stop-color="#003EDD"/>
<stop offset="1" stop-color="#00E7FF"/>
</linearGradient>
<linearGradient id="paint91_linear_357_2787" x1="378.321" y1="143.319" x2="352.992" y2="163.304" gradientUnits="userSpaceOnUse">
<stop stop-color="#003EDD"/>
<stop offset="1" stop-color="#00E7FF"/>
</linearGradient>
<linearGradient id="paint92_linear_357_2787" x1="429.322" y1="143.319" x2="403.993" y2="163.304" gradientUnits="userSpaceOnUse">
<stop stop-color="#003EDD"/>
<stop offset="1" stop-color="#00E7FF"/>
</linearGradient>
<linearGradient id="paint93_linear_357_2787" x1="480.322" y1="143.319" x2="454.993" y2="163.304" gradientUnits="userSpaceOnUse">
<stop stop-color="#003EDD"/>
<stop offset="1" stop-color="#00E7FF"/>
</linearGradient>
<linearGradient id="paint94_linear_357_2787" x1="531.323" y1="143.319" x2="505.994" y2="163.304" gradientUnits="userSpaceOnUse">
<stop stop-color="#003EDD"/>
<stop offset="1" stop-color="#00E7FF"/>
</linearGradient>
<linearGradient id="paint95_linear_357_2787" x1="582.323" y1="143.319" x2="556.994" y2="163.304" gradientUnits="userSpaceOnUse">
<stop stop-color="#003EDD"/>
<stop offset="1" stop-color="#00E7FF"/>
</linearGradient>
<linearGradient id="paint96_linear_357_2787" x1="633.324" y1="143.319" x2="607.995" y2="163.304" gradientUnits="userSpaceOnUse">
<stop stop-color="#003EDD"/>
<stop offset="1" stop-color="#00E7FF"/>
</linearGradient>
<linearGradient id="paint97_linear_357_2787" x1="684.324" y1="143.319" x2="658.995" y2="163.304" gradientUnits="userSpaceOnUse">
<stop stop-color="#003EDD"/>
<stop offset="1" stop-color="#00E7FF"/>
</linearGradient>
<linearGradient id="paint98_linear_357_2787" x1="735.324" y1="143.319" x2="709.995" y2="163.304" gradientUnits="userSpaceOnUse">
<stop stop-color="#003EDD"/>
<stop offset="1" stop-color="#00E7FF"/>
</linearGradient>
<linearGradient id="paint99_linear_357_2787" x1="786.325" y1="143.319" x2="760.996" y2="163.304" gradientUnits="userSpaceOnUse">
<stop stop-color="#003EDD"/>
<stop offset="1" stop-color="#00E7FF"/>
</linearGradient>
<linearGradient id="paint100_linear_357_2787" x1="837.325" y1="143.319" x2="811.996" y2="163.304" gradientUnits="userSpaceOnUse">
<stop stop-color="#003EDD"/>
<stop offset="1" stop-color="#00E7FF"/>
</linearGradient>
<linearGradient id="paint101_linear_357_2787" x1="888.326" y1="143.319" x2="862.997" y2="163.304" gradientUnits="userSpaceOnUse">
<stop stop-color="#003EDD"/>
<stop offset="1" stop-color="#00E7FF"/>
</linearGradient>
<linearGradient id="paint102_linear_357_2787" x1="939.326" y1="143.319" x2="913.997" y2="163.304" gradientUnits="userSpaceOnUse">
<stop stop-color="#003EDD"/>
<stop offset="1" stop-color="#00E7FF"/>
</linearGradient>
<linearGradient id="paint103_linear_357_2787" x1="990.327" y1="143.319" x2="964.998" y2="163.304" gradientUnits="userSpaceOnUse">
<stop stop-color="#003EDD"/>
<stop offset="1" stop-color="#00E7FF"/>
</linearGradient>
<linearGradient id="paint104_linear_357_2787" x1="1041.33" y1="143.319" x2="1016" y2="163.304" gradientUnits="userSpaceOnUse">
<stop stop-color="#003EDD"/>
<stop offset="1" stop-color="#00E7FF"/>
</linearGradient>
<linearGradient id="paint105_linear_357_2787" x1="1092.33" y1="143.319" x2="1067" y2="163.304" gradientUnits="userSpaceOnUse">
<stop stop-color="#003EDD"/>
<stop offset="1" stop-color="#00E7FF"/>
</linearGradient>
<linearGradient id="paint106_linear_357_2787" x1="1143.33" y1="143.319" x2="1118" y2="163.304" gradientUnits="userSpaceOnUse">
<stop stop-color="#003EDD"/>
<stop offset="1" stop-color="#00E7FF"/>
</linearGradient>
<linearGradient id="paint107_linear_357_2787" x1="1194.33" y1="143.319" x2="1169" y2="163.304" gradientUnits="userSpaceOnUse">
<stop stop-color="#003EDD"/>
<stop offset="1" stop-color="#00E7FF"/>
</linearGradient>
<linearGradient id="paint108_linear_357_2787" x1="1245.33" y1="143.319" x2="1220" y2="163.304" gradientUnits="userSpaceOnUse">
<stop stop-color="#003EDD"/>
<stop offset="1" stop-color="#00E7FF"/>
</linearGradient>
<linearGradient id="paint109_linear_357_2787" x1="1296.33" y1="143.319" x2="1271" y2="163.304" gradientUnits="userSpaceOnUse">
<stop stop-color="#003EDD"/>
<stop offset="1" stop-color="#00E7FF"/>
</linearGradient>
<linearGradient id="paint110_linear_357_2787" x1="1347.33" y1="143.319" x2="1322" y2="163.304" gradientUnits="userSpaceOnUse">
<stop stop-color="#003EDD"/>
<stop offset="1" stop-color="#00E7FF"/>
</linearGradient>
<linearGradient id="paint111_linear_357_2787" x1="1398.33" y1="143.319" x2="1373" y2="163.304" gradientUnits="userSpaceOnUse">
<stop stop-color="#003EDD"/>
<stop offset="1" stop-color="#00E7FF"/>
</linearGradient>
<linearGradient id="paint112_linear_357_2787" x1="1.31774" y1="189.314" x2="-24.0112" y2="209.299" gradientUnits="userSpaceOnUse">
<stop stop-color="#003EDD"/>
<stop offset="1" stop-color="#00E7FF"/>
</linearGradient>
<linearGradient id="paint113_linear_357_2787" x1="52.3187" y1="189.314" x2="26.9898" y2="209.299" gradientUnits="userSpaceOnUse">
<stop stop-color="#003EDD"/>
<stop offset="1" stop-color="#00E7FF"/>
</linearGradient>
<linearGradient id="paint114_linear_357_2787" x1="103.319" y1="189.314" x2="77.9898" y2="209.299" gradientUnits="userSpaceOnUse">
<stop stop-color="#003EDD"/>
<stop offset="1" stop-color="#00E7FF"/>
</linearGradient>
<linearGradient id="paint115_linear_357_2787" x1="154.32" y1="189.314" x2="128.991" y2="209.299" gradientUnits="userSpaceOnUse">
<stop stop-color="#003EDD"/>
<stop offset="1" stop-color="#00E7FF"/>
</linearGradient>
<linearGradient id="paint116_linear_357_2787" x1="205.32" y1="189.314" x2="179.991" y2="209.299" gradientUnits="userSpaceOnUse">
<stop stop-color="#003EDD"/>
<stop offset="1" stop-color="#00E7FF"/>
</linearGradient>
<linearGradient id="paint117_linear_357_2787" x1="256.321" y1="189.314" x2="230.992" y2="209.299" gradientUnits="userSpaceOnUse">
<stop stop-color="#003EDD"/>
<stop offset="1" stop-color="#00E7FF"/>
</linearGradient>
<linearGradient id="paint118_linear_357_2787" x1="307.321" y1="189.314" x2="281.992" y2="209.299" gradientUnits="userSpaceOnUse">
<stop stop-color="#003EDD"/>
<stop offset="1" stop-color="#00E7FF"/>
</linearGradient>
<linearGradient id="paint119_linear_357_2787" x1="358.321" y1="189.314" x2="332.992" y2="209.299" gradientUnits="userSpaceOnUse">
<stop stop-color="#003EDD"/>
<stop offset="1" stop-color="#00E7FF"/>
</linearGradient>
<linearGradient id="paint120_linear_357_2787" x1="409.322" y1="189.314" x2="383.993" y2="209.299" gradientUnits="userSpaceOnUse">
<stop stop-color="#003EDD"/>
<stop offset="1" stop-color="#00E7FF"/>
</linearGradient>
<linearGradient id="paint121_linear_357_2787" x1="460.322" y1="189.314" x2="434.993" y2="209.299" gradientUnits="userSpaceOnUse">
<stop stop-color="#003EDD"/>
<stop offset="1" stop-color="#00E7FF"/>
</linearGradient>
<linearGradient id="paint122_linear_357_2787" x1="511.323" y1="189.314" x2="485.994" y2="209.299" gradientUnits="userSpaceOnUse">
<stop stop-color="#003EDD"/>
<stop offset="1" stop-color="#00E7FF"/>
</linearGradient>
<linearGradient id="paint123_linear_357_2787" x1="562.323" y1="189.314" x2="536.994" y2="209.299" gradientUnits="userSpaceOnUse">
<stop stop-color="#003EDD"/>
<stop offset="1" stop-color="#00E7FF"/>
</linearGradient>
<linearGradient id="paint124_linear_357_2787" x1="613.324" y1="189.314" x2="587.995" y2="209.299" gradientUnits="userSpaceOnUse">
<stop stop-color="#003EDD"/>
<stop offset="1" stop-color="#00E7FF"/>
</linearGradient>
<linearGradient id="paint125_linear_357_2787" x1="664.324" y1="189.314" x2="638.995" y2="209.299" gradientUnits="userSpaceOnUse">
<stop stop-color="#003EDD"/>
<stop offset="1" stop-color="#00E7FF"/>
</linearGradient>
<linearGradient id="paint126_linear_357_2787" x1="715.324" y1="189.314" x2="689.995" y2="209.299" gradientUnits="userSpaceOnUse">
<stop stop-color="#003EDD"/>
<stop offset="1" stop-color="#00E7FF"/>
</linearGradient>
<linearGradient id="paint127_linear_357_2787" x1="766.325" y1="189.314" x2="740.996" y2="209.299" gradientUnits="userSpaceOnUse">
<stop stop-color="#003EDD"/>
<stop offset="1" stop-color="#00E7FF"/>
</linearGradient>
<linearGradient id="paint128_linear_357_2787" x1="817.325" y1="189.314" x2="791.996" y2="209.299" gradientUnits="userSpaceOnUse">
<stop stop-color="#003EDD"/>
<stop offset="1" stop-color="#00E7FF"/>
</linearGradient>
<linearGradient id="paint129_linear_357_2787" x1="868.326" y1="189.314" x2="842.997" y2="209.299" gradientUnits="userSpaceOnUse">
<stop stop-color="#003EDD"/>
<stop offset="1" stop-color="#00E7FF"/>
</linearGradient>
<linearGradient id="paint130_linear_357_2787" x1="919.326" y1="189.314" x2="893.997" y2="209.299" gradientUnits="userSpaceOnUse">
<stop stop-color="#003EDD"/>
<stop offset="1" stop-color="#00E7FF"/>
</linearGradient>
<linearGradient id="paint131_linear_357_2787" x1="970.327" y1="189.314" x2="944.998" y2="209.299" gradientUnits="userSpaceOnUse">
<stop stop-color="#003EDD"/>
<stop offset="1" stop-color="#00E7FF"/>
</linearGradient>
<linearGradient id="paint132_linear_357_2787" x1="1021.33" y1="189.314" x2="995.998" y2="209.299" gradientUnits="userSpaceOnUse">
<stop stop-color="#003EDD"/>
<stop offset="1" stop-color="#00E7FF"/>
</linearGradient>
<linearGradient id="paint133_linear_357_2787" x1="1072.33" y1="189.314" x2="1047" y2="209.299" gradientUnits="userSpaceOnUse">
<stop stop-color="#003EDD"/>
<stop offset="1" stop-color="#00E7FF"/>
</linearGradient>
<linearGradient id="paint134_linear_357_2787" x1="1123.33" y1="189.314" x2="1098" y2="209.299" gradientUnits="userSpaceOnUse">
<stop stop-color="#003EDD"/>
<stop offset="1" stop-color="#00E7FF"/>
</linearGradient>
<linearGradient id="paint135_linear_357_2787" x1="1174.33" y1="189.314" x2="1149" y2="209.299" gradientUnits="userSpaceOnUse">
<stop stop-color="#003EDD"/>
<stop offset="1" stop-color="#00E7FF"/>
</linearGradient>
<linearGradient id="paint136_linear_357_2787" x1="1225.33" y1="189.314" x2="1200" y2="209.299" gradientUnits="userSpaceOnUse">
<stop stop-color="#003EDD"/>
<stop offset="1" stop-color="#00E7FF"/>
</linearGradient>
<linearGradient id="paint137_linear_357_2787" x1="1276.33" y1="189.314" x2="1251" y2="209.299" gradientUnits="userSpaceOnUse">
<stop stop-color="#003EDD"/>
<stop offset="1" stop-color="#00E7FF"/>
</linearGradient>
<linearGradient id="paint138_linear_357_2787" x1="1327.33" y1="189.314" x2="1302" y2="209.299" gradientUnits="userSpaceOnUse">
<stop stop-color="#003EDD"/>
<stop offset="1" stop-color="#00E7FF"/>
</linearGradient>
<linearGradient id="paint139_linear_357_2787" x1="1378.33" y1="189.314" x2="1353" y2="209.299" gradientUnits="userSpaceOnUse">
<stop stop-color="#003EDD"/>
<stop offset="1" stop-color="#00E7FF"/>
</linearGradient>
<linearGradient id="paint140_linear_357_2787" x1="21.3177" y1="235.309" x2="-4.01118" y2="255.294" gradientUnits="userSpaceOnUse">
<stop stop-color="#003EDD"/>
<stop offset="1" stop-color="#00E7FF"/>
</linearGradient>
<linearGradient id="paint141_linear_357_2787" x1="72.3187" y1="235.309" x2="46.9898" y2="255.294" gradientUnits="userSpaceOnUse">
<stop stop-color="#003EDD"/>
<stop offset="1" stop-color="#00E7FF"/>
</linearGradient>
<linearGradient id="paint142_linear_357_2787" x1="123.319" y1="235.309" x2="97.9898" y2="255.294" gradientUnits="userSpaceOnUse">
<stop stop-color="#003EDD"/>
<stop offset="1" stop-color="#00E7FF"/>
</linearGradient>
<linearGradient id="paint143_linear_357_2787" x1="174.32" y1="235.309" x2="148.991" y2="255.294" gradientUnits="userSpaceOnUse">
<stop stop-color="#003EDD"/>
<stop offset="1" stop-color="#00E7FF"/>
</linearGradient>
<linearGradient id="paint144_linear_357_2787" x1="225.32" y1="235.309" x2="199.991" y2="255.294" gradientUnits="userSpaceOnUse">
<stop stop-color="#003EDD"/>
<stop offset="1" stop-color="#00E7FF"/>
</linearGradient>
<linearGradient id="paint145_linear_357_2787" x1="276.321" y1="235.309" x2="250.992" y2="255.294" gradientUnits="userSpaceOnUse">
<stop stop-color="#003EDD"/>
<stop offset="1" stop-color="#00E7FF"/>
</linearGradient>
<linearGradient id="paint146_linear_357_2787" x1="327.321" y1="235.309" x2="301.992" y2="255.294" gradientUnits="userSpaceOnUse">
<stop stop-color="#003EDD"/>
<stop offset="1" stop-color="#00E7FF"/>
</linearGradient>
<linearGradient id="paint147_linear_357_2787" x1="378.321" y1="235.309" x2="352.992" y2="255.294" gradientUnits="userSpaceOnUse">
<stop stop-color="#003EDD"/>
<stop offset="1" stop-color="#00E7FF"/>
</linearGradient>
<linearGradient id="paint148_linear_357_2787" x1="429.322" y1="235.309" x2="403.993" y2="255.294" gradientUnits="userSpaceOnUse">
<stop stop-color="#003EDD"/>
<stop offset="1" stop-color="#00E7FF"/>
</linearGradient>
<linearGradient id="paint149_linear_357_2787" x1="480.322" y1="235.309" x2="454.993" y2="255.294" gradientUnits="userSpaceOnUse">
<stop stop-color="#003EDD"/>
<stop offset="1" stop-color="#00E7FF"/>
</linearGradient>
<linearGradient id="paint150_linear_357_2787" x1="531.323" y1="235.309" x2="505.994" y2="255.294" gradientUnits="userSpaceOnUse">
<stop stop-color="#003EDD"/>
<stop offset="1" stop-color="#00E7FF"/>
</linearGradient>
<linearGradient id="paint151_linear_357_2787" x1="582.323" y1="235.309" x2="556.994" y2="255.294" gradientUnits="userSpaceOnUse">
<stop stop-color="#003EDD"/>
<stop offset="1" stop-color="#00E7FF"/>
</linearGradient>
<linearGradient id="paint152_linear_357_2787" x1="633.324" y1="235.309" x2="607.995" y2="255.294" gradientUnits="userSpaceOnUse">
<stop stop-color="#003EDD"/>
<stop offset="1" stop-color="#00E7FF"/>
</linearGradient>
<linearGradient id="paint153_linear_357_2787" x1="684.324" y1="235.309" x2="658.995" y2="255.294" gradientUnits="userSpaceOnUse">
<stop stop-color="#003EDD"/>
<stop offset="1" stop-color="#00E7FF"/>
</linearGradient>
<linearGradient id="paint154_linear_357_2787" x1="735.324" y1="235.309" x2="709.995" y2="255.294" gradientUnits="userSpaceOnUse">
<stop stop-color="#003EDD"/>
<stop offset="1" stop-color="#00E7FF"/>
</linearGradient>
<linearGradient id="paint155_linear_357_2787" x1="786.325" y1="235.309" x2="760.996" y2="255.294" gradientUnits="userSpaceOnUse">
<stop stop-color="#003EDD"/>
<stop offset="1" stop-color="#00E7FF"/>
</linearGradient>
<linearGradient id="paint156_linear_357_2787" x1="837.325" y1="235.309" x2="811.996" y2="255.294" gradientUnits="userSpaceOnUse">
<stop stop-color="#003EDD"/>
<stop offset="1" stop-color="#00E7FF"/>
</linearGradient>
<linearGradient id="paint157_linear_357_2787" x1="888.326" y1="235.309" x2="862.997" y2="255.294" gradientUnits="userSpaceOnUse">
<stop stop-color="#003EDD"/>
<stop offset="1" stop-color="#00E7FF"/>
</linearGradient>
<linearGradient id="paint158_linear_357_2787" x1="939.326" y1="235.309" x2="913.997" y2="255.294" gradientUnits="userSpaceOnUse">
<stop stop-color="#003EDD"/>
<stop offset="1" stop-color="#00E7FF"/>
</linearGradient>
<linearGradient id="paint159_linear_357_2787" x1="990.327" y1="235.309" x2="964.998" y2="255.294" gradientUnits="userSpaceOnUse">
<stop stop-color="#003EDD"/>
<stop offset="1" stop-color="#00E7FF"/>
</linearGradient>
<linearGradient id="paint160_linear_357_2787" x1="1041.33" y1="235.309" x2="1016" y2="255.294" gradientUnits="userSpaceOnUse">
<stop stop-color="#003EDD"/>
<stop offset="1" stop-color="#00E7FF"/>
</linearGradient>
<linearGradient id="paint161_linear_357_2787" x1="1092.33" y1="235.309" x2="1067" y2="255.294" gradientUnits="userSpaceOnUse">
<stop stop-color="#003EDD"/>
<stop offset="1" stop-color="#00E7FF"/>
</linearGradient>
<linearGradient id="paint162_linear_357_2787" x1="1143.33" y1="235.309" x2="1118" y2="255.294" gradientUnits="userSpaceOnUse">
<stop stop-color="#003EDD"/>
<stop offset="1" stop-color="#00E7FF"/>
</linearGradient>
<linearGradient id="paint163_linear_357_2787" x1="1194.33" y1="235.309" x2="1169" y2="255.294" gradientUnits="userSpaceOnUse">
<stop stop-color="#003EDD"/>
<stop offset="1" stop-color="#00E7FF"/>
</linearGradient>
<linearGradient id="paint164_linear_357_2787" x1="1245.33" y1="235.309" x2="1220" y2="255.294" gradientUnits="userSpaceOnUse">
<stop stop-color="#003EDD"/>
<stop offset="1" stop-color="#00E7FF"/>
</linearGradient>
<linearGradient id="paint165_linear_357_2787" x1="1296.33" y1="235.309" x2="1271" y2="255.294" gradientUnits="userSpaceOnUse">
<stop stop-color="#003EDD"/>
<stop offset="1" stop-color="#00E7FF"/>
</linearGradient>
<linearGradient id="paint166_linear_357_2787" x1="1347.33" y1="235.309" x2="1322" y2="255.294" gradientUnits="userSpaceOnUse">
<stop stop-color="#003EDD"/>
<stop offset="1" stop-color="#00E7FF"/>
</linearGradient>
<linearGradient id="paint167_linear_357_2787" x1="1398.33" y1="235.309" x2="1373" y2="255.294" gradientUnits="userSpaceOnUse">
<stop stop-color="#003EDD"/>
<stop offset="1" stop-color="#00E7FF"/>
</linearGradient>
</defs>
</svg>
