<svg width="32" height="32" viewBox="0 0 32 32" fill="none" xmlns="http://www.w3.org/2000/svg">
<path d="M16.0074 1.33105C9.88419 1.33105 8.09339 1.33737 7.74529 1.36626C6.48871 1.47074 5.70679 1.66864 4.85492 2.09288C4.19843 2.41896 3.68068 2.79694 3.1697 3.32679C2.23911 4.29307 1.67511 5.48185 1.47095 6.89493C1.37168 7.58094 1.34281 7.72085 1.33694 11.2249C1.33468 12.3929 1.33694 13.9301 1.33694 15.992C1.33694 22.1119 1.34371 23.9014 1.37304 24.2489C1.47456 25.4719 1.66631 26.2415 2.07239 27.0832C2.84845 28.6944 4.33063 29.9039 6.07677 30.3552C6.68137 30.5109 7.34914 30.5967 8.20642 30.6373C8.56963 30.6531 12.2717 30.6644 15.976 30.6644C19.6804 30.6644 23.3847 30.6599 23.7389 30.6418C24.7315 30.5951 25.3079 30.5177 25.9452 30.353C27.7026 29.8994 29.1578 28.7079 29.9496 27.0741C30.3478 26.2527 30.5497 25.4539 30.6411 24.2947C30.6609 24.0419 30.6693 20.0123 30.6693 15.9881C30.6693 11.9633 30.6602 7.94109 30.6404 7.68835C30.5479 6.51041 30.346 5.71834 29.9349 4.88114C29.5977 4.19581 29.2232 3.68401 28.6795 3.16071C27.7092 2.2337 26.5225 1.66954 25.1085 1.46555C24.4233 1.36648 24.2869 1.33715 20.7811 1.33105H16.0074Z" fill="url(#paint0_radial_261_11139)"/>
<path d="M16.0074 1.33105C9.88419 1.33105 8.09339 1.33737 7.74529 1.36626C6.48871 1.47074 5.70679 1.66864 4.85492 2.09288C4.19843 2.41896 3.68068 2.79694 3.1697 3.32679C2.23911 4.29307 1.67511 5.48185 1.47095 6.89493C1.37168 7.58094 1.34281 7.72085 1.33694 11.2249C1.33468 12.3929 1.33694 13.9301 1.33694 15.992C1.33694 22.1119 1.34371 23.9014 1.37304 24.2489C1.47456 25.4719 1.66631 26.2415 2.07239 27.0832C2.84845 28.6944 4.33063 29.9039 6.07677 30.3552C6.68137 30.5109 7.34914 30.5967 8.20642 30.6373C8.56963 30.6531 12.2717 30.6644 15.976 30.6644C19.6804 30.6644 23.3847 30.6599 23.7389 30.6418C24.7315 30.5951 25.3079 30.5177 25.9452 30.353C27.7026 29.8994 29.1578 28.7079 29.9496 27.0741C30.3478 26.2527 30.5497 25.4539 30.6411 24.2947C30.6609 24.0419 30.6693 20.0123 30.6693 15.9881C30.6693 11.9633 30.6602 7.94109 30.6404 7.68835C30.5479 6.51041 30.346 5.71834 29.9349 4.88114C29.5977 4.19581 29.2232 3.68401 28.6795 3.16071C27.7092 2.2337 26.5225 1.66954 25.1085 1.46555C24.4233 1.36648 24.2869 1.33715 20.7811 1.33105H16.0074Z" fill="url(#paint1_radial_261_11139)"/>
<path d="M16.0036 5.33105C13.1067 5.33105 12.7431 5.34372 11.6053 5.3955C10.4698 5.4475 9.69465 5.62728 9.01642 5.89105C8.31486 6.1635 7.71974 6.52794 7.12685 7.12105C6.53351 7.71394 6.16906 8.30905 5.89572 9.01039C5.63127 9.68883 5.45127 10.4642 5.40016 11.5993C5.34927 12.7371 5.33594 13.1008 5.33594 15.9977C5.33594 18.8946 5.34883 19.2571 5.40038 20.3948C5.45261 21.5304 5.63239 22.3055 5.89594 22.9837C6.16861 23.6853 6.53306 24.2804 7.12618 24.8733C7.71885 25.4666 8.31397 25.8319 9.01509 26.1044C9.69376 26.3682 10.4691 26.5479 11.6044 26.5999C12.7422 26.6517 13.1056 26.6644 16.0023 26.6644C18.8994 26.6644 19.2619 26.6517 20.3997 26.5999C21.5352 26.5479 22.3112 26.3682 22.9899 26.1044C23.6912 25.8319 24.2855 25.4666 24.8781 24.8733C25.4715 24.2804 25.8359 23.6853 26.1093 22.9839C26.3715 22.3055 26.5515 21.5302 26.6048 20.3951C26.6559 19.2573 26.6693 18.8946 26.6693 15.9977C26.6693 13.1008 26.6559 12.7373 26.6048 11.5995C26.5515 10.4639 26.3715 9.68883 26.1093 9.01061C25.8359 8.30905 25.4715 7.71394 24.8781 7.12105C24.2848 6.52772 23.6915 6.16328 22.9892 5.89105C22.3092 5.62728 21.5337 5.4475 20.3981 5.3955C19.2603 5.34372 18.8981 5.33105 16.0003 5.33105H16.0036ZM15.0467 7.25328C15.3307 7.25283 15.6476 7.25328 16.0036 7.25328C18.8516 7.25328 19.1892 7.2635 20.3139 7.31461C21.3539 7.36217 21.9183 7.53594 22.2943 7.68194C22.7921 7.87528 23.147 8.10639 23.5201 8.47972C23.8935 8.85305 24.1246 9.20861 24.3184 9.70639C24.4644 10.0819 24.6384 10.6464 24.6857 11.6864C24.7368 12.8108 24.7479 13.1486 24.7479 15.9953C24.7479 18.8419 24.7368 19.1797 24.6857 20.3042C24.6381 21.3442 24.4644 21.9086 24.3184 22.2842C24.125 22.7819 23.8935 23.1364 23.5201 23.5095C23.1468 23.8828 22.7923 24.1139 22.2943 24.3073C21.9188 24.4539 21.3539 24.6273 20.3139 24.6748C19.1894 24.7259 18.8516 24.7371 16.0036 24.7371C13.1554 24.7371 12.8178 24.7259 11.6933 24.6748C10.6533 24.6268 10.0889 24.4531 9.71265 24.3071C9.21487 24.1137 8.85931 23.8826 8.48597 23.5093C8.11263 23.1359 7.88152 22.7813 7.68774 22.2833C7.54174 21.9077 7.36774 21.3433 7.3204 20.3033C7.26929 19.1788 7.25907 18.8411 7.25907 15.9926C7.25907 13.1442 7.26929 12.8082 7.3204 11.6837C7.36796 10.6437 7.54174 10.0793 7.68774 9.70328C7.88108 9.2055 8.11263 8.84994 8.48597 8.47661C8.85931 8.10328 9.21487 7.87217 9.71265 7.67839C10.0887 7.53172 10.6533 7.35839 11.6933 7.31061C12.6773 7.26617 13.0587 7.25283 15.0467 7.25061V7.25328ZM21.6974 9.02439C20.9908 9.02439 20.4174 9.59705 20.4174 10.3039C20.4174 11.0106 20.9908 11.5839 21.6974 11.5839C22.4041 11.5839 22.9775 11.0106 22.9775 10.3039C22.9775 9.59728 22.4041 9.02394 21.6974 9.02394V9.02439ZM16.0036 10.5199C12.9785 10.5199 10.5258 12.9726 10.5258 15.9977C10.5258 19.0228 12.9785 21.4744 16.0036 21.4744C19.0287 21.4744 21.4806 19.0228 21.4806 15.9977C21.4806 12.9726 19.0287 10.5199 16.0036 10.5199ZM16.0036 12.4422C17.9672 12.4422 19.5592 14.0339 19.5592 15.9977C19.5592 17.9613 17.9672 19.5533 16.0036 19.5533C14.0398 19.5533 12.448 17.9613 12.448 15.9977C12.448 14.0339 14.0398 12.4422 16.0036 12.4422Z" fill="white"/>
<defs>
<radialGradient id="paint0_radial_261_11139" cx="0" cy="0" r="1" gradientUnits="userSpaceOnUse" gradientTransform="translate(9.12764 32.9237) rotate(-90) scale(29.0715 27.0388)">
<stop stop-color="#FFDD55"/>
<stop offset="0.1" stop-color="#FFDD55"/>
<stop offset="0.5" stop-color="#FF543E"/>
<stop offset="1" stop-color="#C837AB"/>
</radialGradient>
<radialGradient id="paint1_radial_261_11139" cx="0" cy="0" r="1" gradientUnits="userSpaceOnUse" gradientTransform="translate(-3.57755 3.44418) rotate(78.6806) scale(12.9951 53.5663)">
<stop stop-color="#3771C8"/>
<stop offset="0.128" stop-color="#3771C8"/>
<stop offset="1" stop-color="#6600FF" stop-opacity="0"/>
</radialGradient>
</defs>
</svg>
