<svg width="32" height="32" viewBox="0 0 32 32" fill="none" xmlns="http://www.w3.org/2000/svg">
<path d="M22.335 11.921C24.2213 13.2742 26.5321 14.0704 29.0279 14.0704V9.25064C28.5556 9.25074 28.0845 9.20131 27.6224 9.10306V12.8969C25.1267 12.8969 22.8162 12.1007 20.9294 10.7476V20.5834C20.9294 25.5038 16.9548 29.4922 12.0522 29.4922C10.223 29.4922 8.52274 28.9373 7.11035 27.9854C8.72236 29.6395 10.9704 30.6657 13.4575 30.6657C18.3604 30.6657 22.3352 26.6772 22.3352 21.7566V11.921H22.335ZM24.0689 7.05844C23.1049 6.0015 22.4719 4.6356 22.335 3.12554V2.50562H21.003C21.3383 4.4249 22.4818 6.06462 24.0689 7.05844ZM10.2112 24.2097C9.67264 23.5009 9.38158 22.634 9.38288 21.7425C9.38288 19.4921 11.2008 17.6675 13.4437 17.6675C13.8617 17.6674 14.2771 17.7316 14.6755 17.8585V12.9309C14.21 12.8669 13.7401 12.8397 13.2705 12.8497V16.6851C12.8719 16.5582 12.4562 16.4938 12.0381 16.4942C9.79526 16.4942 7.97741 18.3186 7.97741 20.5693C7.97741 22.1607 8.88608 23.5385 10.2112 24.2097Z" fill="#FF004F"/>
<path d="M20.9292 10.7475C22.816 12.1006 25.1266 12.8968 27.6222 12.8968V9.10295C26.2291 8.80517 24.9959 8.07461 24.0687 7.05844C22.4816 6.06452 21.3381 4.4248 21.0028 2.50562H17.5041V21.7564C17.4962 24.0007 15.6813 25.8179 13.4433 25.8179C12.1245 25.8179 10.9528 25.187 10.2108 24.2097C8.88571 23.5385 7.97704 22.1606 7.97704 20.5694C7.97704 18.3189 9.79488 16.4943 12.0377 16.4943C12.4675 16.4943 12.8816 16.5614 13.2701 16.6852V12.8498C8.45368 12.9497 4.58008 16.8992 4.58008 21.7565C4.58008 24.1813 5.54469 26.3794 7.11028 27.9855C8.52266 28.9373 10.2229 29.4923 12.0522 29.4923C16.9549 29.4923 20.9293 25.5037 20.9293 20.5834V10.7475H20.9292Z" fill="white"/>
<path d="M27.6224 9.10293V8.0771C26.3662 8.07901 25.1347 7.72596 24.0689 7.05831C25.0124 8.09491 26.2547 8.80968 27.6224 9.10293ZM21.003 2.50559C20.971 2.32217 20.9465 2.13754 20.9294 1.9522V1.33228H16.0986V20.5833C16.0909 22.8272 14.2762 24.6444 12.0379 24.6444C11.3808 24.6444 10.7604 24.4879 10.211 24.2097C10.953 25.1869 12.1246 25.8177 13.4435 25.8177C15.6813 25.8177 17.4965 24.0007 17.5043 21.7565V2.50559H21.003ZM13.2705 12.8498V11.7577C12.8669 11.7023 12.4599 11.6746 12.0525 11.6748C7.14937 11.6747 3.1748 15.6633 3.1748 20.5833C3.1748 23.6678 4.73688 26.3862 7.11057 27.9853C5.54499 26.3793 4.58037 24.181 4.58037 21.7564C4.58037 16.8991 8.45387 12.9496 13.2705 12.8498Z" fill="#00F2EA"/>
</svg>
