<svg width="32" height="32" viewBox="0 0 32 32" fill="none" xmlns="http://www.w3.org/2000/svg">
<path d="M30.053 9.58018C29.8872 9.01652 29.5603 8.50209 29.1052 8.08837C28.6501 7.67465 28.0826 7.37616 27.4597 7.22276C25.1663 6.66577 15.9997 6.66577 15.9997 6.66577C15.9997 6.66577 6.83301 6.66577 4.53967 7.22276C3.9167 7.37616 3.34926 7.67465 2.89414 8.08837C2.43902 8.50209 2.11218 9.01652 1.94634 9.58018C1.33301 11.6606 1.33301 15.9991 1.33301 15.9991C1.33301 15.9991 1.33301 20.3376 1.94634 22.418C2.11218 22.9817 2.43902 23.4961 2.89414 23.9098C3.34926 24.3236 3.9167 24.6221 4.53967 24.7754C6.83301 25.3324 15.9997 25.3324 15.9997 25.3324C15.9997 25.3324 25.1663 25.3324 27.4597 24.7754C28.0826 24.6221 28.6501 24.3236 29.1052 23.9098C29.5603 23.4961 29.8872 22.9817 30.053 22.418C30.6663 20.3376 30.6663 15.9991 30.6663 15.9991C30.6663 15.9991 30.6663 11.6606 30.053 9.58018Z" fill="#FF0302"/>
<path d="M12.666 20.6659V11.3325L20.666 15.9992L12.666 20.6659Z" fill="#FEFEFE"/>
</svg>
