<svg width="24" height="24" viewBox="0 0 24 24" fill="none" xmlns="http://www.w3.org/2000/svg">
<path d="M12.0055 0.998047C7.41315 0.998047 6.07004 1.00279 5.80897 1.02445C4.86653 1.10281 4.28009 1.25124 3.64119 1.56942C3.14882 1.81398 2.76051 2.09746 2.37728 2.49485C1.67933 3.21956 1.25633 4.11114 1.10321 5.17095C1.02876 5.68546 1.0071 5.79039 1.00271 8.41843C1.00101 9.29444 1.00271 10.4473 1.00271 11.9937C1.00271 16.5837 1.00778 17.9258 1.02978 18.1864C1.10592 19.1037 1.24974 19.6808 1.55429 20.3121C2.13634 21.5205 3.24798 22.4277 4.55758 22.7662C5.01103 22.883 5.51186 22.9473 6.15481 22.9777C6.42722 22.9896 9.20378 22.998 11.982 22.998C14.7603 22.998 17.5385 22.9947 17.8042 22.9811C18.5486 22.9461 18.9809 22.888 19.4589 22.7645C20.777 22.4243 21.8683 21.5307 22.4622 20.3054C22.7608 19.6893 22.9123 19.0902 22.9808 18.2208C22.9957 18.0312 23.002 15.009 23.002 11.9909C23.002 8.9722 22.9952 5.95557 22.9803 5.76602C22.9109 4.88256 22.7595 4.28851 22.4512 3.66061C22.1983 3.14661 21.9174 2.76277 21.5096 2.37029C20.7819 1.67503 19.8919 1.25191 18.8314 1.09892C18.3175 1.02462 18.2151 1.00262 15.5858 0.998047H12.0055Z" fill="url(#paint0_radial_3690_37539)"/>
<path d="M12.0055 0.998047C7.41315 0.998047 6.07004 1.00279 5.80897 1.02445C4.86653 1.10281 4.28009 1.25124 3.64119 1.56942C3.14882 1.81398 2.76051 2.09746 2.37728 2.49485C1.67933 3.21956 1.25633 4.11114 1.10321 5.17095C1.02876 5.68546 1.0071 5.79039 1.00271 8.41843C1.00101 9.29444 1.00271 10.4473 1.00271 11.9937C1.00271 16.5837 1.00778 17.9258 1.02978 18.1864C1.10592 19.1037 1.24974 19.6808 1.55429 20.3121C2.13634 21.5205 3.24798 22.4277 4.55758 22.7662C5.01103 22.883 5.51186 22.9473 6.15481 22.9777C6.42722 22.9896 9.20378 22.998 11.982 22.998C14.7603 22.998 17.5385 22.9947 17.8042 22.9811C18.5486 22.9461 18.9809 22.888 19.4589 22.7645C20.777 22.4243 21.8683 21.5307 22.4622 20.3054C22.7608 19.6893 22.9123 19.0902 22.9808 18.2208C22.9957 18.0312 23.002 15.009 23.002 11.9909C23.002 8.9722 22.9952 5.95557 22.9803 5.76602C22.9109 4.88256 22.7595 4.28851 22.4512 3.66061C22.1983 3.14661 21.9174 2.76277 21.5096 2.37029C20.7819 1.67503 19.8919 1.25191 18.8314 1.09892C18.3175 1.02462 18.2151 1.00262 15.5858 0.998047H12.0055Z" fill="url(#paint1_radial_3690_37539)"/>
<path d="M12.0027 3.99805C9.83001 3.99805 9.55734 4.00755 8.704 4.04638C7.85233 4.08538 7.27099 4.22021 6.76232 4.41805C6.23614 4.62238 5.78981 4.89571 5.34513 5.34055C4.90013 5.78521 4.62679 6.23155 4.42179 6.75755C4.22346 7.26638 4.08845 7.84788 4.05012 8.69921C4.01195 9.55255 4.00195 9.82538 4.00195 11.998C4.00195 14.1707 4.01162 14.4425 4.05029 15.2959C4.08945 16.1475 4.22429 16.7289 4.42196 17.2375C4.62646 17.7637 4.8998 18.21 5.34463 18.6547C5.78914 19.0997 6.23548 19.3737 6.76132 19.578C7.27032 19.7759 7.85183 19.9107 8.70334 19.9497C9.55668 19.9885 9.82918 19.998 12.0017 19.998C14.1746 19.998 14.4464 19.9885 15.2997 19.9497C16.1514 19.9107 16.7334 19.7759 17.2424 19.578C17.7684 19.3737 18.2141 19.0997 18.6586 18.6547C19.1036 18.21 19.3769 17.7637 19.5819 17.2377C19.7786 16.7289 19.9136 16.1474 19.9536 15.296C19.992 14.4427 20.002 14.1707 20.002 11.998C20.002 9.82538 19.992 9.55271 19.9536 8.69938C19.9136 7.84771 19.7786 7.26638 19.5819 6.75771C19.3769 6.23155 19.1036 5.78521 18.6586 5.34055C18.2136 4.89555 17.7686 4.62221 17.2419 4.41805C16.7319 4.22021 16.1502 4.08538 15.2986 4.04638C14.4452 4.00755 14.1736 3.99805 12.0002 3.99805H12.0027ZM11.285 5.43971C11.498 5.43938 11.7357 5.43971 12.0027 5.43971C14.1387 5.43971 14.3919 5.44738 15.2354 5.48571C16.0154 5.52138 16.4387 5.65171 16.7208 5.76121C17.0941 5.90621 17.3603 6.07955 17.6401 6.35955C17.9201 6.63955 18.0934 6.90621 18.2388 7.27955C18.3483 7.56121 18.4788 7.98455 18.5143 8.76455C18.5526 9.60788 18.5609 9.86121 18.5609 11.9962C18.5609 14.1312 18.5526 14.3845 18.5143 15.2279C18.4786 16.0079 18.3483 16.4312 18.2388 16.7129C18.0938 17.0862 17.9201 17.352 17.6401 17.6319C17.3601 17.9119 17.0943 18.0852 16.7208 18.2302C16.4391 18.3402 16.0154 18.4702 15.2354 18.5059C14.3921 18.5442 14.1387 18.5525 12.0027 18.5525C9.86651 18.5525 9.61335 18.5442 8.77 18.5059C7.99 18.4699 7.56666 18.3395 7.28449 18.23C6.91115 18.085 6.64448 17.9117 6.36448 17.6317C6.08447 17.3517 5.91114 17.0857 5.7658 16.7122C5.6563 16.4305 5.5258 16.0072 5.4903 15.2272C5.45197 14.3839 5.4443 14.1305 5.4443 11.9942C5.4443 9.85788 5.45197 9.60588 5.4903 8.76255C5.52597 7.98255 5.6563 7.55921 5.7658 7.27721C5.91081 6.90388 6.08447 6.63721 6.36448 6.35721C6.64448 6.07721 6.91115 5.90388 7.28449 5.75855C7.56649 5.64855 7.99 5.51855 8.77 5.48271C9.50801 5.44938 9.79401 5.43938 11.285 5.43771V5.43971ZM16.2731 6.76805C15.7431 6.76805 15.3131 7.19755 15.3131 7.72771C15.3131 8.25771 15.7431 8.68771 16.2731 8.68771C16.8031 8.68771 17.2331 8.25771 17.2331 7.72771C17.2331 7.19771 16.8031 6.76771 16.2731 6.76771V6.76805ZM12.0027 7.88971C9.73385 7.88971 7.89433 9.72921 7.89433 11.998C7.89433 14.2669 9.73385 16.1055 12.0027 16.1055C14.2716 16.1055 16.1104 14.2669 16.1104 11.998C16.1104 9.72921 14.2716 7.88971 12.0027 7.88971ZM12.0027 9.33138C13.4754 9.33138 14.6694 10.5252 14.6694 11.998C14.6694 13.4707 13.4754 14.6647 12.0027 14.6647C10.5299 14.6647 9.33601 13.4707 9.33601 11.998C9.33601 10.5252 10.5299 9.33138 12.0027 9.33138Z" fill="white"/>
<defs>
<radialGradient id="paint0_radial_3690_37539" cx="0" cy="0" r="1" gradientUnits="userSpaceOnUse" gradientTransform="translate(6.84573 24.6925) rotate(-90) scale(21.8036 20.2791)">
<stop stop-color="#FFDD55"/>
<stop offset="0.1" stop-color="#FFDD55"/>
<stop offset="0.5" stop-color="#FF543E"/>
<stop offset="1" stop-color="#C837AB"/>
</radialGradient>
<radialGradient id="paint1_radial_3690_37539" cx="0" cy="0" r="1" gradientUnits="userSpaceOnUse" gradientTransform="translate(-2.68316 2.58289) rotate(78.6806) scale(9.74631 40.1747)">
<stop stop-color="#3771C8"/>
<stop offset="0.128" stop-color="#3771C8"/>
<stop offset="1" stop-color="#6600FF" stop-opacity="0"/>
</radialGradient>
</defs>
</svg>
