<svg width="24" height="24" viewBox="0 0 24 24" fill="none" xmlns="http://www.w3.org/2000/svg">
<path d="M16.7515 8.94241C18.1662 9.95732 19.8993 10.5545 21.7712 10.5545V6.93963C21.4169 6.9397 21.0636 6.90263 20.717 6.82894V9.67434C18.8453 9.67434 17.1124 9.07719 15.6973 8.06235V15.4392C15.6973 19.1295 12.7164 22.1208 9.03943 22.1208C7.66747 22.1208 6.3923 21.7046 5.33301 20.9907C6.54201 22.2313 8.22806 23.0009 10.0934 23.0009C13.7705 23.0009 16.7516 20.0095 16.7516 16.3191V8.94241H16.7515ZM18.0519 5.29548C17.3289 4.50277 16.8542 3.47835 16.7515 2.34581V1.88086H15.7525C16.0039 3.32032 16.8616 4.55011 18.0519 5.29548ZM7.65867 18.1589C7.25472 17.6274 7.03643 16.9771 7.0374 16.3085C7.0374 14.6208 8.40086 13.2523 10.083 13.2523C10.3965 13.2522 10.7081 13.3004 11.0069 13.3955V9.69986C10.6577 9.65184 10.3054 9.63145 9.95313 9.63893V12.5154C9.65415 12.4203 9.34239 12.372 9.02882 12.3723C7.34669 12.3723 5.9833 13.7406 5.9833 15.4286C5.9833 16.6222 6.66481 17.6555 7.65867 18.1589Z" fill="#FF004F"/>
<path d="M15.6974 8.06228C17.1125 9.07711 18.8454 9.67426 20.7171 9.67426V6.82886C19.6723 6.60553 18.7474 6.0576 18.052 5.29548C16.8617 4.55004 16.0041 3.32025 15.7526 1.88086H13.1286V16.319C13.1226 18.0022 11.7615 19.3651 10.083 19.3651C9.09383 19.3651 8.21509 18.8919 7.65856 18.1589C6.66477 17.6555 5.98327 16.6221 5.98327 15.4287C5.98327 13.7408 7.34665 12.3724 9.02879 12.3724C9.35108 12.3724 9.66171 12.4227 9.9531 12.5155V9.639C6.34075 9.7139 3.43555 12.676 3.43555 16.319C3.43555 18.1376 4.15901 19.7862 5.3332 20.9908C6.39248 21.7046 7.66766 22.1209 9.03961 22.1209C12.7166 22.1209 15.6975 19.1294 15.6975 15.4392V8.06228H15.6974Z" fill="white"/>
<path d="M20.717 6.82799V6.05862C19.7749 6.06005 18.8513 5.79526 18.0519 5.29453C18.7595 6.07198 19.6913 6.60805 20.717 6.82799ZM15.7525 1.87999C15.7285 1.74242 15.7101 1.60395 15.6973 1.46495V1H12.0742V15.4383C12.0684 17.1212 10.7074 18.4841 9.02869 18.4841C8.53585 18.4841 8.07054 18.3667 7.65846 18.1581C8.21499 18.891 9.09373 19.3641 10.0829 19.3641C11.7612 19.3641 13.1226 18.0014 13.1285 16.3182V1.87999H15.7525ZM9.95315 9.63813V8.81908C9.65041 8.77755 9.34519 8.75671 9.03959 8.75686C5.36227 8.75679 2.38135 11.7483 2.38135 15.4383C2.38135 17.7517 3.5529 19.7905 5.33317 20.9898C4.15898 19.7853 3.43552 18.1366 3.43552 16.3181C3.43552 12.6752 6.34065 9.71303 9.95315 9.63813Z" fill="#00F2EA"/>
</svg>
