<svg width="24" height="24" viewBox="0 0 24 24" fill="none" xmlns="http://www.w3.org/2000/svg">
<path d="M22.54 7.18581C22.4156 6.76306 22.1705 6.37724 21.8292 6.06695C21.4878 5.75666 21.0622 5.53279 20.595 5.41774C18.875 5 12 5 12 5C12 5 5.125 5 3.405 5.41774C2.93777 5.53279 2.51219 5.75666 2.17085 6.06695C1.82951 6.37724 1.58438 6.76306 1.46 7.18581C1 8.74613 1 12 1 12C1 12 1 15.2539 1.46 16.8142C1.58438 17.2369 1.82951 17.6228 2.17085 17.933C2.51219 18.2433 2.93777 18.4672 3.405 18.5823C5.125 19 12 19 12 19C12 19 18.875 19 20.595 18.5823C21.0622 18.4672 21.4878 18.2433 21.8292 17.933C22.1705 17.6228 22.4156 17.2369 22.54 16.8142C23 15.2539 23 12 23 12C23 12 23 8.74613 22.54 7.18581Z" fill="#FF0302"/>
<path d="M9.5 15.5V8.5L15.5 12L9.5 15.5Z" fill="#FEFEFE"/>
</svg>
